G04 #@! TF.GenerationSoftware,KiCad,Pcbnew,(5.1.4-0)*
G04 #@! TF.CreationDate,2021-09-23T09:14:21+03:00*
G04 #@! TF.ProjectId,relay_logic_board,72656c61-795f-46c6-9f67-69635f626f61,rev?*
G04 #@! TF.SameCoordinates,Original*
G04 #@! TF.FileFunction,Copper,L2,Bot*
G04 #@! TF.FilePolarity,Positive*
%FSLAX46Y46*%
G04 Gerber Fmt 4.6, Leading zero omitted, Abs format (unit mm)*
G04 Created by KiCad (PCBNEW (5.1.4-0)) date 2021-09-23 09:14:21*
%MOMM*%
%LPD*%
G04 APERTURE LIST*
%ADD10C,2.500000*%
%ADD11C,2.200000*%
%ADD12R,2.200000X2.200000*%
%ADD13C,2.300000*%
%ADD14R,2.000000X2.300000*%
%ADD15R,1.700000X1.700000*%
%ADD16O,1.700000X1.700000*%
%ADD17C,0.600000*%
%ADD18C,1.016000*%
%ADD19C,2.540000*%
%ADD20C,3.810000*%
%ADD21C,0.508000*%
%ADD22C,0.762000*%
%ADD23C,0.254000*%
%ADD24C,0.304800*%
G04 APERTURE END LIST*
D10*
X166250000Y-83850000D03*
X164250000Y-77850000D03*
X152050000Y-77850000D03*
X152050000Y-89850000D03*
X164250000Y-89850000D03*
D11*
X175900000Y-80850000D03*
X175900000Y-83390000D03*
X175900000Y-85930000D03*
X175900000Y-88470000D03*
X175900000Y-91010000D03*
X175900000Y-93550000D03*
X175900000Y-96090000D03*
X175900000Y-98630000D03*
D12*
X175900000Y-101170000D03*
D11*
X145880000Y-71100000D03*
X148420000Y-71100000D03*
X150960000Y-71100000D03*
X153500000Y-71100000D03*
X156040000Y-71100000D03*
X158580000Y-71100000D03*
D12*
X161120000Y-71100000D03*
D13*
X127850000Y-108850000D03*
X133050000Y-79450000D03*
D14*
X138050000Y-79450000D03*
D13*
X143250000Y-108850000D03*
D15*
X179850000Y-110620000D03*
D16*
X179850000Y-113160000D03*
X179850000Y-115700000D03*
X179850000Y-118240000D03*
X179850000Y-120780000D03*
D15*
X171350000Y-115600000D03*
D16*
X173890000Y-115600000D03*
X171350000Y-118140000D03*
X173890000Y-118140000D03*
X171350000Y-120680000D03*
X173890000Y-120680000D03*
D15*
X135260000Y-71000000D03*
D16*
X137800000Y-71000000D03*
X140340000Y-71000000D03*
D10*
X164450000Y-107200000D03*
X152250000Y-107200000D03*
X152250000Y-95200000D03*
X164450000Y-95200000D03*
X166450000Y-101200000D03*
D17*
X147300000Y-120052400D03*
X147300000Y-116574278D03*
X157550000Y-117000000D03*
X167900000Y-88850000D03*
X169318999Y-105181001D03*
X144500000Y-113850000D03*
X147687500Y-114587500D03*
X175100000Y-106450000D03*
X165600000Y-111300000D03*
X162150000Y-117050000D03*
X161050000Y-119800000D03*
X148800000Y-111900000D03*
X143000000Y-120500000D03*
X135050000Y-120450000D03*
X125300000Y-112250000D03*
X125350000Y-113800000D03*
X120650000Y-112800000D03*
X120650000Y-111250000D03*
X120700000Y-109700000D03*
X122800000Y-101850000D03*
X178543011Y-82950000D03*
X131050000Y-119650000D03*
X155300000Y-118900000D03*
X148650000Y-117947600D03*
X170050000Y-109400000D03*
X167588683Y-110761317D03*
X158850000Y-111900006D03*
X166150000Y-98300000D03*
X155456893Y-118115533D03*
X148938110Y-117201278D03*
X178950000Y-101650000D03*
X168350000Y-104300000D03*
X155300000Y-122292000D03*
X158600000Y-121324990D03*
D18*
X175870000Y-101200000D02*
X175900000Y-101170000D01*
D19*
X168700000Y-101200000D02*
X173200000Y-101200000D01*
D18*
X168700000Y-101200000D02*
X175870000Y-101200000D01*
D19*
X168700000Y-101200000D02*
X166450000Y-101200000D01*
D20*
X139950000Y-79450000D02*
X138050000Y-79450000D01*
X162100000Y-86050000D02*
X146550000Y-86050000D01*
X164000000Y-84150000D02*
X162100000Y-86050000D01*
X146550000Y-86050000D02*
X139950000Y-79450000D01*
X165950000Y-84150000D02*
X164000000Y-84150000D01*
X166250000Y-83850000D02*
X165950000Y-84150000D01*
D18*
X175900000Y-98630000D02*
X174080000Y-98630000D01*
X174080000Y-98630000D02*
X173500000Y-98050000D01*
D19*
X166750000Y-71100000D02*
X161150001Y-71100000D01*
X170600000Y-96900000D02*
X170600000Y-74950000D01*
X170600000Y-74950000D02*
X166750000Y-71100000D01*
X172050000Y-98350000D02*
X170600000Y-96900000D01*
X173300000Y-98350000D02*
X172050000Y-98350000D01*
D18*
X161120000Y-71100000D02*
X161120000Y-74330000D01*
D19*
X161120000Y-74330000D02*
X161120000Y-77180000D01*
X161120000Y-77180000D02*
X157900000Y-80400000D01*
D20*
X136123655Y-74750000D02*
X133050000Y-77823655D01*
X133050000Y-77823655D02*
X133050000Y-79450000D01*
X149521010Y-81450000D02*
X142821010Y-74750000D01*
X142821010Y-74750000D02*
X136123655Y-74750000D01*
X157000000Y-81450000D02*
X149521010Y-81450000D01*
X159300000Y-79150000D02*
X157000000Y-81450000D01*
D21*
X147300000Y-120052400D02*
X147300000Y-116574278D01*
D22*
X167100000Y-118200000D02*
X158500000Y-118200000D01*
X157550000Y-117250000D02*
X157550000Y-117000000D01*
X168350000Y-114100000D02*
X168350000Y-116950000D01*
X169100000Y-113350000D02*
X168350000Y-114100000D01*
X168350000Y-116950000D02*
X167100000Y-118200000D01*
X172842081Y-113350000D02*
X169100000Y-113350000D01*
X158500000Y-118200000D02*
X157550000Y-117250000D01*
X173890000Y-114397919D02*
X172842081Y-113350000D01*
X173890000Y-115600000D02*
X173890000Y-114397919D01*
D18*
X166217766Y-95200000D02*
X167450000Y-93967766D01*
X164450000Y-95200000D02*
X166217766Y-95200000D01*
X167450000Y-89300000D02*
X167900000Y-88850000D01*
X167450000Y-93967766D02*
X167450000Y-89300000D01*
D22*
X169318999Y-105181001D02*
X178181001Y-105181001D01*
X179850000Y-106850000D02*
X179850000Y-110620000D01*
X178181001Y-105181001D02*
X179850000Y-106850000D01*
D21*
X144500000Y-113850000D02*
X145650000Y-113850000D01*
X145650000Y-113850000D02*
X146387500Y-114587500D01*
X146387500Y-114587500D02*
X147687500Y-114587500D01*
D22*
X174000000Y-86570000D02*
X174800001Y-87370001D01*
X174000000Y-70950000D02*
X174000000Y-86570000D01*
X171812011Y-68762011D02*
X174000000Y-70950000D01*
X154687989Y-68762011D02*
X171812011Y-68762011D01*
X153500000Y-69950000D02*
X154687989Y-68762011D01*
X174800001Y-87370001D02*
X175900000Y-88470000D01*
X153500000Y-71100000D02*
X153500000Y-69950000D01*
X176999999Y-84830001D02*
X175900000Y-85930000D01*
X177581001Y-84248999D02*
X176999999Y-84830001D01*
X177581001Y-80043119D02*
X177581001Y-84248999D01*
X174962010Y-77424128D02*
X177581001Y-80043119D01*
X152250000Y-67800000D02*
X172410486Y-67800000D01*
X150960000Y-71100000D02*
X150960000Y-69090000D01*
X174962010Y-70351524D02*
X174962010Y-77424128D01*
X150960000Y-69090000D02*
X152250000Y-67800000D01*
X172410486Y-67800000D02*
X174962010Y-70351524D01*
X175924020Y-77025652D02*
X178543011Y-79644642D01*
X175924020Y-69953047D02*
X175924020Y-77025652D01*
X172808963Y-66837990D02*
X175924020Y-69953047D01*
X150412010Y-66837990D02*
X172808963Y-66837990D01*
X148420000Y-68830000D02*
X150412010Y-66837990D01*
X178543011Y-79644642D02*
X178543011Y-82950000D01*
X148420000Y-71100000D02*
X148420000Y-68830000D01*
D18*
X175900000Y-93550000D02*
X175900000Y-91010000D01*
X175900000Y-93550000D02*
X178600000Y-93550000D01*
X178600000Y-93550000D02*
X181750000Y-96700000D01*
X181750000Y-96700000D02*
X181750000Y-99950000D01*
X181750000Y-99950000D02*
X181750000Y-98550000D01*
X131050000Y-121850000D02*
X131050000Y-119650000D01*
X132500000Y-123300000D02*
X131050000Y-121850000D01*
X181750000Y-121185842D02*
X179635842Y-123300000D01*
X179635842Y-123300000D02*
X132500000Y-123300000D01*
X181750000Y-99950000D02*
X181750000Y-121185842D01*
D23*
X155300000Y-118900000D02*
X152800000Y-118900000D01*
X152800000Y-118900000D02*
X151950000Y-118050000D01*
X148752400Y-118050000D02*
X148650000Y-117947600D01*
X151950000Y-118050000D02*
X148752400Y-118050000D01*
D24*
X167650000Y-110700000D02*
X167588683Y-110761317D01*
X169150000Y-110700000D02*
X167650000Y-110700000D01*
X170050000Y-109800000D02*
X169150000Y-110700000D01*
X170050000Y-109400000D02*
X170050000Y-109800000D01*
X158850000Y-107400000D02*
X158850000Y-99450000D01*
X158850000Y-106550000D02*
X158850000Y-107400000D01*
X158850000Y-107400000D02*
X158850000Y-111900006D01*
X160000000Y-98300000D02*
X166150000Y-98300000D01*
X158850000Y-99450000D02*
X160000000Y-98300000D01*
X155032629Y-118115533D02*
X154702172Y-118445990D01*
X155456893Y-118115533D02*
X155032629Y-118115533D01*
X152988056Y-118445990D02*
X152138057Y-117595990D01*
X154702172Y-118445990D02*
X152988056Y-118445990D01*
X149332822Y-117595990D02*
X148938110Y-117201278D01*
X152138057Y-117595990D02*
X149332822Y-117595990D01*
X168350000Y-104300000D02*
X177900000Y-104300000D01*
X177900000Y-104300000D02*
X178950000Y-103250000D01*
X178950000Y-103250000D02*
X178950000Y-101650000D01*
D23*
X158575010Y-121300000D02*
X158600000Y-121324990D01*
X155867736Y-121300000D02*
X158575010Y-121300000D01*
X155300000Y-121867736D02*
X155867736Y-121300000D01*
X155300000Y-122292000D02*
X155300000Y-121867736D01*
G36*
X147907649Y-68264721D02*
G01*
X147878579Y-68288578D01*
X147854722Y-68317648D01*
X147854721Y-68317649D01*
X147783355Y-68404608D01*
X147712599Y-68536985D01*
X147669027Y-68680622D01*
X147654314Y-68830000D01*
X147658001Y-68867433D01*
X147658001Y-69827968D01*
X147475917Y-69949632D01*
X147277674Y-70147875D01*
X147086712Y-70072893D01*
X146059605Y-71100000D01*
X147086712Y-72127107D01*
X147277674Y-72052125D01*
X147475917Y-72250368D01*
X147659449Y-72373000D01*
X146881079Y-72373000D01*
X146907107Y-72306712D01*
X145880000Y-71279605D01*
X144852893Y-72306712D01*
X144878921Y-72373000D01*
X130500000Y-72373000D01*
X130475224Y-72375440D01*
X130451399Y-72382667D01*
X130429443Y-72394403D01*
X130410197Y-72410197D01*
X130394403Y-72429443D01*
X130382667Y-72451399D01*
X130375440Y-72475224D01*
X130373000Y-72500000D01*
X130373000Y-103000000D01*
X130375440Y-103024776D01*
X130382667Y-103048601D01*
X130394403Y-103070557D01*
X130410197Y-103089803D01*
X130429443Y-103105597D01*
X130451399Y-103117333D01*
X130475224Y-103124560D01*
X130500000Y-103127000D01*
X158316601Y-103127000D01*
X158316600Y-107373805D01*
X158316600Y-107373806D01*
X158316601Y-111472527D01*
X158246506Y-111577432D01*
X158195171Y-111701366D01*
X158169000Y-111832933D01*
X158169000Y-111967079D01*
X158195171Y-112098646D01*
X158246506Y-112222580D01*
X158321033Y-112334118D01*
X158415888Y-112428973D01*
X158527426Y-112503500D01*
X158651360Y-112554835D01*
X158782927Y-112581006D01*
X158917073Y-112581006D01*
X159048640Y-112554835D01*
X159172574Y-112503500D01*
X159284112Y-112428973D01*
X159378967Y-112334118D01*
X159453494Y-112222580D01*
X159504829Y-112098646D01*
X159531000Y-111967079D01*
X159531000Y-111832933D01*
X159504829Y-111701366D01*
X159453494Y-111577432D01*
X159383400Y-111472528D01*
X159383400Y-110694244D01*
X166907683Y-110694244D01*
X166907683Y-110828390D01*
X166933854Y-110959957D01*
X166985189Y-111083891D01*
X167059716Y-111195429D01*
X167154571Y-111290284D01*
X167266109Y-111364811D01*
X167390043Y-111416146D01*
X167521610Y-111442317D01*
X167655756Y-111442317D01*
X167787323Y-111416146D01*
X167911257Y-111364811D01*
X168022795Y-111290284D01*
X168079679Y-111233400D01*
X169123813Y-111233400D01*
X169150000Y-111235979D01*
X169176187Y-111233400D01*
X169176195Y-111233400D01*
X169254565Y-111225681D01*
X169355111Y-111195181D01*
X169447775Y-111145651D01*
X169528995Y-111078995D01*
X169545695Y-111058646D01*
X170408651Y-110195691D01*
X170428995Y-110178995D01*
X170495651Y-110097775D01*
X170545181Y-110005111D01*
X170575681Y-109904564D01*
X170583252Y-109827699D01*
X170653494Y-109722574D01*
X170704829Y-109598640D01*
X170731000Y-109467073D01*
X170731000Y-109332927D01*
X170704829Y-109201360D01*
X170653494Y-109077426D01*
X170578967Y-108965888D01*
X170484112Y-108871033D01*
X170372574Y-108796506D01*
X170248640Y-108745171D01*
X170117073Y-108719000D01*
X169982927Y-108719000D01*
X169851360Y-108745171D01*
X169727426Y-108796506D01*
X169615888Y-108871033D01*
X169521033Y-108965888D01*
X169446506Y-109077426D01*
X169395171Y-109201360D01*
X169369000Y-109332927D01*
X169369000Y-109467073D01*
X169395171Y-109598640D01*
X169425001Y-109670657D01*
X168929059Y-110166600D01*
X167924393Y-110166600D01*
X167911257Y-110157823D01*
X167787323Y-110106488D01*
X167655756Y-110080317D01*
X167521610Y-110080317D01*
X167390043Y-110106488D01*
X167266109Y-110157823D01*
X167154571Y-110232350D01*
X167059716Y-110327205D01*
X166985189Y-110438743D01*
X166933854Y-110562677D01*
X166907683Y-110694244D01*
X159383400Y-110694244D01*
X159383400Y-107039360D01*
X162819000Y-107039360D01*
X162819000Y-107360640D01*
X162881678Y-107675745D01*
X163004626Y-107972568D01*
X163183119Y-108239702D01*
X163410298Y-108466881D01*
X163677432Y-108645374D01*
X163974255Y-108768322D01*
X164289360Y-108831000D01*
X164610640Y-108831000D01*
X164925745Y-108768322D01*
X165222568Y-108645374D01*
X165489702Y-108466881D01*
X165716881Y-108239702D01*
X165895374Y-107972568D01*
X166018322Y-107675745D01*
X166081000Y-107360640D01*
X166081000Y-107039360D01*
X166018322Y-106724255D01*
X165895374Y-106427432D01*
X165716881Y-106160298D01*
X165489702Y-105933119D01*
X165222568Y-105754626D01*
X164925745Y-105631678D01*
X164610640Y-105569000D01*
X164289360Y-105569000D01*
X163974255Y-105631678D01*
X163677432Y-105754626D01*
X163410298Y-105933119D01*
X163183119Y-106160298D01*
X163004626Y-106427432D01*
X162881678Y-106724255D01*
X162819000Y-107039360D01*
X159383400Y-107039360D01*
X159383400Y-103127000D01*
X177500000Y-103127000D01*
X177524776Y-103124560D01*
X177548601Y-103117333D01*
X177570557Y-103105597D01*
X177589803Y-103089803D01*
X177605597Y-103070557D01*
X177617333Y-103048601D01*
X177624560Y-103024776D01*
X177627000Y-103000000D01*
X177627000Y-97000000D01*
X177624560Y-96975224D01*
X177617333Y-96951399D01*
X177605597Y-96929443D01*
X177589803Y-96910197D01*
X177570557Y-96894403D01*
X177548601Y-96882667D01*
X177524776Y-96875440D01*
X177500000Y-96873000D01*
X177448386Y-96873000D01*
X177532216Y-96702616D01*
X177620369Y-96372415D01*
X177642409Y-96031361D01*
X177597489Y-95692561D01*
X177487336Y-95369034D01*
X177381338Y-95170726D01*
X177106712Y-95062893D01*
X176079605Y-96090000D01*
X176093748Y-96104143D01*
X175914143Y-96283748D01*
X175900000Y-96269605D01*
X175885858Y-96283748D01*
X175706253Y-96104143D01*
X175720395Y-96090000D01*
X174693288Y-95062893D01*
X174418662Y-95170726D01*
X174267784Y-95477384D01*
X174179631Y-95807585D01*
X174157591Y-96148639D01*
X174202511Y-96487439D01*
X174312664Y-96810966D01*
X174345822Y-96873000D01*
X174039084Y-96873000D01*
X173934867Y-96817295D01*
X173627000Y-96723904D01*
X173627000Y-87274630D01*
X174287649Y-87935280D01*
X174287655Y-87935285D01*
X174461723Y-88109353D01*
X174419000Y-88324134D01*
X174419000Y-88615866D01*
X174475914Y-88901992D01*
X174587555Y-89171517D01*
X174749632Y-89414083D01*
X174955917Y-89620368D01*
X175134959Y-89740000D01*
X174955917Y-89859632D01*
X174749632Y-90065917D01*
X174587555Y-90308483D01*
X174475914Y-90578008D01*
X174419000Y-90864134D01*
X174419000Y-91155866D01*
X174475914Y-91441992D01*
X174587555Y-91711517D01*
X174749632Y-91954083D01*
X174955917Y-92160368D01*
X175011001Y-92197174D01*
X175011000Y-92362826D01*
X174955917Y-92399632D01*
X174749632Y-92605917D01*
X174587555Y-92848483D01*
X174475914Y-93118008D01*
X174419000Y-93404134D01*
X174419000Y-93695866D01*
X174475914Y-93981992D01*
X174587555Y-94251517D01*
X174749632Y-94494083D01*
X174947875Y-94692326D01*
X174872893Y-94883288D01*
X175900000Y-95910395D01*
X176927107Y-94883288D01*
X176852125Y-94692326D01*
X177050368Y-94494083D01*
X177087173Y-94439000D01*
X178231765Y-94439000D01*
X180861000Y-97068236D01*
X180861001Y-98506333D01*
X180861000Y-99906333D01*
X180861000Y-109424046D01*
X180846508Y-109416299D01*
X180774689Y-109394513D01*
X180700000Y-109387157D01*
X180612000Y-109387157D01*
X180612000Y-106887422D01*
X180615686Y-106849999D01*
X180612000Y-106812574D01*
X180600974Y-106700622D01*
X180557402Y-106556985D01*
X180486645Y-106424608D01*
X180391422Y-106308578D01*
X180362353Y-106284722D01*
X178746285Y-104668655D01*
X178722423Y-104639579D01*
X178606393Y-104544356D01*
X178478399Y-104475942D01*
X179308651Y-103645691D01*
X179328995Y-103628995D01*
X179395651Y-103547775D01*
X179445181Y-103455111D01*
X179475681Y-103354565D01*
X179483400Y-103276195D01*
X179483400Y-103276188D01*
X179485979Y-103250001D01*
X179483400Y-103223814D01*
X179483400Y-102077478D01*
X179553494Y-101972574D01*
X179604829Y-101848640D01*
X179631000Y-101717073D01*
X179631000Y-101582927D01*
X179604829Y-101451360D01*
X179553494Y-101327426D01*
X179478967Y-101215888D01*
X179384112Y-101121033D01*
X179272574Y-101046506D01*
X179148640Y-100995171D01*
X179017073Y-100969000D01*
X178882927Y-100969000D01*
X178751360Y-100995171D01*
X178627426Y-101046506D01*
X178515888Y-101121033D01*
X178421033Y-101215888D01*
X178346506Y-101327426D01*
X178295171Y-101451360D01*
X178269000Y-101582927D01*
X178269000Y-101717073D01*
X178295171Y-101848640D01*
X178346506Y-101972574D01*
X178416601Y-102077479D01*
X178416600Y-103029058D01*
X177679059Y-103766600D01*
X168777478Y-103766600D01*
X168672574Y-103696506D01*
X168548640Y-103645171D01*
X168417073Y-103619000D01*
X168282927Y-103619000D01*
X168151360Y-103645171D01*
X168027426Y-103696506D01*
X167915888Y-103771033D01*
X167821033Y-103865888D01*
X167746506Y-103977426D01*
X167695171Y-104101360D01*
X167669000Y-104232927D01*
X167669000Y-104367073D01*
X167695171Y-104498640D01*
X167746506Y-104622574D01*
X167821033Y-104734112D01*
X167915888Y-104828967D01*
X168027426Y-104903494D01*
X168151360Y-104954829D01*
X168282927Y-104981000D01*
X168417073Y-104981000D01*
X168548640Y-104954829D01*
X168597454Y-104934610D01*
X168568025Y-105031623D01*
X168553313Y-105181001D01*
X168568025Y-105330379D01*
X168611597Y-105474016D01*
X168682354Y-105606393D01*
X168777577Y-105722423D01*
X168893607Y-105817646D01*
X169025984Y-105888403D01*
X169169621Y-105931975D01*
X169281573Y-105943001D01*
X177865371Y-105943001D01*
X179088000Y-107165631D01*
X179088001Y-109387157D01*
X179000000Y-109387157D01*
X178925311Y-109394513D01*
X178853492Y-109416299D01*
X178787304Y-109451678D01*
X178729289Y-109499289D01*
X178681678Y-109557304D01*
X178646299Y-109623492D01*
X178624513Y-109695311D01*
X178617157Y-109770000D01*
X178617157Y-111470000D01*
X178624513Y-111544689D01*
X178646299Y-111616508D01*
X178681678Y-111682696D01*
X178729289Y-111740711D01*
X178787304Y-111788322D01*
X178853492Y-111823701D01*
X178925311Y-111845487D01*
X179000000Y-111852843D01*
X180700000Y-111852843D01*
X180774689Y-111845487D01*
X180846508Y-111823701D01*
X180861001Y-111815954D01*
X180861001Y-112451472D01*
X180724660Y-112285340D01*
X180537216Y-112131509D01*
X180323363Y-112017202D01*
X180091318Y-111946812D01*
X179910472Y-111929000D01*
X179789528Y-111929000D01*
X179608682Y-111946812D01*
X179376637Y-112017202D01*
X179162784Y-112131509D01*
X178975340Y-112285340D01*
X178821509Y-112472784D01*
X178707202Y-112686637D01*
X178636812Y-112918682D01*
X178613044Y-113160000D01*
X178636812Y-113401318D01*
X178707202Y-113633363D01*
X178821509Y-113847216D01*
X178975340Y-114034660D01*
X179162784Y-114188491D01*
X179376637Y-114302798D01*
X179608682Y-114373188D01*
X179789528Y-114391000D01*
X179910472Y-114391000D01*
X180091318Y-114373188D01*
X180323363Y-114302798D01*
X180537216Y-114188491D01*
X180724660Y-114034660D01*
X180861001Y-113868528D01*
X180861001Y-114991472D01*
X180724660Y-114825340D01*
X180537216Y-114671509D01*
X180323363Y-114557202D01*
X180091318Y-114486812D01*
X179910472Y-114469000D01*
X179789528Y-114469000D01*
X179608682Y-114486812D01*
X179376637Y-114557202D01*
X179162784Y-114671509D01*
X178975340Y-114825340D01*
X178821509Y-115012784D01*
X178707202Y-115226637D01*
X178636812Y-115458682D01*
X178613044Y-115700000D01*
X178636812Y-115941318D01*
X178707202Y-116173363D01*
X178821509Y-116387216D01*
X178975340Y-116574660D01*
X179162784Y-116728491D01*
X179373305Y-116841017D01*
X179218748Y-116895843D01*
X178968645Y-117044822D01*
X178752412Y-117239731D01*
X178578359Y-117473080D01*
X178453175Y-117735901D01*
X178408524Y-117883110D01*
X178529845Y-118113000D01*
X179723000Y-118113000D01*
X179723000Y-118093000D01*
X179977000Y-118093000D01*
X179977000Y-118113000D01*
X179997000Y-118113000D01*
X179997000Y-118367000D01*
X179977000Y-118367000D01*
X179977000Y-118387000D01*
X179723000Y-118387000D01*
X179723000Y-118367000D01*
X178529845Y-118367000D01*
X178408524Y-118596890D01*
X178453175Y-118744099D01*
X178578359Y-119006920D01*
X178752412Y-119240269D01*
X178968645Y-119435178D01*
X179218748Y-119584157D01*
X179373305Y-119638983D01*
X179162784Y-119751509D01*
X178975340Y-119905340D01*
X178821509Y-120092784D01*
X178707202Y-120306637D01*
X178636812Y-120538682D01*
X178613044Y-120780000D01*
X178636812Y-121021318D01*
X178707202Y-121253363D01*
X178821509Y-121467216D01*
X178975340Y-121654660D01*
X179162784Y-121808491D01*
X179376637Y-121922798D01*
X179608682Y-121993188D01*
X179678538Y-122000068D01*
X179267607Y-122411000D01*
X155970671Y-122411000D01*
X155981000Y-122359073D01*
X155981000Y-122224927D01*
X155954829Y-122093360D01*
X155907371Y-121978786D01*
X156078157Y-121808000D01*
X158119931Y-121808000D01*
X158165888Y-121853957D01*
X158277426Y-121928484D01*
X158401360Y-121979819D01*
X158532927Y-122005990D01*
X158667073Y-122005990D01*
X158798640Y-121979819D01*
X158922574Y-121928484D01*
X159034112Y-121853957D01*
X159128967Y-121759102D01*
X159203494Y-121647564D01*
X159254829Y-121523630D01*
X159281000Y-121392063D01*
X159281000Y-121257917D01*
X159254829Y-121126350D01*
X159203494Y-121002416D01*
X159128967Y-120890878D01*
X159034112Y-120796023D01*
X158922574Y-120721496D01*
X158822394Y-120680000D01*
X170113044Y-120680000D01*
X170136812Y-120921318D01*
X170207202Y-121153363D01*
X170321509Y-121367216D01*
X170475340Y-121554660D01*
X170662784Y-121708491D01*
X170876637Y-121822798D01*
X171108682Y-121893188D01*
X171289528Y-121911000D01*
X171410472Y-121911000D01*
X171591318Y-121893188D01*
X171823363Y-121822798D01*
X172037216Y-121708491D01*
X172224660Y-121554660D01*
X172378491Y-121367216D01*
X172487091Y-121164040D01*
X172493175Y-121184099D01*
X172618359Y-121446920D01*
X172792412Y-121680269D01*
X173008645Y-121875178D01*
X173258748Y-122024157D01*
X173533109Y-122121481D01*
X173763000Y-122000814D01*
X173763000Y-120807000D01*
X174017000Y-120807000D01*
X174017000Y-122000814D01*
X174246891Y-122121481D01*
X174521252Y-122024157D01*
X174771355Y-121875178D01*
X174987588Y-121680269D01*
X175161641Y-121446920D01*
X175286825Y-121184099D01*
X175331476Y-121036890D01*
X175210155Y-120807000D01*
X174017000Y-120807000D01*
X173763000Y-120807000D01*
X173743000Y-120807000D01*
X173743000Y-120553000D01*
X173763000Y-120553000D01*
X173763000Y-120533000D01*
X174017000Y-120533000D01*
X174017000Y-120553000D01*
X175210155Y-120553000D01*
X175331476Y-120323110D01*
X175286825Y-120175901D01*
X175161641Y-119913080D01*
X174987588Y-119679731D01*
X174771355Y-119484822D01*
X174521252Y-119335843D01*
X174366695Y-119281017D01*
X174577216Y-119168491D01*
X174764660Y-119014660D01*
X174918491Y-118827216D01*
X175032798Y-118613363D01*
X175103188Y-118381318D01*
X175126956Y-118140000D01*
X175103188Y-117898682D01*
X175032798Y-117666637D01*
X174918491Y-117452784D01*
X174764660Y-117265340D01*
X174577216Y-117111509D01*
X174363363Y-116997202D01*
X174131318Y-116926812D01*
X173950472Y-116909000D01*
X173829528Y-116909000D01*
X173648682Y-116926812D01*
X173416637Y-116997202D01*
X173202784Y-117111509D01*
X173015340Y-117265340D01*
X172861509Y-117452784D01*
X172747202Y-117666637D01*
X172676812Y-117898682D01*
X172653044Y-118140000D01*
X172676812Y-118381318D01*
X172747202Y-118613363D01*
X172861509Y-118827216D01*
X173015340Y-119014660D01*
X173202784Y-119168491D01*
X173413305Y-119281017D01*
X173258748Y-119335843D01*
X173008645Y-119484822D01*
X172792412Y-119679731D01*
X172618359Y-119913080D01*
X172493175Y-120175901D01*
X172487091Y-120195960D01*
X172378491Y-119992784D01*
X172224660Y-119805340D01*
X172037216Y-119651509D01*
X171823363Y-119537202D01*
X171591318Y-119466812D01*
X171410472Y-119449000D01*
X171289528Y-119449000D01*
X171108682Y-119466812D01*
X170876637Y-119537202D01*
X170662784Y-119651509D01*
X170475340Y-119805340D01*
X170321509Y-119992784D01*
X170207202Y-120206637D01*
X170136812Y-120438682D01*
X170113044Y-120680000D01*
X158822394Y-120680000D01*
X158798640Y-120670161D01*
X158667073Y-120643990D01*
X158532927Y-120643990D01*
X158401360Y-120670161D01*
X158277426Y-120721496D01*
X158171909Y-120792000D01*
X155892680Y-120792000D01*
X155867736Y-120789543D01*
X155842792Y-120792000D01*
X155842789Y-120792000D01*
X155768151Y-120799351D01*
X155672393Y-120828399D01*
X155631312Y-120850357D01*
X155584140Y-120875571D01*
X155555163Y-120899352D01*
X155506788Y-120939052D01*
X155490885Y-120958430D01*
X154958430Y-121490886D01*
X154939053Y-121506788D01*
X154923151Y-121526165D01*
X154923150Y-121526166D01*
X154875571Y-121584141D01*
X154828400Y-121672393D01*
X154799352Y-121768151D01*
X154793690Y-121825638D01*
X154792641Y-121836280D01*
X154771033Y-121857888D01*
X154696506Y-121969426D01*
X154645171Y-122093360D01*
X154619000Y-122224927D01*
X154619000Y-122359073D01*
X154629329Y-122411000D01*
X132868236Y-122411000D01*
X131939000Y-121481765D01*
X131939000Y-119606333D01*
X131926136Y-119475726D01*
X131875303Y-119308149D01*
X131792753Y-119153709D01*
X131681659Y-119018341D01*
X131546291Y-118907247D01*
X131391851Y-118824697D01*
X131224274Y-118773864D01*
X131050000Y-118756699D01*
X130875727Y-118773864D01*
X130708150Y-118824697D01*
X130553710Y-118907247D01*
X130418342Y-119018341D01*
X130307248Y-119153709D01*
X130224698Y-119308149D01*
X130173865Y-119475726D01*
X130161001Y-119606333D01*
X130161000Y-121806340D01*
X130156700Y-121850000D01*
X130161000Y-121893660D01*
X130161000Y-121893666D01*
X130168462Y-121969426D01*
X130173864Y-122024274D01*
X130194185Y-122091263D01*
X130224697Y-122191850D01*
X130307247Y-122346290D01*
X130418341Y-122481659D01*
X130452264Y-122509499D01*
X131608708Y-123665944D01*
X118434077Y-123665944D01*
X118429064Y-123559636D01*
X118425819Y-123534653D01*
X118424063Y-123509538D01*
X118422144Y-123497943D01*
X118249712Y-122529917D01*
X118241139Y-122497472D01*
X118233364Y-122464834D01*
X118229577Y-122453708D01*
X117901358Y-121526845D01*
X117887594Y-121496219D01*
X117874599Y-121465305D01*
X117869045Y-121454947D01*
X117393851Y-120594136D01*
X117375281Y-120566186D01*
X117357401Y-120537793D01*
X117350230Y-120528481D01*
X116740826Y-119756840D01*
X116717917Y-119732273D01*
X116695662Y-119707207D01*
X116687067Y-119699191D01*
X115959816Y-119037444D01*
X115933229Y-119016969D01*
X115907153Y-118995853D01*
X115897364Y-118989349D01*
X115071798Y-118455266D01*
X115042219Y-118439406D01*
X115013049Y-118422835D01*
X115002330Y-118418017D01*
X114100618Y-118025942D01*
X114068858Y-118015130D01*
X114037362Y-118003542D01*
X114025999Y-118000540D01*
X113072361Y-117761003D01*
X113039257Y-117755523D01*
X113006295Y-117749235D01*
X112994594Y-117748128D01*
X112456226Y-117703866D01*
X112456226Y-116507205D01*
X146619000Y-116507205D01*
X146619000Y-116641351D01*
X146645171Y-116772918D01*
X146665001Y-116820792D01*
X146665000Y-119805888D01*
X146645171Y-119853760D01*
X146619000Y-119985327D01*
X146619000Y-120119473D01*
X146645171Y-120251040D01*
X146696506Y-120374974D01*
X146771033Y-120486512D01*
X146865888Y-120581367D01*
X146977426Y-120655894D01*
X147101360Y-120707229D01*
X147232927Y-120733400D01*
X147367073Y-120733400D01*
X147498640Y-120707229D01*
X147622574Y-120655894D01*
X147734112Y-120581367D01*
X147828967Y-120486512D01*
X147903494Y-120374974D01*
X147954829Y-120251040D01*
X147981000Y-120119473D01*
X147981000Y-119985327D01*
X147954829Y-119853760D01*
X147935000Y-119805888D01*
X147935000Y-117880527D01*
X147969000Y-117880527D01*
X147969000Y-118014673D01*
X147995171Y-118146240D01*
X148046506Y-118270174D01*
X148121033Y-118381712D01*
X148215888Y-118476567D01*
X148327426Y-118551094D01*
X148451360Y-118602429D01*
X148582927Y-118628600D01*
X148717073Y-118628600D01*
X148848640Y-118602429D01*
X148955901Y-118558000D01*
X151739580Y-118558000D01*
X152423145Y-119241565D01*
X152439052Y-119260948D01*
X152516405Y-119324429D01*
X152604657Y-119371601D01*
X152700415Y-119400649D01*
X152775053Y-119408000D01*
X152775056Y-119408000D01*
X152800000Y-119410457D01*
X152824944Y-119408000D01*
X154844921Y-119408000D01*
X154865888Y-119428967D01*
X154977426Y-119503494D01*
X155101360Y-119554829D01*
X155232927Y-119581000D01*
X155367073Y-119581000D01*
X155498640Y-119554829D01*
X155622574Y-119503494D01*
X155734112Y-119428967D01*
X155828967Y-119334112D01*
X155903494Y-119222574D01*
X155954829Y-119098640D01*
X155981000Y-118967073D01*
X155981000Y-118832927D01*
X155954829Y-118701360D01*
X155919482Y-118616023D01*
X155985860Y-118549645D01*
X156060387Y-118438107D01*
X156111722Y-118314173D01*
X156137893Y-118182606D01*
X156137893Y-118048460D01*
X156111722Y-117916893D01*
X156060387Y-117792959D01*
X155985860Y-117681421D01*
X155891005Y-117586566D01*
X155779467Y-117512039D01*
X155655533Y-117460704D01*
X155523966Y-117434533D01*
X155389820Y-117434533D01*
X155258253Y-117460704D01*
X155134319Y-117512039D01*
X155033194Y-117579609D01*
X155032629Y-117579553D01*
X155006435Y-117582133D01*
X155006434Y-117582133D01*
X154928064Y-117589852D01*
X154827518Y-117620352D01*
X154734854Y-117669882D01*
X154653634Y-117736538D01*
X154636929Y-117756893D01*
X154481231Y-117912590D01*
X153208997Y-117912590D01*
X152546408Y-117250000D01*
X156784314Y-117250000D01*
X156788000Y-117287423D01*
X156788000Y-117287425D01*
X156799026Y-117399377D01*
X156842598Y-117543014D01*
X156870914Y-117595989D01*
X156913355Y-117675392D01*
X156934005Y-117700554D01*
X157008578Y-117791422D01*
X157037654Y-117815284D01*
X157934721Y-118712351D01*
X157958578Y-118741422D01*
X157987648Y-118765279D01*
X158074607Y-118836645D01*
X158138704Y-118870905D01*
X158206985Y-118907402D01*
X158350622Y-118950974D01*
X158462574Y-118962000D01*
X158462577Y-118962000D01*
X158500000Y-118965686D01*
X158537423Y-118962000D01*
X167062577Y-118962000D01*
X167100000Y-118965686D01*
X167137423Y-118962000D01*
X167137426Y-118962000D01*
X167249378Y-118950974D01*
X167393015Y-118907402D01*
X167525392Y-118836645D01*
X167641422Y-118741422D01*
X167665284Y-118712346D01*
X168237630Y-118140000D01*
X170113044Y-118140000D01*
X170136812Y-118381318D01*
X170207202Y-118613363D01*
X170321509Y-118827216D01*
X170475340Y-119014660D01*
X170662784Y-119168491D01*
X170876637Y-119282798D01*
X171108682Y-119353188D01*
X171289528Y-119371000D01*
X171410472Y-119371000D01*
X171591318Y-119353188D01*
X171823363Y-119282798D01*
X172037216Y-119168491D01*
X172224660Y-119014660D01*
X172378491Y-118827216D01*
X172492798Y-118613363D01*
X172563188Y-118381318D01*
X172586956Y-118140000D01*
X172563188Y-117898682D01*
X172492798Y-117666637D01*
X172378491Y-117452784D01*
X172224660Y-117265340D01*
X172037216Y-117111509D01*
X171823363Y-116997202D01*
X171591318Y-116926812D01*
X171410472Y-116909000D01*
X171289528Y-116909000D01*
X171108682Y-116926812D01*
X170876637Y-116997202D01*
X170662784Y-117111509D01*
X170475340Y-117265340D01*
X170321509Y-117452784D01*
X170207202Y-117666637D01*
X170136812Y-117898682D01*
X170113044Y-118140000D01*
X168237630Y-118140000D01*
X168862352Y-117515279D01*
X168891422Y-117491422D01*
X168926215Y-117449026D01*
X168986645Y-117375393D01*
X169033664Y-117287425D01*
X169057402Y-117243015D01*
X169100974Y-117099378D01*
X169112000Y-116987426D01*
X169112000Y-116987423D01*
X169115686Y-116950000D01*
X169112000Y-116912577D01*
X169112000Y-114750000D01*
X170117157Y-114750000D01*
X170117157Y-116450000D01*
X170124513Y-116524689D01*
X170146299Y-116596508D01*
X170181678Y-116662696D01*
X170229289Y-116720711D01*
X170287304Y-116768322D01*
X170353492Y-116803701D01*
X170425311Y-116825487D01*
X170500000Y-116832843D01*
X172200000Y-116832843D01*
X172274689Y-116825487D01*
X172346508Y-116803701D01*
X172412696Y-116768322D01*
X172470711Y-116720711D01*
X172518322Y-116662696D01*
X172553701Y-116596508D01*
X172575487Y-116524689D01*
X172582843Y-116450000D01*
X172582843Y-114750000D01*
X172575487Y-114675311D01*
X172553701Y-114603492D01*
X172518322Y-114537304D01*
X172470711Y-114479289D01*
X172412696Y-114431678D01*
X172346508Y-114396299D01*
X172274689Y-114374513D01*
X172200000Y-114367157D01*
X170500000Y-114367157D01*
X170425311Y-114374513D01*
X170353492Y-114396299D01*
X170287304Y-114431678D01*
X170229289Y-114479289D01*
X170181678Y-114537304D01*
X170146299Y-114603492D01*
X170124513Y-114675311D01*
X170117157Y-114750000D01*
X169112000Y-114750000D01*
X169112000Y-114415630D01*
X169415631Y-114112000D01*
X172526451Y-114112000D01*
X173083694Y-114669244D01*
X173015340Y-114725340D01*
X172861509Y-114912784D01*
X172747202Y-115126637D01*
X172676812Y-115358682D01*
X172653044Y-115600000D01*
X172676812Y-115841318D01*
X172747202Y-116073363D01*
X172861509Y-116287216D01*
X173015340Y-116474660D01*
X173202784Y-116628491D01*
X173416637Y-116742798D01*
X173648682Y-116813188D01*
X173829528Y-116831000D01*
X173950472Y-116831000D01*
X174131318Y-116813188D01*
X174363363Y-116742798D01*
X174577216Y-116628491D01*
X174764660Y-116474660D01*
X174918491Y-116287216D01*
X175032798Y-116073363D01*
X175103188Y-115841318D01*
X175126956Y-115600000D01*
X175103188Y-115358682D01*
X175032798Y-115126637D01*
X174918491Y-114912784D01*
X174764660Y-114725340D01*
X174652000Y-114632883D01*
X174652000Y-114435341D01*
X174655686Y-114397918D01*
X174652000Y-114360493D01*
X174640974Y-114248541D01*
X174597402Y-114104904D01*
X174526645Y-113972527D01*
X174431422Y-113856497D01*
X174402351Y-113832640D01*
X173407365Y-112837654D01*
X173383503Y-112808578D01*
X173267473Y-112713355D01*
X173135096Y-112642598D01*
X172991459Y-112599026D01*
X172879507Y-112588000D01*
X172879504Y-112588000D01*
X172842081Y-112584314D01*
X172804658Y-112588000D01*
X169137422Y-112588000D01*
X169099999Y-112584314D01*
X169062576Y-112588000D01*
X169062574Y-112588000D01*
X168950622Y-112599026D01*
X168806985Y-112642598D01*
X168674608Y-112713355D01*
X168558578Y-112808578D01*
X168534720Y-112837649D01*
X167837653Y-113534716D01*
X167808578Y-113558578D01*
X167752983Y-113626322D01*
X167713355Y-113674608D01*
X167686143Y-113725519D01*
X167642598Y-113806986D01*
X167599026Y-113950623D01*
X167588398Y-114058533D01*
X167584314Y-114100000D01*
X167588000Y-114137423D01*
X167588001Y-116634368D01*
X166784370Y-117438000D01*
X158815631Y-117438000D01*
X158308919Y-116931288D01*
X158300974Y-116850623D01*
X158257402Y-116706985D01*
X158186645Y-116574608D01*
X158091422Y-116458578D01*
X157975392Y-116363355D01*
X157843015Y-116292598D01*
X157699378Y-116249026D01*
X157550000Y-116234314D01*
X157400623Y-116249026D01*
X157256986Y-116292598D01*
X157124609Y-116363355D01*
X157008578Y-116458578D01*
X156913355Y-116574608D01*
X156842598Y-116706985D01*
X156799026Y-116850622D01*
X156788000Y-116962574D01*
X156788000Y-117212577D01*
X156784314Y-117250000D01*
X152546408Y-117250000D01*
X152533753Y-117237345D01*
X152517052Y-117216995D01*
X152435832Y-117150339D01*
X152343168Y-117100809D01*
X152242622Y-117070309D01*
X152164252Y-117062590D01*
X152164244Y-117062590D01*
X152138057Y-117060011D01*
X152111871Y-117062590D01*
X149604865Y-117062590D01*
X149592939Y-117002638D01*
X149541604Y-116878704D01*
X149467077Y-116767166D01*
X149372222Y-116672311D01*
X149260684Y-116597784D01*
X149136750Y-116546449D01*
X149005183Y-116520278D01*
X148871037Y-116520278D01*
X148739470Y-116546449D01*
X148615536Y-116597784D01*
X148503998Y-116672311D01*
X148409143Y-116767166D01*
X148334616Y-116878704D01*
X148283281Y-117002638D01*
X148257110Y-117134205D01*
X148257110Y-117268351D01*
X148278661Y-117376690D01*
X148215888Y-117418633D01*
X148121033Y-117513488D01*
X148046506Y-117625026D01*
X147995171Y-117748960D01*
X147969000Y-117880527D01*
X147935000Y-117880527D01*
X147935000Y-116820790D01*
X147954829Y-116772918D01*
X147981000Y-116641351D01*
X147981000Y-116507205D01*
X147954829Y-116375638D01*
X147903494Y-116251704D01*
X147828967Y-116140166D01*
X147734112Y-116045311D01*
X147622574Y-115970784D01*
X147498640Y-115919449D01*
X147367073Y-115893278D01*
X147232927Y-115893278D01*
X147101360Y-115919449D01*
X146977426Y-115970784D01*
X146865888Y-116045311D01*
X146771033Y-116140166D01*
X146696506Y-116251704D01*
X146645171Y-116375638D01*
X146619000Y-116507205D01*
X112456226Y-116507205D01*
X112456226Y-113782927D01*
X143819000Y-113782927D01*
X143819000Y-113917073D01*
X143845171Y-114048640D01*
X143896506Y-114172574D01*
X143971033Y-114284112D01*
X144065888Y-114378967D01*
X144177426Y-114453494D01*
X144301360Y-114504829D01*
X144432927Y-114531000D01*
X144567073Y-114531000D01*
X144698640Y-114504829D01*
X144746512Y-114485000D01*
X145386975Y-114485000D01*
X145916434Y-115014460D01*
X145936315Y-115038685D01*
X145960539Y-115058565D01*
X145960543Y-115058569D01*
X146033006Y-115118038D01*
X146118256Y-115163605D01*
X146143320Y-115177002D01*
X146263018Y-115213312D01*
X146356308Y-115222500D01*
X146356311Y-115222500D01*
X146387500Y-115225572D01*
X146418689Y-115222500D01*
X147440988Y-115222500D01*
X147488860Y-115242329D01*
X147620427Y-115268500D01*
X147754573Y-115268500D01*
X147886140Y-115242329D01*
X148010074Y-115190994D01*
X148121612Y-115116467D01*
X148216467Y-115021612D01*
X148290994Y-114910074D01*
X148342329Y-114786140D01*
X148368500Y-114654573D01*
X148368500Y-114520427D01*
X148342329Y-114388860D01*
X148290994Y-114264926D01*
X148216467Y-114153388D01*
X148121612Y-114058533D01*
X148010074Y-113984006D01*
X147886140Y-113932671D01*
X147754573Y-113906500D01*
X147620427Y-113906500D01*
X147488860Y-113932671D01*
X147440988Y-113952500D01*
X146650525Y-113952500D01*
X146121074Y-113423050D01*
X146101185Y-113398815D01*
X146004494Y-113319463D01*
X145894180Y-113260498D01*
X145774482Y-113224188D01*
X145681192Y-113215000D01*
X145681181Y-113215000D01*
X145650000Y-113211929D01*
X145618819Y-113215000D01*
X144746512Y-113215000D01*
X144698640Y-113195171D01*
X144567073Y-113169000D01*
X144432927Y-113169000D01*
X144301360Y-113195171D01*
X144177426Y-113246506D01*
X144065888Y-113321033D01*
X143971033Y-113415888D01*
X143896506Y-113527426D01*
X143845171Y-113651360D01*
X143819000Y-113782927D01*
X112456226Y-113782927D01*
X112456226Y-108699210D01*
X126319000Y-108699210D01*
X126319000Y-109000790D01*
X126377835Y-109296576D01*
X126493245Y-109575201D01*
X126660795Y-109825956D01*
X126874044Y-110039205D01*
X127124799Y-110206755D01*
X127403424Y-110322165D01*
X127699210Y-110381000D01*
X128000790Y-110381000D01*
X128296576Y-110322165D01*
X128575201Y-110206755D01*
X128746420Y-110092349D01*
X142187256Y-110092349D01*
X142301118Y-110372090D01*
X142616296Y-110527961D01*
X142955826Y-110619349D01*
X143306661Y-110642741D01*
X143655319Y-110597240D01*
X143988400Y-110484594D01*
X144198882Y-110372090D01*
X144312744Y-110092349D01*
X143250000Y-109029605D01*
X142187256Y-110092349D01*
X128746420Y-110092349D01*
X128825956Y-110039205D01*
X129039205Y-109825956D01*
X129206755Y-109575201D01*
X129322165Y-109296576D01*
X129381000Y-109000790D01*
X129381000Y-108906661D01*
X141457259Y-108906661D01*
X141502760Y-109255319D01*
X141615406Y-109588400D01*
X141727910Y-109798882D01*
X142007651Y-109912744D01*
X143070395Y-108850000D01*
X143429605Y-108850000D01*
X144492349Y-109912744D01*
X144772090Y-109798882D01*
X144927961Y-109483704D01*
X145019349Y-109144174D01*
X145042741Y-108793339D01*
X144997240Y-108444681D01*
X144884594Y-108111600D01*
X144772090Y-107901118D01*
X144492349Y-107787256D01*
X143429605Y-108850000D01*
X143070395Y-108850000D01*
X142007651Y-107787256D01*
X141727910Y-107901118D01*
X141572039Y-108216296D01*
X141480651Y-108555826D01*
X141457259Y-108906661D01*
X129381000Y-108906661D01*
X129381000Y-108699210D01*
X129322165Y-108403424D01*
X129206755Y-108124799D01*
X129039205Y-107874044D01*
X128825956Y-107660795D01*
X128746421Y-107607651D01*
X142187256Y-107607651D01*
X143250000Y-108670395D01*
X144312744Y-107607651D01*
X144198882Y-107327910D01*
X143883704Y-107172039D01*
X143544174Y-107080651D01*
X143193339Y-107057259D01*
X142844681Y-107102760D01*
X142511600Y-107215406D01*
X142301118Y-107327910D01*
X142187256Y-107607651D01*
X128746421Y-107607651D01*
X128575201Y-107493245D01*
X128296576Y-107377835D01*
X128000790Y-107319000D01*
X127699210Y-107319000D01*
X127403424Y-107377835D01*
X127124799Y-107493245D01*
X126874044Y-107660795D01*
X126660795Y-107874044D01*
X126493245Y-108124799D01*
X126377835Y-108403424D01*
X126319000Y-108699210D01*
X112456226Y-108699210D01*
X112456226Y-107039360D01*
X150619000Y-107039360D01*
X150619000Y-107360640D01*
X150681678Y-107675745D01*
X150804626Y-107972568D01*
X150983119Y-108239702D01*
X151210298Y-108466881D01*
X151477432Y-108645374D01*
X151774255Y-108768322D01*
X152089360Y-108831000D01*
X152410640Y-108831000D01*
X152725745Y-108768322D01*
X153022568Y-108645374D01*
X153289702Y-108466881D01*
X153516881Y-108239702D01*
X153695374Y-107972568D01*
X153818322Y-107675745D01*
X153881000Y-107360640D01*
X153881000Y-107039360D01*
X153818322Y-106724255D01*
X153695374Y-106427432D01*
X153516881Y-106160298D01*
X153289702Y-105933119D01*
X153022568Y-105754626D01*
X152725745Y-105631678D01*
X152410640Y-105569000D01*
X152089360Y-105569000D01*
X151774255Y-105631678D01*
X151477432Y-105754626D01*
X151210298Y-105933119D01*
X150983119Y-106160298D01*
X150804626Y-106427432D01*
X150681678Y-106724255D01*
X150619000Y-107039360D01*
X112456226Y-107039360D01*
X112456226Y-92877299D01*
X120237473Y-92877299D01*
X120237473Y-93416589D01*
X120342683Y-93945517D01*
X120549061Y-94443756D01*
X120848674Y-94892160D01*
X121230010Y-95273496D01*
X121678414Y-95573109D01*
X122176653Y-95779487D01*
X122705581Y-95884697D01*
X123244871Y-95884697D01*
X123773799Y-95779487D01*
X124272038Y-95573109D01*
X124720442Y-95273496D01*
X125101778Y-94892160D01*
X125401391Y-94443756D01*
X125607769Y-93945517D01*
X125712979Y-93416589D01*
X125712979Y-92877299D01*
X125607769Y-92348371D01*
X125401391Y-91850132D01*
X125101778Y-91401728D01*
X124720442Y-91020392D01*
X124272038Y-90720779D01*
X123773799Y-90514401D01*
X123244871Y-90409191D01*
X122705581Y-90409191D01*
X122176653Y-90514401D01*
X121678414Y-90720779D01*
X121230010Y-91020392D01*
X120848674Y-91401728D01*
X120549061Y-91850132D01*
X120342683Y-92348371D01*
X120237473Y-92877299D01*
X112456226Y-92877299D01*
X112456226Y-70150000D01*
X134027157Y-70150000D01*
X134027157Y-71850000D01*
X134034513Y-71924689D01*
X134056299Y-71996508D01*
X134091678Y-72062696D01*
X134139289Y-72120711D01*
X134197304Y-72168322D01*
X134263492Y-72203701D01*
X134335311Y-72225487D01*
X134410000Y-72232843D01*
X136110000Y-72232843D01*
X136184689Y-72225487D01*
X136256508Y-72203701D01*
X136322696Y-72168322D01*
X136380711Y-72120711D01*
X136428322Y-72062696D01*
X136463701Y-71996508D01*
X136485487Y-71924689D01*
X136492843Y-71850000D01*
X136492843Y-71000000D01*
X136563044Y-71000000D01*
X136586812Y-71241318D01*
X136657202Y-71473363D01*
X136771509Y-71687216D01*
X136925340Y-71874660D01*
X137112784Y-72028491D01*
X137326637Y-72142798D01*
X137558682Y-72213188D01*
X137739528Y-72231000D01*
X137860472Y-72231000D01*
X138041318Y-72213188D01*
X138273363Y-72142798D01*
X138487216Y-72028491D01*
X138674660Y-71874660D01*
X138828491Y-71687216D01*
X138942798Y-71473363D01*
X139013188Y-71241318D01*
X139036956Y-71000000D01*
X139103044Y-71000000D01*
X139126812Y-71241318D01*
X139197202Y-71473363D01*
X139311509Y-71687216D01*
X139465340Y-71874660D01*
X139652784Y-72028491D01*
X139866637Y-72142798D01*
X140098682Y-72213188D01*
X140279528Y-72231000D01*
X140400472Y-72231000D01*
X140581318Y-72213188D01*
X140813363Y-72142798D01*
X141027216Y-72028491D01*
X141214660Y-71874660D01*
X141368491Y-71687216D01*
X141482798Y-71473363D01*
X141553188Y-71241318D01*
X141561331Y-71158639D01*
X144137591Y-71158639D01*
X144182511Y-71497439D01*
X144292664Y-71820966D01*
X144398662Y-72019274D01*
X144673288Y-72127107D01*
X145700395Y-71100000D01*
X144673288Y-70072893D01*
X144398662Y-70180726D01*
X144247784Y-70487384D01*
X144159631Y-70817585D01*
X144137591Y-71158639D01*
X141561331Y-71158639D01*
X141576956Y-71000000D01*
X141553188Y-70758682D01*
X141482798Y-70526637D01*
X141368491Y-70312784D01*
X141214660Y-70125340D01*
X141027216Y-69971509D01*
X140880876Y-69893288D01*
X144852893Y-69893288D01*
X145880000Y-70920395D01*
X146907107Y-69893288D01*
X146799274Y-69618662D01*
X146492616Y-69467784D01*
X146162415Y-69379631D01*
X145821361Y-69357591D01*
X145482561Y-69402511D01*
X145159034Y-69512664D01*
X144960726Y-69618662D01*
X144852893Y-69893288D01*
X140880876Y-69893288D01*
X140813363Y-69857202D01*
X140581318Y-69786812D01*
X140400472Y-69769000D01*
X140279528Y-69769000D01*
X140098682Y-69786812D01*
X139866637Y-69857202D01*
X139652784Y-69971509D01*
X139465340Y-70125340D01*
X139311509Y-70312784D01*
X139197202Y-70526637D01*
X139126812Y-70758682D01*
X139103044Y-71000000D01*
X139036956Y-71000000D01*
X139013188Y-70758682D01*
X138942798Y-70526637D01*
X138828491Y-70312784D01*
X138674660Y-70125340D01*
X138487216Y-69971509D01*
X138273363Y-69857202D01*
X138041318Y-69786812D01*
X137860472Y-69769000D01*
X137739528Y-69769000D01*
X137558682Y-69786812D01*
X137326637Y-69857202D01*
X137112784Y-69971509D01*
X136925340Y-70125340D01*
X136771509Y-70312784D01*
X136657202Y-70526637D01*
X136586812Y-70758682D01*
X136563044Y-71000000D01*
X136492843Y-71000000D01*
X136492843Y-70150000D01*
X136485487Y-70075311D01*
X136463701Y-70003492D01*
X136428322Y-69937304D01*
X136380711Y-69879289D01*
X136322696Y-69831678D01*
X136256508Y-69796299D01*
X136184689Y-69774513D01*
X136110000Y-69767157D01*
X134410000Y-69767157D01*
X134335311Y-69774513D01*
X134263492Y-69796299D01*
X134197304Y-69831678D01*
X134139289Y-69879289D01*
X134091678Y-69937304D01*
X134056299Y-70003492D01*
X134034513Y-70075311D01*
X134027157Y-70150000D01*
X112456226Y-70150000D01*
X112456226Y-67170466D01*
X112468372Y-67046588D01*
X112497520Y-66950045D01*
X112544862Y-66861009D01*
X112608595Y-66782864D01*
X112686294Y-66718585D01*
X112774999Y-66670623D01*
X112871330Y-66640804D01*
X112993683Y-66627944D01*
X149544426Y-66627944D01*
X147907649Y-68264721D01*
X147907649Y-68264721D01*
G37*
X147907649Y-68264721D02*
X147878579Y-68288578D01*
X147854722Y-68317648D01*
X147854721Y-68317649D01*
X147783355Y-68404608D01*
X147712599Y-68536985D01*
X147669027Y-68680622D01*
X147654314Y-68830000D01*
X147658001Y-68867433D01*
X147658001Y-69827968D01*
X147475917Y-69949632D01*
X147277674Y-70147875D01*
X147086712Y-70072893D01*
X146059605Y-71100000D01*
X147086712Y-72127107D01*
X147277674Y-72052125D01*
X147475917Y-72250368D01*
X147659449Y-72373000D01*
X146881079Y-72373000D01*
X146907107Y-72306712D01*
X145880000Y-71279605D01*
X144852893Y-72306712D01*
X144878921Y-72373000D01*
X130500000Y-72373000D01*
X130475224Y-72375440D01*
X130451399Y-72382667D01*
X130429443Y-72394403D01*
X130410197Y-72410197D01*
X130394403Y-72429443D01*
X130382667Y-72451399D01*
X130375440Y-72475224D01*
X130373000Y-72500000D01*
X130373000Y-103000000D01*
X130375440Y-103024776D01*
X130382667Y-103048601D01*
X130394403Y-103070557D01*
X130410197Y-103089803D01*
X130429443Y-103105597D01*
X130451399Y-103117333D01*
X130475224Y-103124560D01*
X130500000Y-103127000D01*
X158316601Y-103127000D01*
X158316600Y-107373805D01*
X158316600Y-107373806D01*
X158316601Y-111472527D01*
X158246506Y-111577432D01*
X158195171Y-111701366D01*
X158169000Y-111832933D01*
X158169000Y-111967079D01*
X158195171Y-112098646D01*
X158246506Y-112222580D01*
X158321033Y-112334118D01*
X158415888Y-112428973D01*
X158527426Y-112503500D01*
X158651360Y-112554835D01*
X158782927Y-112581006D01*
X158917073Y-112581006D01*
X159048640Y-112554835D01*
X159172574Y-112503500D01*
X159284112Y-112428973D01*
X159378967Y-112334118D01*
X159453494Y-112222580D01*
X159504829Y-112098646D01*
X159531000Y-111967079D01*
X159531000Y-111832933D01*
X159504829Y-111701366D01*
X159453494Y-111577432D01*
X159383400Y-111472528D01*
X159383400Y-110694244D01*
X166907683Y-110694244D01*
X166907683Y-110828390D01*
X166933854Y-110959957D01*
X166985189Y-111083891D01*
X167059716Y-111195429D01*
X167154571Y-111290284D01*
X167266109Y-111364811D01*
X167390043Y-111416146D01*
X167521610Y-111442317D01*
X167655756Y-111442317D01*
X167787323Y-111416146D01*
X167911257Y-111364811D01*
X168022795Y-111290284D01*
X168079679Y-111233400D01*
X169123813Y-111233400D01*
X169150000Y-111235979D01*
X169176187Y-111233400D01*
X169176195Y-111233400D01*
X169254565Y-111225681D01*
X169355111Y-111195181D01*
X169447775Y-111145651D01*
X169528995Y-111078995D01*
X169545695Y-111058646D01*
X170408651Y-110195691D01*
X170428995Y-110178995D01*
X170495651Y-110097775D01*
X170545181Y-110005111D01*
X170575681Y-109904564D01*
X170583252Y-109827699D01*
X170653494Y-109722574D01*
X170704829Y-109598640D01*
X170731000Y-109467073D01*
X170731000Y-109332927D01*
X170704829Y-109201360D01*
X170653494Y-109077426D01*
X170578967Y-108965888D01*
X170484112Y-108871033D01*
X170372574Y-108796506D01*
X170248640Y-108745171D01*
X170117073Y-108719000D01*
X169982927Y-108719000D01*
X169851360Y-108745171D01*
X169727426Y-108796506D01*
X169615888Y-108871033D01*
X169521033Y-108965888D01*
X169446506Y-109077426D01*
X169395171Y-109201360D01*
X169369000Y-109332927D01*
X169369000Y-109467073D01*
X169395171Y-109598640D01*
X169425001Y-109670657D01*
X168929059Y-110166600D01*
X167924393Y-110166600D01*
X167911257Y-110157823D01*
X167787323Y-110106488D01*
X167655756Y-110080317D01*
X167521610Y-110080317D01*
X167390043Y-110106488D01*
X167266109Y-110157823D01*
X167154571Y-110232350D01*
X167059716Y-110327205D01*
X166985189Y-110438743D01*
X166933854Y-110562677D01*
X166907683Y-110694244D01*
X159383400Y-110694244D01*
X159383400Y-107039360D01*
X162819000Y-107039360D01*
X162819000Y-107360640D01*
X162881678Y-107675745D01*
X163004626Y-107972568D01*
X163183119Y-108239702D01*
X163410298Y-108466881D01*
X163677432Y-108645374D01*
X163974255Y-108768322D01*
X164289360Y-108831000D01*
X164610640Y-108831000D01*
X164925745Y-108768322D01*
X165222568Y-108645374D01*
X165489702Y-108466881D01*
X165716881Y-108239702D01*
X165895374Y-107972568D01*
X166018322Y-107675745D01*
X166081000Y-107360640D01*
X166081000Y-107039360D01*
X166018322Y-106724255D01*
X165895374Y-106427432D01*
X165716881Y-106160298D01*
X165489702Y-105933119D01*
X165222568Y-105754626D01*
X164925745Y-105631678D01*
X164610640Y-105569000D01*
X164289360Y-105569000D01*
X163974255Y-105631678D01*
X163677432Y-105754626D01*
X163410298Y-105933119D01*
X163183119Y-106160298D01*
X163004626Y-106427432D01*
X162881678Y-106724255D01*
X162819000Y-107039360D01*
X159383400Y-107039360D01*
X159383400Y-103127000D01*
X177500000Y-103127000D01*
X177524776Y-103124560D01*
X177548601Y-103117333D01*
X177570557Y-103105597D01*
X177589803Y-103089803D01*
X177605597Y-103070557D01*
X177617333Y-103048601D01*
X177624560Y-103024776D01*
X177627000Y-103000000D01*
X177627000Y-97000000D01*
X177624560Y-96975224D01*
X177617333Y-96951399D01*
X177605597Y-96929443D01*
X177589803Y-96910197D01*
X177570557Y-96894403D01*
X177548601Y-96882667D01*
X177524776Y-96875440D01*
X177500000Y-96873000D01*
X177448386Y-96873000D01*
X177532216Y-96702616D01*
X177620369Y-96372415D01*
X177642409Y-96031361D01*
X177597489Y-95692561D01*
X177487336Y-95369034D01*
X177381338Y-95170726D01*
X177106712Y-95062893D01*
X176079605Y-96090000D01*
X176093748Y-96104143D01*
X175914143Y-96283748D01*
X175900000Y-96269605D01*
X175885858Y-96283748D01*
X175706253Y-96104143D01*
X175720395Y-96090000D01*
X174693288Y-95062893D01*
X174418662Y-95170726D01*
X174267784Y-95477384D01*
X174179631Y-95807585D01*
X174157591Y-96148639D01*
X174202511Y-96487439D01*
X174312664Y-96810966D01*
X174345822Y-96873000D01*
X174039084Y-96873000D01*
X173934867Y-96817295D01*
X173627000Y-96723904D01*
X173627000Y-87274630D01*
X174287649Y-87935280D01*
X174287655Y-87935285D01*
X174461723Y-88109353D01*
X174419000Y-88324134D01*
X174419000Y-88615866D01*
X174475914Y-88901992D01*
X174587555Y-89171517D01*
X174749632Y-89414083D01*
X174955917Y-89620368D01*
X175134959Y-89740000D01*
X174955917Y-89859632D01*
X174749632Y-90065917D01*
X174587555Y-90308483D01*
X174475914Y-90578008D01*
X174419000Y-90864134D01*
X174419000Y-91155866D01*
X174475914Y-91441992D01*
X174587555Y-91711517D01*
X174749632Y-91954083D01*
X174955917Y-92160368D01*
X175011001Y-92197174D01*
X175011000Y-92362826D01*
X174955917Y-92399632D01*
X174749632Y-92605917D01*
X174587555Y-92848483D01*
X174475914Y-93118008D01*
X174419000Y-93404134D01*
X174419000Y-93695866D01*
X174475914Y-93981992D01*
X174587555Y-94251517D01*
X174749632Y-94494083D01*
X174947875Y-94692326D01*
X174872893Y-94883288D01*
X175900000Y-95910395D01*
X176927107Y-94883288D01*
X176852125Y-94692326D01*
X177050368Y-94494083D01*
X177087173Y-94439000D01*
X178231765Y-94439000D01*
X180861000Y-97068236D01*
X180861001Y-98506333D01*
X180861000Y-99906333D01*
X180861000Y-109424046D01*
X180846508Y-109416299D01*
X180774689Y-109394513D01*
X180700000Y-109387157D01*
X180612000Y-109387157D01*
X180612000Y-106887422D01*
X180615686Y-106849999D01*
X180612000Y-106812574D01*
X180600974Y-106700622D01*
X180557402Y-106556985D01*
X180486645Y-106424608D01*
X180391422Y-106308578D01*
X180362353Y-106284722D01*
X178746285Y-104668655D01*
X178722423Y-104639579D01*
X178606393Y-104544356D01*
X178478399Y-104475942D01*
X179308651Y-103645691D01*
X179328995Y-103628995D01*
X179395651Y-103547775D01*
X179445181Y-103455111D01*
X179475681Y-103354565D01*
X179483400Y-103276195D01*
X179483400Y-103276188D01*
X179485979Y-103250001D01*
X179483400Y-103223814D01*
X179483400Y-102077478D01*
X179553494Y-101972574D01*
X179604829Y-101848640D01*
X179631000Y-101717073D01*
X179631000Y-101582927D01*
X179604829Y-101451360D01*
X179553494Y-101327426D01*
X179478967Y-101215888D01*
X179384112Y-101121033D01*
X179272574Y-101046506D01*
X179148640Y-100995171D01*
X179017073Y-100969000D01*
X178882927Y-100969000D01*
X178751360Y-100995171D01*
X178627426Y-101046506D01*
X178515888Y-101121033D01*
X178421033Y-101215888D01*
X178346506Y-101327426D01*
X178295171Y-101451360D01*
X178269000Y-101582927D01*
X178269000Y-101717073D01*
X178295171Y-101848640D01*
X178346506Y-101972574D01*
X178416601Y-102077479D01*
X178416600Y-103029058D01*
X177679059Y-103766600D01*
X168777478Y-103766600D01*
X168672574Y-103696506D01*
X168548640Y-103645171D01*
X168417073Y-103619000D01*
X168282927Y-103619000D01*
X168151360Y-103645171D01*
X168027426Y-103696506D01*
X167915888Y-103771033D01*
X167821033Y-103865888D01*
X167746506Y-103977426D01*
X167695171Y-104101360D01*
X167669000Y-104232927D01*
X167669000Y-104367073D01*
X167695171Y-104498640D01*
X167746506Y-104622574D01*
X167821033Y-104734112D01*
X167915888Y-104828967D01*
X168027426Y-104903494D01*
X168151360Y-104954829D01*
X168282927Y-104981000D01*
X168417073Y-104981000D01*
X168548640Y-104954829D01*
X168597454Y-104934610D01*
X168568025Y-105031623D01*
X168553313Y-105181001D01*
X168568025Y-105330379D01*
X168611597Y-105474016D01*
X168682354Y-105606393D01*
X168777577Y-105722423D01*
X168893607Y-105817646D01*
X169025984Y-105888403D01*
X169169621Y-105931975D01*
X169281573Y-105943001D01*
X177865371Y-105943001D01*
X179088000Y-107165631D01*
X179088001Y-109387157D01*
X179000000Y-109387157D01*
X178925311Y-109394513D01*
X178853492Y-109416299D01*
X178787304Y-109451678D01*
X178729289Y-109499289D01*
X178681678Y-109557304D01*
X178646299Y-109623492D01*
X178624513Y-109695311D01*
X178617157Y-109770000D01*
X178617157Y-111470000D01*
X178624513Y-111544689D01*
X178646299Y-111616508D01*
X178681678Y-111682696D01*
X178729289Y-111740711D01*
X178787304Y-111788322D01*
X178853492Y-111823701D01*
X178925311Y-111845487D01*
X179000000Y-111852843D01*
X180700000Y-111852843D01*
X180774689Y-111845487D01*
X180846508Y-111823701D01*
X180861001Y-111815954D01*
X180861001Y-112451472D01*
X180724660Y-112285340D01*
X180537216Y-112131509D01*
X180323363Y-112017202D01*
X180091318Y-111946812D01*
X179910472Y-111929000D01*
X179789528Y-111929000D01*
X179608682Y-111946812D01*
X179376637Y-112017202D01*
X179162784Y-112131509D01*
X178975340Y-112285340D01*
X178821509Y-112472784D01*
X178707202Y-112686637D01*
X178636812Y-112918682D01*
X178613044Y-113160000D01*
X178636812Y-113401318D01*
X178707202Y-113633363D01*
X178821509Y-113847216D01*
X178975340Y-114034660D01*
X179162784Y-114188491D01*
X179376637Y-114302798D01*
X179608682Y-114373188D01*
X179789528Y-114391000D01*
X179910472Y-114391000D01*
X180091318Y-114373188D01*
X180323363Y-114302798D01*
X180537216Y-114188491D01*
X180724660Y-114034660D01*
X180861001Y-113868528D01*
X180861001Y-114991472D01*
X180724660Y-114825340D01*
X180537216Y-114671509D01*
X180323363Y-114557202D01*
X180091318Y-114486812D01*
X179910472Y-114469000D01*
X179789528Y-114469000D01*
X179608682Y-114486812D01*
X179376637Y-114557202D01*
X179162784Y-114671509D01*
X178975340Y-114825340D01*
X178821509Y-115012784D01*
X178707202Y-115226637D01*
X178636812Y-115458682D01*
X178613044Y-115700000D01*
X178636812Y-115941318D01*
X178707202Y-116173363D01*
X178821509Y-116387216D01*
X178975340Y-116574660D01*
X179162784Y-116728491D01*
X179373305Y-116841017D01*
X179218748Y-116895843D01*
X178968645Y-117044822D01*
X178752412Y-117239731D01*
X178578359Y-117473080D01*
X178453175Y-117735901D01*
X178408524Y-117883110D01*
X178529845Y-118113000D01*
X179723000Y-118113000D01*
X179723000Y-118093000D01*
X179977000Y-118093000D01*
X179977000Y-118113000D01*
X179997000Y-118113000D01*
X179997000Y-118367000D01*
X179977000Y-118367000D01*
X179977000Y-118387000D01*
X179723000Y-118387000D01*
X179723000Y-118367000D01*
X178529845Y-118367000D01*
X178408524Y-118596890D01*
X178453175Y-118744099D01*
X178578359Y-119006920D01*
X178752412Y-119240269D01*
X178968645Y-119435178D01*
X179218748Y-119584157D01*
X179373305Y-119638983D01*
X179162784Y-119751509D01*
X178975340Y-119905340D01*
X178821509Y-120092784D01*
X178707202Y-120306637D01*
X178636812Y-120538682D01*
X178613044Y-120780000D01*
X178636812Y-121021318D01*
X178707202Y-121253363D01*
X178821509Y-121467216D01*
X178975340Y-121654660D01*
X179162784Y-121808491D01*
X179376637Y-121922798D01*
X179608682Y-121993188D01*
X179678538Y-122000068D01*
X179267607Y-122411000D01*
X155970671Y-122411000D01*
X155981000Y-122359073D01*
X155981000Y-122224927D01*
X155954829Y-122093360D01*
X155907371Y-121978786D01*
X156078157Y-121808000D01*
X158119931Y-121808000D01*
X158165888Y-121853957D01*
X158277426Y-121928484D01*
X158401360Y-121979819D01*
X158532927Y-122005990D01*
X158667073Y-122005990D01*
X158798640Y-121979819D01*
X158922574Y-121928484D01*
X159034112Y-121853957D01*
X159128967Y-121759102D01*
X159203494Y-121647564D01*
X159254829Y-121523630D01*
X159281000Y-121392063D01*
X159281000Y-121257917D01*
X159254829Y-121126350D01*
X159203494Y-121002416D01*
X159128967Y-120890878D01*
X159034112Y-120796023D01*
X158922574Y-120721496D01*
X158822394Y-120680000D01*
X170113044Y-120680000D01*
X170136812Y-120921318D01*
X170207202Y-121153363D01*
X170321509Y-121367216D01*
X170475340Y-121554660D01*
X170662784Y-121708491D01*
X170876637Y-121822798D01*
X171108682Y-121893188D01*
X171289528Y-121911000D01*
X171410472Y-121911000D01*
X171591318Y-121893188D01*
X171823363Y-121822798D01*
X172037216Y-121708491D01*
X172224660Y-121554660D01*
X172378491Y-121367216D01*
X172487091Y-121164040D01*
X172493175Y-121184099D01*
X172618359Y-121446920D01*
X172792412Y-121680269D01*
X173008645Y-121875178D01*
X173258748Y-122024157D01*
X173533109Y-122121481D01*
X173763000Y-122000814D01*
X173763000Y-120807000D01*
X174017000Y-120807000D01*
X174017000Y-122000814D01*
X174246891Y-122121481D01*
X174521252Y-122024157D01*
X174771355Y-121875178D01*
X174987588Y-121680269D01*
X175161641Y-121446920D01*
X175286825Y-121184099D01*
X175331476Y-121036890D01*
X175210155Y-120807000D01*
X174017000Y-120807000D01*
X173763000Y-120807000D01*
X173743000Y-120807000D01*
X173743000Y-120553000D01*
X173763000Y-120553000D01*
X173763000Y-120533000D01*
X174017000Y-120533000D01*
X174017000Y-120553000D01*
X175210155Y-120553000D01*
X175331476Y-120323110D01*
X175286825Y-120175901D01*
X175161641Y-119913080D01*
X174987588Y-119679731D01*
X174771355Y-119484822D01*
X174521252Y-119335843D01*
X174366695Y-119281017D01*
X174577216Y-119168491D01*
X174764660Y-119014660D01*
X174918491Y-118827216D01*
X175032798Y-118613363D01*
X175103188Y-118381318D01*
X175126956Y-118140000D01*
X175103188Y-117898682D01*
X175032798Y-117666637D01*
X174918491Y-117452784D01*
X174764660Y-117265340D01*
X174577216Y-117111509D01*
X174363363Y-116997202D01*
X174131318Y-116926812D01*
X173950472Y-116909000D01*
X173829528Y-116909000D01*
X173648682Y-116926812D01*
X173416637Y-116997202D01*
X173202784Y-117111509D01*
X173015340Y-117265340D01*
X172861509Y-117452784D01*
X172747202Y-117666637D01*
X172676812Y-117898682D01*
X172653044Y-118140000D01*
X172676812Y-118381318D01*
X172747202Y-118613363D01*
X172861509Y-118827216D01*
X173015340Y-119014660D01*
X173202784Y-119168491D01*
X173413305Y-119281017D01*
X173258748Y-119335843D01*
X173008645Y-119484822D01*
X172792412Y-119679731D01*
X172618359Y-119913080D01*
X172493175Y-120175901D01*
X172487091Y-120195960D01*
X172378491Y-119992784D01*
X172224660Y-119805340D01*
X172037216Y-119651509D01*
X171823363Y-119537202D01*
X171591318Y-119466812D01*
X171410472Y-119449000D01*
X171289528Y-119449000D01*
X171108682Y-119466812D01*
X170876637Y-119537202D01*
X170662784Y-119651509D01*
X170475340Y-119805340D01*
X170321509Y-119992784D01*
X170207202Y-120206637D01*
X170136812Y-120438682D01*
X170113044Y-120680000D01*
X158822394Y-120680000D01*
X158798640Y-120670161D01*
X158667073Y-120643990D01*
X158532927Y-120643990D01*
X158401360Y-120670161D01*
X158277426Y-120721496D01*
X158171909Y-120792000D01*
X155892680Y-120792000D01*
X155867736Y-120789543D01*
X155842792Y-120792000D01*
X155842789Y-120792000D01*
X155768151Y-120799351D01*
X155672393Y-120828399D01*
X155631312Y-120850357D01*
X155584140Y-120875571D01*
X155555163Y-120899352D01*
X155506788Y-120939052D01*
X155490885Y-120958430D01*
X154958430Y-121490886D01*
X154939053Y-121506788D01*
X154923151Y-121526165D01*
X154923150Y-121526166D01*
X154875571Y-121584141D01*
X154828400Y-121672393D01*
X154799352Y-121768151D01*
X154793690Y-121825638D01*
X154792641Y-121836280D01*
X154771033Y-121857888D01*
X154696506Y-121969426D01*
X154645171Y-122093360D01*
X154619000Y-122224927D01*
X154619000Y-122359073D01*
X154629329Y-122411000D01*
X132868236Y-122411000D01*
X131939000Y-121481765D01*
X131939000Y-119606333D01*
X131926136Y-119475726D01*
X131875303Y-119308149D01*
X131792753Y-119153709D01*
X131681659Y-119018341D01*
X131546291Y-118907247D01*
X131391851Y-118824697D01*
X131224274Y-118773864D01*
X131050000Y-118756699D01*
X130875727Y-118773864D01*
X130708150Y-118824697D01*
X130553710Y-118907247D01*
X130418342Y-119018341D01*
X130307248Y-119153709D01*
X130224698Y-119308149D01*
X130173865Y-119475726D01*
X130161001Y-119606333D01*
X130161000Y-121806340D01*
X130156700Y-121850000D01*
X130161000Y-121893660D01*
X130161000Y-121893666D01*
X130168462Y-121969426D01*
X130173864Y-122024274D01*
X130194185Y-122091263D01*
X130224697Y-122191850D01*
X130307247Y-122346290D01*
X130418341Y-122481659D01*
X130452264Y-122509499D01*
X131608708Y-123665944D01*
X118434077Y-123665944D01*
X118429064Y-123559636D01*
X118425819Y-123534653D01*
X118424063Y-123509538D01*
X118422144Y-123497943D01*
X118249712Y-122529917D01*
X118241139Y-122497472D01*
X118233364Y-122464834D01*
X118229577Y-122453708D01*
X117901358Y-121526845D01*
X117887594Y-121496219D01*
X117874599Y-121465305D01*
X117869045Y-121454947D01*
X117393851Y-120594136D01*
X117375281Y-120566186D01*
X117357401Y-120537793D01*
X117350230Y-120528481D01*
X116740826Y-119756840D01*
X116717917Y-119732273D01*
X116695662Y-119707207D01*
X116687067Y-119699191D01*
X115959816Y-119037444D01*
X115933229Y-119016969D01*
X115907153Y-118995853D01*
X115897364Y-118989349D01*
X115071798Y-118455266D01*
X115042219Y-118439406D01*
X115013049Y-118422835D01*
X115002330Y-118418017D01*
X114100618Y-118025942D01*
X114068858Y-118015130D01*
X114037362Y-118003542D01*
X114025999Y-118000540D01*
X113072361Y-117761003D01*
X113039257Y-117755523D01*
X113006295Y-117749235D01*
X112994594Y-117748128D01*
X112456226Y-117703866D01*
X112456226Y-116507205D01*
X146619000Y-116507205D01*
X146619000Y-116641351D01*
X146645171Y-116772918D01*
X146665001Y-116820792D01*
X146665000Y-119805888D01*
X146645171Y-119853760D01*
X146619000Y-119985327D01*
X146619000Y-120119473D01*
X146645171Y-120251040D01*
X146696506Y-120374974D01*
X146771033Y-120486512D01*
X146865888Y-120581367D01*
X146977426Y-120655894D01*
X147101360Y-120707229D01*
X147232927Y-120733400D01*
X147367073Y-120733400D01*
X147498640Y-120707229D01*
X147622574Y-120655894D01*
X147734112Y-120581367D01*
X147828967Y-120486512D01*
X147903494Y-120374974D01*
X147954829Y-120251040D01*
X147981000Y-120119473D01*
X147981000Y-119985327D01*
X147954829Y-119853760D01*
X147935000Y-119805888D01*
X147935000Y-117880527D01*
X147969000Y-117880527D01*
X147969000Y-118014673D01*
X147995171Y-118146240D01*
X148046506Y-118270174D01*
X148121033Y-118381712D01*
X148215888Y-118476567D01*
X148327426Y-118551094D01*
X148451360Y-118602429D01*
X148582927Y-118628600D01*
X148717073Y-118628600D01*
X148848640Y-118602429D01*
X148955901Y-118558000D01*
X151739580Y-118558000D01*
X152423145Y-119241565D01*
X152439052Y-119260948D01*
X152516405Y-119324429D01*
X152604657Y-119371601D01*
X152700415Y-119400649D01*
X152775053Y-119408000D01*
X152775056Y-119408000D01*
X152800000Y-119410457D01*
X152824944Y-119408000D01*
X154844921Y-119408000D01*
X154865888Y-119428967D01*
X154977426Y-119503494D01*
X155101360Y-119554829D01*
X155232927Y-119581000D01*
X155367073Y-119581000D01*
X155498640Y-119554829D01*
X155622574Y-119503494D01*
X155734112Y-119428967D01*
X155828967Y-119334112D01*
X155903494Y-119222574D01*
X155954829Y-119098640D01*
X155981000Y-118967073D01*
X155981000Y-118832927D01*
X155954829Y-118701360D01*
X155919482Y-118616023D01*
X155985860Y-118549645D01*
X156060387Y-118438107D01*
X156111722Y-118314173D01*
X156137893Y-118182606D01*
X156137893Y-118048460D01*
X156111722Y-117916893D01*
X156060387Y-117792959D01*
X155985860Y-117681421D01*
X155891005Y-117586566D01*
X155779467Y-117512039D01*
X155655533Y-117460704D01*
X155523966Y-117434533D01*
X155389820Y-117434533D01*
X155258253Y-117460704D01*
X155134319Y-117512039D01*
X155033194Y-117579609D01*
X155032629Y-117579553D01*
X155006435Y-117582133D01*
X155006434Y-117582133D01*
X154928064Y-117589852D01*
X154827518Y-117620352D01*
X154734854Y-117669882D01*
X154653634Y-117736538D01*
X154636929Y-117756893D01*
X154481231Y-117912590D01*
X153208997Y-117912590D01*
X152546408Y-117250000D01*
X156784314Y-117250000D01*
X156788000Y-117287423D01*
X156788000Y-117287425D01*
X156799026Y-117399377D01*
X156842598Y-117543014D01*
X156870914Y-117595989D01*
X156913355Y-117675392D01*
X156934005Y-117700554D01*
X157008578Y-117791422D01*
X157037654Y-117815284D01*
X157934721Y-118712351D01*
X157958578Y-118741422D01*
X157987648Y-118765279D01*
X158074607Y-118836645D01*
X158138704Y-118870905D01*
X158206985Y-118907402D01*
X158350622Y-118950974D01*
X158462574Y-118962000D01*
X158462577Y-118962000D01*
X158500000Y-118965686D01*
X158537423Y-118962000D01*
X167062577Y-118962000D01*
X167100000Y-118965686D01*
X167137423Y-118962000D01*
X167137426Y-118962000D01*
X167249378Y-118950974D01*
X167393015Y-118907402D01*
X167525392Y-118836645D01*
X167641422Y-118741422D01*
X167665284Y-118712346D01*
X168237630Y-118140000D01*
X170113044Y-118140000D01*
X170136812Y-118381318D01*
X170207202Y-118613363D01*
X170321509Y-118827216D01*
X170475340Y-119014660D01*
X170662784Y-119168491D01*
X170876637Y-119282798D01*
X171108682Y-119353188D01*
X171289528Y-119371000D01*
X171410472Y-119371000D01*
X171591318Y-119353188D01*
X171823363Y-119282798D01*
X172037216Y-119168491D01*
X172224660Y-119014660D01*
X172378491Y-118827216D01*
X172492798Y-118613363D01*
X172563188Y-118381318D01*
X172586956Y-118140000D01*
X172563188Y-117898682D01*
X172492798Y-117666637D01*
X172378491Y-117452784D01*
X172224660Y-117265340D01*
X172037216Y-117111509D01*
X171823363Y-116997202D01*
X171591318Y-116926812D01*
X171410472Y-116909000D01*
X171289528Y-116909000D01*
X171108682Y-116926812D01*
X170876637Y-116997202D01*
X170662784Y-117111509D01*
X170475340Y-117265340D01*
X170321509Y-117452784D01*
X170207202Y-117666637D01*
X170136812Y-117898682D01*
X170113044Y-118140000D01*
X168237630Y-118140000D01*
X168862352Y-117515279D01*
X168891422Y-117491422D01*
X168926215Y-117449026D01*
X168986645Y-117375393D01*
X169033664Y-117287425D01*
X169057402Y-117243015D01*
X169100974Y-117099378D01*
X169112000Y-116987426D01*
X169112000Y-116987423D01*
X169115686Y-116950000D01*
X169112000Y-116912577D01*
X169112000Y-114750000D01*
X170117157Y-114750000D01*
X170117157Y-116450000D01*
X170124513Y-116524689D01*
X170146299Y-116596508D01*
X170181678Y-116662696D01*
X170229289Y-116720711D01*
X170287304Y-116768322D01*
X170353492Y-116803701D01*
X170425311Y-116825487D01*
X170500000Y-116832843D01*
X172200000Y-116832843D01*
X172274689Y-116825487D01*
X172346508Y-116803701D01*
X172412696Y-116768322D01*
X172470711Y-116720711D01*
X172518322Y-116662696D01*
X172553701Y-116596508D01*
X172575487Y-116524689D01*
X172582843Y-116450000D01*
X172582843Y-114750000D01*
X172575487Y-114675311D01*
X172553701Y-114603492D01*
X172518322Y-114537304D01*
X172470711Y-114479289D01*
X172412696Y-114431678D01*
X172346508Y-114396299D01*
X172274689Y-114374513D01*
X172200000Y-114367157D01*
X170500000Y-114367157D01*
X170425311Y-114374513D01*
X170353492Y-114396299D01*
X170287304Y-114431678D01*
X170229289Y-114479289D01*
X170181678Y-114537304D01*
X170146299Y-114603492D01*
X170124513Y-114675311D01*
X170117157Y-114750000D01*
X169112000Y-114750000D01*
X169112000Y-114415630D01*
X169415631Y-114112000D01*
X172526451Y-114112000D01*
X173083694Y-114669244D01*
X173015340Y-114725340D01*
X172861509Y-114912784D01*
X172747202Y-115126637D01*
X172676812Y-115358682D01*
X172653044Y-115600000D01*
X172676812Y-115841318D01*
X172747202Y-116073363D01*
X172861509Y-116287216D01*
X173015340Y-116474660D01*
X173202784Y-116628491D01*
X173416637Y-116742798D01*
X173648682Y-116813188D01*
X173829528Y-116831000D01*
X173950472Y-116831000D01*
X174131318Y-116813188D01*
X174363363Y-116742798D01*
X174577216Y-116628491D01*
X174764660Y-116474660D01*
X174918491Y-116287216D01*
X175032798Y-116073363D01*
X175103188Y-115841318D01*
X175126956Y-115600000D01*
X175103188Y-115358682D01*
X175032798Y-115126637D01*
X174918491Y-114912784D01*
X174764660Y-114725340D01*
X174652000Y-114632883D01*
X174652000Y-114435341D01*
X174655686Y-114397918D01*
X174652000Y-114360493D01*
X174640974Y-114248541D01*
X174597402Y-114104904D01*
X174526645Y-113972527D01*
X174431422Y-113856497D01*
X174402351Y-113832640D01*
X173407365Y-112837654D01*
X173383503Y-112808578D01*
X173267473Y-112713355D01*
X173135096Y-112642598D01*
X172991459Y-112599026D01*
X172879507Y-112588000D01*
X172879504Y-112588000D01*
X172842081Y-112584314D01*
X172804658Y-112588000D01*
X169137422Y-112588000D01*
X169099999Y-112584314D01*
X169062576Y-112588000D01*
X169062574Y-112588000D01*
X168950622Y-112599026D01*
X168806985Y-112642598D01*
X168674608Y-112713355D01*
X168558578Y-112808578D01*
X168534720Y-112837649D01*
X167837653Y-113534716D01*
X167808578Y-113558578D01*
X167752983Y-113626322D01*
X167713355Y-113674608D01*
X167686143Y-113725519D01*
X167642598Y-113806986D01*
X167599026Y-113950623D01*
X167588398Y-114058533D01*
X167584314Y-114100000D01*
X167588000Y-114137423D01*
X167588001Y-116634368D01*
X166784370Y-117438000D01*
X158815631Y-117438000D01*
X158308919Y-116931288D01*
X158300974Y-116850623D01*
X158257402Y-116706985D01*
X158186645Y-116574608D01*
X158091422Y-116458578D01*
X157975392Y-116363355D01*
X157843015Y-116292598D01*
X157699378Y-116249026D01*
X157550000Y-116234314D01*
X157400623Y-116249026D01*
X157256986Y-116292598D01*
X157124609Y-116363355D01*
X157008578Y-116458578D01*
X156913355Y-116574608D01*
X156842598Y-116706985D01*
X156799026Y-116850622D01*
X156788000Y-116962574D01*
X156788000Y-117212577D01*
X156784314Y-117250000D01*
X152546408Y-117250000D01*
X152533753Y-117237345D01*
X152517052Y-117216995D01*
X152435832Y-117150339D01*
X152343168Y-117100809D01*
X152242622Y-117070309D01*
X152164252Y-117062590D01*
X152164244Y-117062590D01*
X152138057Y-117060011D01*
X152111871Y-117062590D01*
X149604865Y-117062590D01*
X149592939Y-117002638D01*
X149541604Y-116878704D01*
X149467077Y-116767166D01*
X149372222Y-116672311D01*
X149260684Y-116597784D01*
X149136750Y-116546449D01*
X149005183Y-116520278D01*
X148871037Y-116520278D01*
X148739470Y-116546449D01*
X148615536Y-116597784D01*
X148503998Y-116672311D01*
X148409143Y-116767166D01*
X148334616Y-116878704D01*
X148283281Y-117002638D01*
X148257110Y-117134205D01*
X148257110Y-117268351D01*
X148278661Y-117376690D01*
X148215888Y-117418633D01*
X148121033Y-117513488D01*
X148046506Y-117625026D01*
X147995171Y-117748960D01*
X147969000Y-117880527D01*
X147935000Y-117880527D01*
X147935000Y-116820790D01*
X147954829Y-116772918D01*
X147981000Y-116641351D01*
X147981000Y-116507205D01*
X147954829Y-116375638D01*
X147903494Y-116251704D01*
X147828967Y-116140166D01*
X147734112Y-116045311D01*
X147622574Y-115970784D01*
X147498640Y-115919449D01*
X147367073Y-115893278D01*
X147232927Y-115893278D01*
X147101360Y-115919449D01*
X146977426Y-115970784D01*
X146865888Y-116045311D01*
X146771033Y-116140166D01*
X146696506Y-116251704D01*
X146645171Y-116375638D01*
X146619000Y-116507205D01*
X112456226Y-116507205D01*
X112456226Y-113782927D01*
X143819000Y-113782927D01*
X143819000Y-113917073D01*
X143845171Y-114048640D01*
X143896506Y-114172574D01*
X143971033Y-114284112D01*
X144065888Y-114378967D01*
X144177426Y-114453494D01*
X144301360Y-114504829D01*
X144432927Y-114531000D01*
X144567073Y-114531000D01*
X144698640Y-114504829D01*
X144746512Y-114485000D01*
X145386975Y-114485000D01*
X145916434Y-115014460D01*
X145936315Y-115038685D01*
X145960539Y-115058565D01*
X145960543Y-115058569D01*
X146033006Y-115118038D01*
X146118256Y-115163605D01*
X146143320Y-115177002D01*
X146263018Y-115213312D01*
X146356308Y-115222500D01*
X146356311Y-115222500D01*
X146387500Y-115225572D01*
X146418689Y-115222500D01*
X147440988Y-115222500D01*
X147488860Y-115242329D01*
X147620427Y-115268500D01*
X147754573Y-115268500D01*
X147886140Y-115242329D01*
X148010074Y-115190994D01*
X148121612Y-115116467D01*
X148216467Y-115021612D01*
X148290994Y-114910074D01*
X148342329Y-114786140D01*
X148368500Y-114654573D01*
X148368500Y-114520427D01*
X148342329Y-114388860D01*
X148290994Y-114264926D01*
X148216467Y-114153388D01*
X148121612Y-114058533D01*
X148010074Y-113984006D01*
X147886140Y-113932671D01*
X147754573Y-113906500D01*
X147620427Y-113906500D01*
X147488860Y-113932671D01*
X147440988Y-113952500D01*
X146650525Y-113952500D01*
X146121074Y-113423050D01*
X146101185Y-113398815D01*
X146004494Y-113319463D01*
X145894180Y-113260498D01*
X145774482Y-113224188D01*
X145681192Y-113215000D01*
X145681181Y-113215000D01*
X145650000Y-113211929D01*
X145618819Y-113215000D01*
X144746512Y-113215000D01*
X144698640Y-113195171D01*
X144567073Y-113169000D01*
X144432927Y-113169000D01*
X144301360Y-113195171D01*
X144177426Y-113246506D01*
X144065888Y-113321033D01*
X143971033Y-113415888D01*
X143896506Y-113527426D01*
X143845171Y-113651360D01*
X143819000Y-113782927D01*
X112456226Y-113782927D01*
X112456226Y-108699210D01*
X126319000Y-108699210D01*
X126319000Y-109000790D01*
X126377835Y-109296576D01*
X126493245Y-109575201D01*
X126660795Y-109825956D01*
X126874044Y-110039205D01*
X127124799Y-110206755D01*
X127403424Y-110322165D01*
X127699210Y-110381000D01*
X128000790Y-110381000D01*
X128296576Y-110322165D01*
X128575201Y-110206755D01*
X128746420Y-110092349D01*
X142187256Y-110092349D01*
X142301118Y-110372090D01*
X142616296Y-110527961D01*
X142955826Y-110619349D01*
X143306661Y-110642741D01*
X143655319Y-110597240D01*
X143988400Y-110484594D01*
X144198882Y-110372090D01*
X144312744Y-110092349D01*
X143250000Y-109029605D01*
X142187256Y-110092349D01*
X128746420Y-110092349D01*
X128825956Y-110039205D01*
X129039205Y-109825956D01*
X129206755Y-109575201D01*
X129322165Y-109296576D01*
X129381000Y-109000790D01*
X129381000Y-108906661D01*
X141457259Y-108906661D01*
X141502760Y-109255319D01*
X141615406Y-109588400D01*
X141727910Y-109798882D01*
X142007651Y-109912744D01*
X143070395Y-108850000D01*
X143429605Y-108850000D01*
X144492349Y-109912744D01*
X144772090Y-109798882D01*
X144927961Y-109483704D01*
X145019349Y-109144174D01*
X145042741Y-108793339D01*
X144997240Y-108444681D01*
X144884594Y-108111600D01*
X144772090Y-107901118D01*
X144492349Y-107787256D01*
X143429605Y-108850000D01*
X143070395Y-108850000D01*
X142007651Y-107787256D01*
X141727910Y-107901118D01*
X141572039Y-108216296D01*
X141480651Y-108555826D01*
X141457259Y-108906661D01*
X129381000Y-108906661D01*
X129381000Y-108699210D01*
X129322165Y-108403424D01*
X129206755Y-108124799D01*
X129039205Y-107874044D01*
X128825956Y-107660795D01*
X128746421Y-107607651D01*
X142187256Y-107607651D01*
X143250000Y-108670395D01*
X144312744Y-107607651D01*
X144198882Y-107327910D01*
X143883704Y-107172039D01*
X143544174Y-107080651D01*
X143193339Y-107057259D01*
X142844681Y-107102760D01*
X142511600Y-107215406D01*
X142301118Y-107327910D01*
X142187256Y-107607651D01*
X128746421Y-107607651D01*
X128575201Y-107493245D01*
X128296576Y-107377835D01*
X128000790Y-107319000D01*
X127699210Y-107319000D01*
X127403424Y-107377835D01*
X127124799Y-107493245D01*
X126874044Y-107660795D01*
X126660795Y-107874044D01*
X126493245Y-108124799D01*
X126377835Y-108403424D01*
X126319000Y-108699210D01*
X112456226Y-108699210D01*
X112456226Y-107039360D01*
X150619000Y-107039360D01*
X150619000Y-107360640D01*
X150681678Y-107675745D01*
X150804626Y-107972568D01*
X150983119Y-108239702D01*
X151210298Y-108466881D01*
X151477432Y-108645374D01*
X151774255Y-108768322D01*
X152089360Y-108831000D01*
X152410640Y-108831000D01*
X152725745Y-108768322D01*
X153022568Y-108645374D01*
X153289702Y-108466881D01*
X153516881Y-108239702D01*
X153695374Y-107972568D01*
X153818322Y-107675745D01*
X153881000Y-107360640D01*
X153881000Y-107039360D01*
X153818322Y-106724255D01*
X153695374Y-106427432D01*
X153516881Y-106160298D01*
X153289702Y-105933119D01*
X153022568Y-105754626D01*
X152725745Y-105631678D01*
X152410640Y-105569000D01*
X152089360Y-105569000D01*
X151774255Y-105631678D01*
X151477432Y-105754626D01*
X151210298Y-105933119D01*
X150983119Y-106160298D01*
X150804626Y-106427432D01*
X150681678Y-106724255D01*
X150619000Y-107039360D01*
X112456226Y-107039360D01*
X112456226Y-92877299D01*
X120237473Y-92877299D01*
X120237473Y-93416589D01*
X120342683Y-93945517D01*
X120549061Y-94443756D01*
X120848674Y-94892160D01*
X121230010Y-95273496D01*
X121678414Y-95573109D01*
X122176653Y-95779487D01*
X122705581Y-95884697D01*
X123244871Y-95884697D01*
X123773799Y-95779487D01*
X124272038Y-95573109D01*
X124720442Y-95273496D01*
X125101778Y-94892160D01*
X125401391Y-94443756D01*
X125607769Y-93945517D01*
X125712979Y-93416589D01*
X125712979Y-92877299D01*
X125607769Y-92348371D01*
X125401391Y-91850132D01*
X125101778Y-91401728D01*
X124720442Y-91020392D01*
X124272038Y-90720779D01*
X123773799Y-90514401D01*
X123244871Y-90409191D01*
X122705581Y-90409191D01*
X122176653Y-90514401D01*
X121678414Y-90720779D01*
X121230010Y-91020392D01*
X120848674Y-91401728D01*
X120549061Y-91850132D01*
X120342683Y-92348371D01*
X120237473Y-92877299D01*
X112456226Y-92877299D01*
X112456226Y-70150000D01*
X134027157Y-70150000D01*
X134027157Y-71850000D01*
X134034513Y-71924689D01*
X134056299Y-71996508D01*
X134091678Y-72062696D01*
X134139289Y-72120711D01*
X134197304Y-72168322D01*
X134263492Y-72203701D01*
X134335311Y-72225487D01*
X134410000Y-72232843D01*
X136110000Y-72232843D01*
X136184689Y-72225487D01*
X136256508Y-72203701D01*
X136322696Y-72168322D01*
X136380711Y-72120711D01*
X136428322Y-72062696D01*
X136463701Y-71996508D01*
X136485487Y-71924689D01*
X136492843Y-71850000D01*
X136492843Y-71000000D01*
X136563044Y-71000000D01*
X136586812Y-71241318D01*
X136657202Y-71473363D01*
X136771509Y-71687216D01*
X136925340Y-71874660D01*
X137112784Y-72028491D01*
X137326637Y-72142798D01*
X137558682Y-72213188D01*
X137739528Y-72231000D01*
X137860472Y-72231000D01*
X138041318Y-72213188D01*
X138273363Y-72142798D01*
X138487216Y-72028491D01*
X138674660Y-71874660D01*
X138828491Y-71687216D01*
X138942798Y-71473363D01*
X139013188Y-71241318D01*
X139036956Y-71000000D01*
X139103044Y-71000000D01*
X139126812Y-71241318D01*
X139197202Y-71473363D01*
X139311509Y-71687216D01*
X139465340Y-71874660D01*
X139652784Y-72028491D01*
X139866637Y-72142798D01*
X140098682Y-72213188D01*
X140279528Y-72231000D01*
X140400472Y-72231000D01*
X140581318Y-72213188D01*
X140813363Y-72142798D01*
X141027216Y-72028491D01*
X141214660Y-71874660D01*
X141368491Y-71687216D01*
X141482798Y-71473363D01*
X141553188Y-71241318D01*
X141561331Y-71158639D01*
X144137591Y-71158639D01*
X144182511Y-71497439D01*
X144292664Y-71820966D01*
X144398662Y-72019274D01*
X144673288Y-72127107D01*
X145700395Y-71100000D01*
X144673288Y-70072893D01*
X144398662Y-70180726D01*
X144247784Y-70487384D01*
X144159631Y-70817585D01*
X144137591Y-71158639D01*
X141561331Y-71158639D01*
X141576956Y-71000000D01*
X141553188Y-70758682D01*
X141482798Y-70526637D01*
X141368491Y-70312784D01*
X141214660Y-70125340D01*
X141027216Y-69971509D01*
X140880876Y-69893288D01*
X144852893Y-69893288D01*
X145880000Y-70920395D01*
X146907107Y-69893288D01*
X146799274Y-69618662D01*
X146492616Y-69467784D01*
X146162415Y-69379631D01*
X145821361Y-69357591D01*
X145482561Y-69402511D01*
X145159034Y-69512664D01*
X144960726Y-69618662D01*
X144852893Y-69893288D01*
X140880876Y-69893288D01*
X140813363Y-69857202D01*
X140581318Y-69786812D01*
X140400472Y-69769000D01*
X140279528Y-69769000D01*
X140098682Y-69786812D01*
X139866637Y-69857202D01*
X139652784Y-69971509D01*
X139465340Y-70125340D01*
X139311509Y-70312784D01*
X139197202Y-70526637D01*
X139126812Y-70758682D01*
X139103044Y-71000000D01*
X139036956Y-71000000D01*
X139013188Y-70758682D01*
X138942798Y-70526637D01*
X138828491Y-70312784D01*
X138674660Y-70125340D01*
X138487216Y-69971509D01*
X138273363Y-69857202D01*
X138041318Y-69786812D01*
X137860472Y-69769000D01*
X137739528Y-69769000D01*
X137558682Y-69786812D01*
X137326637Y-69857202D01*
X137112784Y-69971509D01*
X136925340Y-70125340D01*
X136771509Y-70312784D01*
X136657202Y-70526637D01*
X136586812Y-70758682D01*
X136563044Y-71000000D01*
X136492843Y-71000000D01*
X136492843Y-70150000D01*
X136485487Y-70075311D01*
X136463701Y-70003492D01*
X136428322Y-69937304D01*
X136380711Y-69879289D01*
X136322696Y-69831678D01*
X136256508Y-69796299D01*
X136184689Y-69774513D01*
X136110000Y-69767157D01*
X134410000Y-69767157D01*
X134335311Y-69774513D01*
X134263492Y-69796299D01*
X134197304Y-69831678D01*
X134139289Y-69879289D01*
X134091678Y-69937304D01*
X134056299Y-70003492D01*
X134034513Y-70075311D01*
X134027157Y-70150000D01*
X112456226Y-70150000D01*
X112456226Y-67170466D01*
X112468372Y-67046588D01*
X112497520Y-66950045D01*
X112544862Y-66861009D01*
X112608595Y-66782864D01*
X112686294Y-66718585D01*
X112774999Y-66670623D01*
X112871330Y-66640804D01*
X112993683Y-66627944D01*
X149544426Y-66627944D01*
X147907649Y-68264721D01*
G36*
X176093748Y-80835858D02*
G01*
X176079605Y-80850000D01*
X176093748Y-80864143D01*
X175914143Y-81043748D01*
X175900000Y-81029605D01*
X175885858Y-81043748D01*
X175706253Y-80864143D01*
X175720395Y-80850000D01*
X175706253Y-80835858D01*
X175885858Y-80656253D01*
X175900000Y-80670395D01*
X175914143Y-80656253D01*
X176093748Y-80835858D01*
X176093748Y-80835858D01*
G37*
X176093748Y-80835858D02*
X176079605Y-80850000D01*
X176093748Y-80864143D01*
X175914143Y-81043748D01*
X175900000Y-81029605D01*
X175885858Y-81043748D01*
X175706253Y-80864143D01*
X175720395Y-80850000D01*
X175706253Y-80835858D01*
X175885858Y-80656253D01*
X175900000Y-80670395D01*
X175914143Y-80656253D01*
X176093748Y-80835858D01*
M02*
