G04 #@! TF.GenerationSoftware,KiCad,Pcbnew,(5.1.4-0)*
G04 #@! TF.CreationDate,2021-09-23T09:14:21+03:00*
G04 #@! TF.ProjectId,relay_logic_board,72656c61-795f-46c6-9f67-69635f626f61,rev?*
G04 #@! TF.SameCoordinates,Original*
G04 #@! TF.FileFunction,Legend,Bot*
G04 #@! TF.FilePolarity,Positive*
%FSLAX46Y46*%
G04 Gerber Fmt 4.6, Leading zero omitted, Abs format (unit mm)*
G04 Created by KiCad (PCBNEW (5.1.4-0)) date 2021-09-23 09:14:21*
%MOMM*%
%LPD*%
G04 APERTURE LIST*
%ADD10C,0.010000*%
G04 APERTURE END LIST*
D10*
G36*
X114363842Y-114394569D02*
G01*
X114366285Y-114786150D01*
X114370201Y-115126842D01*
X114375463Y-115410410D01*
X114381943Y-115630620D01*
X114389515Y-115781239D01*
X114398052Y-115856031D01*
X114401870Y-115863333D01*
X114509855Y-115836634D01*
X114564430Y-115750745D01*
X114574666Y-115652460D01*
X114607514Y-115418071D01*
X114696292Y-115187476D01*
X114826348Y-114998056D01*
X114834498Y-114989483D01*
X114940678Y-114902872D01*
X115091844Y-114806865D01*
X115245447Y-114727026D01*
X115335235Y-114692998D01*
X115497635Y-114638998D01*
X115724392Y-114567397D01*
X116007252Y-114480565D01*
X116337960Y-114380875D01*
X116708262Y-114270696D01*
X117109904Y-114152400D01*
X117534631Y-114028358D01*
X117974189Y-113900941D01*
X118420322Y-113772520D01*
X118864778Y-113645465D01*
X119299300Y-113522147D01*
X119715636Y-113404939D01*
X120105529Y-113296209D01*
X120460727Y-113198331D01*
X120772974Y-113113673D01*
X121034016Y-113044609D01*
X121235598Y-112993507D01*
X121369467Y-112962740D01*
X121415139Y-112954884D01*
X121584979Y-112951005D01*
X121711127Y-112976096D01*
X121726037Y-112983081D01*
X121820135Y-113074209D01*
X121903534Y-113231815D01*
X121968503Y-113437761D01*
X122002927Y-113632708D01*
X122024314Y-113773536D01*
X122050421Y-113846033D01*
X122088256Y-113866502D01*
X122102769Y-113864968D01*
X122119499Y-113856179D01*
X122133483Y-113832035D01*
X122145025Y-113785359D01*
X122154423Y-113708973D01*
X122161980Y-113595701D01*
X122167996Y-113438367D01*
X122172772Y-113229793D01*
X122176608Y-112962803D01*
X122179806Y-112630219D01*
X122182667Y-112224866D01*
X122184510Y-111915177D01*
X122186985Y-111460136D01*
X122188598Y-111082545D01*
X122189093Y-110775191D01*
X122188213Y-110530859D01*
X122185704Y-110342335D01*
X122181310Y-110202406D01*
X122174774Y-110103858D01*
X122165841Y-110039475D01*
X122154256Y-110002045D01*
X122139762Y-109984354D01*
X122122105Y-109979187D01*
X122115880Y-109979000D01*
X122065857Y-109995409D01*
X122033743Y-110057084D01*
X122010484Y-110182691D01*
X122008073Y-110201250D01*
X121957324Y-110488037D01*
X121879311Y-110709118D01*
X121761609Y-110882141D01*
X121591796Y-111024756D01*
X121357448Y-111154610D01*
X121326833Y-111169042D01*
X121239626Y-111202449D01*
X121079172Y-111256470D01*
X120853675Y-111328599D01*
X120571338Y-111416334D01*
X120240363Y-111517169D01*
X119868954Y-111628599D01*
X119465313Y-111748122D01*
X119037644Y-111873232D01*
X118702166Y-111970346D01*
X118096178Y-112144874D01*
X117566029Y-112297307D01*
X117106240Y-112429125D01*
X116711334Y-112541810D01*
X116375830Y-112636842D01*
X116094251Y-112715702D01*
X115861117Y-112779871D01*
X115670951Y-112830830D01*
X115518272Y-112870059D01*
X115397603Y-112899040D01*
X115303465Y-112919252D01*
X115230379Y-112932178D01*
X115172866Y-112939298D01*
X115125448Y-112942092D01*
X115106036Y-112942333D01*
X114916848Y-112912198D01*
X114772706Y-112818994D01*
X114670311Y-112658523D01*
X114606363Y-112426589D01*
X114587810Y-112282868D01*
X114569440Y-112131008D01*
X114547072Y-112050203D01*
X114516053Y-112026844D01*
X114501386Y-112030062D01*
X114422505Y-112051380D01*
X114401870Y-112053333D01*
X114392969Y-112094626D01*
X114384979Y-112214347D01*
X114378027Y-112406263D01*
X114372241Y-112664139D01*
X114367748Y-112981741D01*
X114364675Y-113352835D01*
X114363148Y-113771187D01*
X114363000Y-113958333D01*
X114363842Y-114394569D01*
X114363842Y-114394569D01*
G37*
X114363842Y-114394569D02*
X114366285Y-114786150D01*
X114370201Y-115126842D01*
X114375463Y-115410410D01*
X114381943Y-115630620D01*
X114389515Y-115781239D01*
X114398052Y-115856031D01*
X114401870Y-115863333D01*
X114509855Y-115836634D01*
X114564430Y-115750745D01*
X114574666Y-115652460D01*
X114607514Y-115418071D01*
X114696292Y-115187476D01*
X114826348Y-114998056D01*
X114834498Y-114989483D01*
X114940678Y-114902872D01*
X115091844Y-114806865D01*
X115245447Y-114727026D01*
X115335235Y-114692998D01*
X115497635Y-114638998D01*
X115724392Y-114567397D01*
X116007252Y-114480565D01*
X116337960Y-114380875D01*
X116708262Y-114270696D01*
X117109904Y-114152400D01*
X117534631Y-114028358D01*
X117974189Y-113900941D01*
X118420322Y-113772520D01*
X118864778Y-113645465D01*
X119299300Y-113522147D01*
X119715636Y-113404939D01*
X120105529Y-113296209D01*
X120460727Y-113198331D01*
X120772974Y-113113673D01*
X121034016Y-113044609D01*
X121235598Y-112993507D01*
X121369467Y-112962740D01*
X121415139Y-112954884D01*
X121584979Y-112951005D01*
X121711127Y-112976096D01*
X121726037Y-112983081D01*
X121820135Y-113074209D01*
X121903534Y-113231815D01*
X121968503Y-113437761D01*
X122002927Y-113632708D01*
X122024314Y-113773536D01*
X122050421Y-113846033D01*
X122088256Y-113866502D01*
X122102769Y-113864968D01*
X122119499Y-113856179D01*
X122133483Y-113832035D01*
X122145025Y-113785359D01*
X122154423Y-113708973D01*
X122161980Y-113595701D01*
X122167996Y-113438367D01*
X122172772Y-113229793D01*
X122176608Y-112962803D01*
X122179806Y-112630219D01*
X122182667Y-112224866D01*
X122184510Y-111915177D01*
X122186985Y-111460136D01*
X122188598Y-111082545D01*
X122189093Y-110775191D01*
X122188213Y-110530859D01*
X122185704Y-110342335D01*
X122181310Y-110202406D01*
X122174774Y-110103858D01*
X122165841Y-110039475D01*
X122154256Y-110002045D01*
X122139762Y-109984354D01*
X122122105Y-109979187D01*
X122115880Y-109979000D01*
X122065857Y-109995409D01*
X122033743Y-110057084D01*
X122010484Y-110182691D01*
X122008073Y-110201250D01*
X121957324Y-110488037D01*
X121879311Y-110709118D01*
X121761609Y-110882141D01*
X121591796Y-111024756D01*
X121357448Y-111154610D01*
X121326833Y-111169042D01*
X121239626Y-111202449D01*
X121079172Y-111256470D01*
X120853675Y-111328599D01*
X120571338Y-111416334D01*
X120240363Y-111517169D01*
X119868954Y-111628599D01*
X119465313Y-111748122D01*
X119037644Y-111873232D01*
X118702166Y-111970346D01*
X118096178Y-112144874D01*
X117566029Y-112297307D01*
X117106240Y-112429125D01*
X116711334Y-112541810D01*
X116375830Y-112636842D01*
X116094251Y-112715702D01*
X115861117Y-112779871D01*
X115670951Y-112830830D01*
X115518272Y-112870059D01*
X115397603Y-112899040D01*
X115303465Y-112919252D01*
X115230379Y-112932178D01*
X115172866Y-112939298D01*
X115125448Y-112942092D01*
X115106036Y-112942333D01*
X114916848Y-112912198D01*
X114772706Y-112818994D01*
X114670311Y-112658523D01*
X114606363Y-112426589D01*
X114587810Y-112282868D01*
X114569440Y-112131008D01*
X114547072Y-112050203D01*
X114516053Y-112026844D01*
X114501386Y-112030062D01*
X114422505Y-112051380D01*
X114401870Y-112053333D01*
X114392969Y-112094626D01*
X114384979Y-112214347D01*
X114378027Y-112406263D01*
X114372241Y-112664139D01*
X114367748Y-112981741D01*
X114364675Y-113352835D01*
X114363148Y-113771187D01*
X114363000Y-113958333D01*
X114363842Y-114394569D01*
G36*
X114198381Y-110622728D02*
G01*
X114209033Y-110656333D01*
X114252788Y-110646713D01*
X114366521Y-110619844D01*
X114537999Y-110578712D01*
X114754986Y-110526301D01*
X115005248Y-110465597D01*
X115276551Y-110399586D01*
X115556659Y-110331254D01*
X115833339Y-110263585D01*
X116094355Y-110199565D01*
X116327474Y-110142181D01*
X116520461Y-110094416D01*
X116661080Y-110059258D01*
X116737099Y-110039691D01*
X116744250Y-110037683D01*
X116807187Y-109982304D01*
X116818333Y-109938343D01*
X116780945Y-109857074D01*
X116672757Y-109814963D01*
X116595325Y-109809667D01*
X116441238Y-109791644D01*
X116239099Y-109743132D01*
X116016097Y-109672468D01*
X115799422Y-109587985D01*
X115664648Y-109524349D01*
X115409775Y-109361511D01*
X115171991Y-109153719D01*
X114970538Y-108921226D01*
X114824662Y-108684280D01*
X114790436Y-108604416D01*
X114710878Y-108285883D01*
X114709031Y-107975022D01*
X114782489Y-107683028D01*
X114928844Y-107421097D01*
X115080698Y-107254970D01*
X115280895Y-107099399D01*
X115478583Y-107006815D01*
X115704806Y-106965580D01*
X115865833Y-106960636D01*
X116061199Y-106970667D01*
X116243557Y-107001429D01*
X116421675Y-107058447D01*
X116604323Y-107147246D01*
X116800271Y-107273350D01*
X117018288Y-107442283D01*
X117267143Y-107659571D01*
X117555606Y-107930737D01*
X117826410Y-108195745D01*
X118169129Y-108526588D01*
X118470180Y-108796232D01*
X118739508Y-109010593D01*
X118987057Y-109175586D01*
X119222772Y-109297130D01*
X119456597Y-109381140D01*
X119698477Y-109433533D01*
X119951000Y-109459791D01*
X120390441Y-109448196D01*
X120796235Y-109361020D01*
X121164590Y-109201912D01*
X121491717Y-108974518D01*
X121773824Y-108682485D01*
X122007122Y-108329460D01*
X122187819Y-107919090D01*
X122312127Y-107455023D01*
X122359136Y-107142667D01*
X122378690Y-106872985D01*
X122378165Y-106587631D01*
X122356369Y-106271694D01*
X122312110Y-105910261D01*
X122244196Y-105488422D01*
X122213028Y-105315099D01*
X122152658Y-104951473D01*
X122119657Y-104655133D01*
X122114537Y-104413073D01*
X122137810Y-104212283D01*
X122189988Y-104039758D01*
X122269269Y-103886198D01*
X122362719Y-103716090D01*
X122403857Y-103593504D01*
X122391936Y-103524022D01*
X122326211Y-103513227D01*
X122318877Y-103514995D01*
X122258003Y-103529773D01*
X122124880Y-103561345D01*
X121929720Y-103607313D01*
X121682738Y-103665279D01*
X121394147Y-103732845D01*
X121074161Y-103807614D01*
X120816043Y-103867830D01*
X120436684Y-103956527D01*
X120131762Y-104028747D01*
X119893185Y-104086919D01*
X119712858Y-104133470D01*
X119582692Y-104170828D01*
X119494592Y-104201422D01*
X119440466Y-104227678D01*
X119412222Y-104252026D01*
X119401768Y-104276893D01*
X119400666Y-104292478D01*
X119417300Y-104359170D01*
X119482030Y-104396246D01*
X119559416Y-104412251D01*
X119672414Y-104432663D01*
X119839090Y-104465829D01*
X120030518Y-104505922D01*
X120111952Y-104523559D01*
X120562320Y-104656231D01*
X120955609Y-104842824D01*
X121288103Y-105079962D01*
X121556088Y-105364269D01*
X121755849Y-105692369D01*
X121883670Y-106060887D01*
X121902418Y-106150549D01*
X121927147Y-106485120D01*
X121880573Y-106801554D01*
X121770444Y-107090733D01*
X121604507Y-107343539D01*
X121390511Y-107550852D01*
X121136202Y-107703555D01*
X120849330Y-107792528D01*
X120537640Y-107808654D01*
X120496657Y-107805024D01*
X120301999Y-107775827D01*
X120117739Y-107726679D01*
X119934606Y-107651609D01*
X119743328Y-107544647D01*
X119534634Y-107399823D01*
X119299251Y-107211165D01*
X119027909Y-106972702D01*
X118711335Y-106678464D01*
X118635708Y-106606616D01*
X118265876Y-106264166D01*
X117937872Y-105984020D01*
X117642373Y-105761014D01*
X117370056Y-105589985D01*
X117111596Y-105465768D01*
X116857673Y-105383198D01*
X116598961Y-105337112D01*
X116326139Y-105322346D01*
X116317143Y-105322333D01*
X115917936Y-105362803D01*
X115542681Y-105484321D01*
X115191008Y-105687047D01*
X114887800Y-105945596D01*
X114615263Y-106270782D01*
X114411288Y-106634851D01*
X114275488Y-107040161D01*
X114207476Y-107489068D01*
X114206864Y-107983929D01*
X114273265Y-108527100D01*
X114381410Y-109025815D01*
X114459363Y-109350628D01*
X114507859Y-109608422D01*
X114526134Y-109811835D01*
X114513425Y-109973504D01*
X114468968Y-110106067D01*
X114391998Y-110222161D01*
X114303522Y-110314462D01*
X114215299Y-110438500D01*
X114193666Y-110536712D01*
X114198381Y-110622728D01*
X114198381Y-110622728D01*
G37*
X114198381Y-110622728D02*
X114209033Y-110656333D01*
X114252788Y-110646713D01*
X114366521Y-110619844D01*
X114537999Y-110578712D01*
X114754986Y-110526301D01*
X115005248Y-110465597D01*
X115276551Y-110399586D01*
X115556659Y-110331254D01*
X115833339Y-110263585D01*
X116094355Y-110199565D01*
X116327474Y-110142181D01*
X116520461Y-110094416D01*
X116661080Y-110059258D01*
X116737099Y-110039691D01*
X116744250Y-110037683D01*
X116807187Y-109982304D01*
X116818333Y-109938343D01*
X116780945Y-109857074D01*
X116672757Y-109814963D01*
X116595325Y-109809667D01*
X116441238Y-109791644D01*
X116239099Y-109743132D01*
X116016097Y-109672468D01*
X115799422Y-109587985D01*
X115664648Y-109524349D01*
X115409775Y-109361511D01*
X115171991Y-109153719D01*
X114970538Y-108921226D01*
X114824662Y-108684280D01*
X114790436Y-108604416D01*
X114710878Y-108285883D01*
X114709031Y-107975022D01*
X114782489Y-107683028D01*
X114928844Y-107421097D01*
X115080698Y-107254970D01*
X115280895Y-107099399D01*
X115478583Y-107006815D01*
X115704806Y-106965580D01*
X115865833Y-106960636D01*
X116061199Y-106970667D01*
X116243557Y-107001429D01*
X116421675Y-107058447D01*
X116604323Y-107147246D01*
X116800271Y-107273350D01*
X117018288Y-107442283D01*
X117267143Y-107659571D01*
X117555606Y-107930737D01*
X117826410Y-108195745D01*
X118169129Y-108526588D01*
X118470180Y-108796232D01*
X118739508Y-109010593D01*
X118987057Y-109175586D01*
X119222772Y-109297130D01*
X119456597Y-109381140D01*
X119698477Y-109433533D01*
X119951000Y-109459791D01*
X120390441Y-109448196D01*
X120796235Y-109361020D01*
X121164590Y-109201912D01*
X121491717Y-108974518D01*
X121773824Y-108682485D01*
X122007122Y-108329460D01*
X122187819Y-107919090D01*
X122312127Y-107455023D01*
X122359136Y-107142667D01*
X122378690Y-106872985D01*
X122378165Y-106587631D01*
X122356369Y-106271694D01*
X122312110Y-105910261D01*
X122244196Y-105488422D01*
X122213028Y-105315099D01*
X122152658Y-104951473D01*
X122119657Y-104655133D01*
X122114537Y-104413073D01*
X122137810Y-104212283D01*
X122189988Y-104039758D01*
X122269269Y-103886198D01*
X122362719Y-103716090D01*
X122403857Y-103593504D01*
X122391936Y-103524022D01*
X122326211Y-103513227D01*
X122318877Y-103514995D01*
X122258003Y-103529773D01*
X122124880Y-103561345D01*
X121929720Y-103607313D01*
X121682738Y-103665279D01*
X121394147Y-103732845D01*
X121074161Y-103807614D01*
X120816043Y-103867830D01*
X120436684Y-103956527D01*
X120131762Y-104028747D01*
X119893185Y-104086919D01*
X119712858Y-104133470D01*
X119582692Y-104170828D01*
X119494592Y-104201422D01*
X119440466Y-104227678D01*
X119412222Y-104252026D01*
X119401768Y-104276893D01*
X119400666Y-104292478D01*
X119417300Y-104359170D01*
X119482030Y-104396246D01*
X119559416Y-104412251D01*
X119672414Y-104432663D01*
X119839090Y-104465829D01*
X120030518Y-104505922D01*
X120111952Y-104523559D01*
X120562320Y-104656231D01*
X120955609Y-104842824D01*
X121288103Y-105079962D01*
X121556088Y-105364269D01*
X121755849Y-105692369D01*
X121883670Y-106060887D01*
X121902418Y-106150549D01*
X121927147Y-106485120D01*
X121880573Y-106801554D01*
X121770444Y-107090733D01*
X121604507Y-107343539D01*
X121390511Y-107550852D01*
X121136202Y-107703555D01*
X120849330Y-107792528D01*
X120537640Y-107808654D01*
X120496657Y-107805024D01*
X120301999Y-107775827D01*
X120117739Y-107726679D01*
X119934606Y-107651609D01*
X119743328Y-107544647D01*
X119534634Y-107399823D01*
X119299251Y-107211165D01*
X119027909Y-106972702D01*
X118711335Y-106678464D01*
X118635708Y-106606616D01*
X118265876Y-106264166D01*
X117937872Y-105984020D01*
X117642373Y-105761014D01*
X117370056Y-105589985D01*
X117111596Y-105465768D01*
X116857673Y-105383198D01*
X116598961Y-105337112D01*
X116326139Y-105322346D01*
X116317143Y-105322333D01*
X115917936Y-105362803D01*
X115542681Y-105484321D01*
X115191008Y-105687047D01*
X114887800Y-105945596D01*
X114615263Y-106270782D01*
X114411288Y-106634851D01*
X114275488Y-107040161D01*
X114207476Y-107489068D01*
X114206864Y-107983929D01*
X114273265Y-108527100D01*
X114381410Y-109025815D01*
X114459363Y-109350628D01*
X114507859Y-109608422D01*
X114526134Y-109811835D01*
X114513425Y-109973504D01*
X114468968Y-110106067D01*
X114391998Y-110222161D01*
X114303522Y-110314462D01*
X114215299Y-110438500D01*
X114193666Y-110536712D01*
X114198381Y-110622728D01*
G36*
X114458250Y-105025841D02*
G01*
X114527353Y-105005307D01*
X114586115Y-104932459D01*
X114634239Y-104829386D01*
X114704281Y-104701030D01*
X114813456Y-104546081D01*
X114939341Y-104396076D01*
X114951739Y-104382820D01*
X115015129Y-104322065D01*
X115138339Y-104210036D01*
X115316943Y-104050599D01*
X115546512Y-103847620D01*
X115822619Y-103604967D01*
X116140835Y-103326505D01*
X116496734Y-103016103D01*
X116885886Y-102677625D01*
X117303864Y-102314938D01*
X117746241Y-101931910D01*
X118208589Y-101532407D01*
X118686479Y-101120294D01*
X118786833Y-101033857D01*
X119359262Y-100540638D01*
X119870473Y-100099528D01*
X120323660Y-99707684D01*
X120722017Y-99362263D01*
X121068737Y-99060422D01*
X121367013Y-98799319D01*
X121620039Y-98576110D01*
X121831009Y-98387953D01*
X122003117Y-98232006D01*
X122139554Y-98105424D01*
X122243516Y-98005366D01*
X122318195Y-97928989D01*
X122366786Y-97873449D01*
X122392481Y-97835904D01*
X122398561Y-97818747D01*
X122391517Y-97726316D01*
X122356228Y-97700725D01*
X122306375Y-97702050D01*
X122178184Y-97706370D01*
X121977924Y-97713452D01*
X121711864Y-97723066D01*
X121386271Y-97734980D01*
X121007414Y-97748963D01*
X120581560Y-97764785D01*
X120114978Y-97782214D01*
X119613936Y-97801019D01*
X119084702Y-97820969D01*
X118702166Y-97835440D01*
X118155136Y-97855753D01*
X117630583Y-97874430D01*
X117134926Y-97891291D01*
X116674585Y-97906154D01*
X116255982Y-97918836D01*
X115885535Y-97929158D01*
X115569666Y-97936936D01*
X115314794Y-97941988D01*
X115127340Y-97944135D01*
X115013725Y-97943193D01*
X114981992Y-97940714D01*
X114812160Y-97856201D01*
X114680430Y-97708711D01*
X114602260Y-97516847D01*
X114594312Y-97474112D01*
X114570861Y-97352918D01*
X114540147Y-97296610D01*
X114489566Y-97285577D01*
X114474269Y-97287313D01*
X114451443Y-97291961D01*
X114432781Y-97304029D01*
X114417800Y-97331430D01*
X114406015Y-97382079D01*
X114396942Y-97463889D01*
X114390097Y-97584775D01*
X114384994Y-97752650D01*
X114381151Y-97975430D01*
X114378082Y-98261027D01*
X114375303Y-98617356D01*
X114373086Y-98940583D01*
X114370402Y-99365383D01*
X114369071Y-99712729D01*
X114369731Y-99989835D01*
X114373020Y-100203910D01*
X114379576Y-100362167D01*
X114390038Y-100471815D01*
X114405043Y-100540067D01*
X114425231Y-100574133D01*
X114451239Y-100581225D01*
X114483705Y-100568554D01*
X114515404Y-100548602D01*
X114549528Y-100490164D01*
X114578548Y-100381618D01*
X114585193Y-100339565D01*
X114647981Y-100121602D01*
X114775603Y-99948281D01*
X114971327Y-99817146D01*
X115238420Y-99725744D01*
X115455090Y-99686031D01*
X115558629Y-99675599D01*
X115729464Y-99662819D01*
X115958159Y-99648121D01*
X116235278Y-99631933D01*
X116551383Y-99614685D01*
X116897039Y-99596806D01*
X117262807Y-99578724D01*
X117639252Y-99560868D01*
X118016937Y-99543668D01*
X118386426Y-99527552D01*
X118738281Y-99512949D01*
X119063065Y-99500288D01*
X119351343Y-99489999D01*
X119593678Y-99482510D01*
X119780632Y-99478250D01*
X119902770Y-99477647D01*
X119950654Y-99481132D01*
X119951000Y-99481664D01*
X119919928Y-99512621D01*
X119831101Y-99592939D01*
X119691101Y-99716938D01*
X119506506Y-99878939D01*
X119283900Y-100073265D01*
X119029863Y-100294236D01*
X118750976Y-100536173D01*
X118453820Y-100793399D01*
X118144976Y-101060233D01*
X117831026Y-101330998D01*
X117518550Y-101600015D01*
X117214129Y-101861605D01*
X116924345Y-102110089D01*
X116655778Y-102339789D01*
X116415011Y-102545025D01*
X116208623Y-102720120D01*
X116043195Y-102859395D01*
X115925310Y-102957170D01*
X115891467Y-102984568D01*
X115618856Y-103183520D01*
X115378061Y-103316918D01*
X115156377Y-103391221D01*
X115060884Y-103406941D01*
X114931486Y-103411980D01*
X114843376Y-103382352D01*
X114771634Y-103321816D01*
X114692351Y-103212401D01*
X114625607Y-103070656D01*
X114612615Y-103030923D01*
X114575832Y-102905198D01*
X114549317Y-102842953D01*
X114518024Y-102826875D01*
X114466903Y-102839652D01*
X114450856Y-102844821D01*
X114423990Y-102855958D01*
X114403245Y-102876836D01*
X114387831Y-102917399D01*
X114376957Y-102987591D01*
X114369833Y-103097359D01*
X114365666Y-103256647D01*
X114363667Y-103475400D01*
X114363043Y-103763562D01*
X114363000Y-103949353D01*
X114363000Y-105026000D01*
X114458250Y-105025841D01*
X114458250Y-105025841D01*
G37*
X114458250Y-105025841D02*
X114527353Y-105005307D01*
X114586115Y-104932459D01*
X114634239Y-104829386D01*
X114704281Y-104701030D01*
X114813456Y-104546081D01*
X114939341Y-104396076D01*
X114951739Y-104382820D01*
X115015129Y-104322065D01*
X115138339Y-104210036D01*
X115316943Y-104050599D01*
X115546512Y-103847620D01*
X115822619Y-103604967D01*
X116140835Y-103326505D01*
X116496734Y-103016103D01*
X116885886Y-102677625D01*
X117303864Y-102314938D01*
X117746241Y-101931910D01*
X118208589Y-101532407D01*
X118686479Y-101120294D01*
X118786833Y-101033857D01*
X119359262Y-100540638D01*
X119870473Y-100099528D01*
X120323660Y-99707684D01*
X120722017Y-99362263D01*
X121068737Y-99060422D01*
X121367013Y-98799319D01*
X121620039Y-98576110D01*
X121831009Y-98387953D01*
X122003117Y-98232006D01*
X122139554Y-98105424D01*
X122243516Y-98005366D01*
X122318195Y-97928989D01*
X122366786Y-97873449D01*
X122392481Y-97835904D01*
X122398561Y-97818747D01*
X122391517Y-97726316D01*
X122356228Y-97700725D01*
X122306375Y-97702050D01*
X122178184Y-97706370D01*
X121977924Y-97713452D01*
X121711864Y-97723066D01*
X121386271Y-97734980D01*
X121007414Y-97748963D01*
X120581560Y-97764785D01*
X120114978Y-97782214D01*
X119613936Y-97801019D01*
X119084702Y-97820969D01*
X118702166Y-97835440D01*
X118155136Y-97855753D01*
X117630583Y-97874430D01*
X117134926Y-97891291D01*
X116674585Y-97906154D01*
X116255982Y-97918836D01*
X115885535Y-97929158D01*
X115569666Y-97936936D01*
X115314794Y-97941988D01*
X115127340Y-97944135D01*
X115013725Y-97943193D01*
X114981992Y-97940714D01*
X114812160Y-97856201D01*
X114680430Y-97708711D01*
X114602260Y-97516847D01*
X114594312Y-97474112D01*
X114570861Y-97352918D01*
X114540147Y-97296610D01*
X114489566Y-97285577D01*
X114474269Y-97287313D01*
X114451443Y-97291961D01*
X114432781Y-97304029D01*
X114417800Y-97331430D01*
X114406015Y-97382079D01*
X114396942Y-97463889D01*
X114390097Y-97584775D01*
X114384994Y-97752650D01*
X114381151Y-97975430D01*
X114378082Y-98261027D01*
X114375303Y-98617356D01*
X114373086Y-98940583D01*
X114370402Y-99365383D01*
X114369071Y-99712729D01*
X114369731Y-99989835D01*
X114373020Y-100203910D01*
X114379576Y-100362167D01*
X114390038Y-100471815D01*
X114405043Y-100540067D01*
X114425231Y-100574133D01*
X114451239Y-100581225D01*
X114483705Y-100568554D01*
X114515404Y-100548602D01*
X114549528Y-100490164D01*
X114578548Y-100381618D01*
X114585193Y-100339565D01*
X114647981Y-100121602D01*
X114775603Y-99948281D01*
X114971327Y-99817146D01*
X115238420Y-99725744D01*
X115455090Y-99686031D01*
X115558629Y-99675599D01*
X115729464Y-99662819D01*
X115958159Y-99648121D01*
X116235278Y-99631933D01*
X116551383Y-99614685D01*
X116897039Y-99596806D01*
X117262807Y-99578724D01*
X117639252Y-99560868D01*
X118016937Y-99543668D01*
X118386426Y-99527552D01*
X118738281Y-99512949D01*
X119063065Y-99500288D01*
X119351343Y-99489999D01*
X119593678Y-99482510D01*
X119780632Y-99478250D01*
X119902770Y-99477647D01*
X119950654Y-99481132D01*
X119951000Y-99481664D01*
X119919928Y-99512621D01*
X119831101Y-99592939D01*
X119691101Y-99716938D01*
X119506506Y-99878939D01*
X119283900Y-100073265D01*
X119029863Y-100294236D01*
X118750976Y-100536173D01*
X118453820Y-100793399D01*
X118144976Y-101060233D01*
X117831026Y-101330998D01*
X117518550Y-101600015D01*
X117214129Y-101861605D01*
X116924345Y-102110089D01*
X116655778Y-102339789D01*
X116415011Y-102545025D01*
X116208623Y-102720120D01*
X116043195Y-102859395D01*
X115925310Y-102957170D01*
X115891467Y-102984568D01*
X115618856Y-103183520D01*
X115378061Y-103316918D01*
X115156377Y-103391221D01*
X115060884Y-103406941D01*
X114931486Y-103411980D01*
X114843376Y-103382352D01*
X114771634Y-103321816D01*
X114692351Y-103212401D01*
X114625607Y-103070656D01*
X114612615Y-103030923D01*
X114575832Y-102905198D01*
X114549317Y-102842953D01*
X114518024Y-102826875D01*
X114466903Y-102839652D01*
X114450856Y-102844821D01*
X114423990Y-102855958D01*
X114403245Y-102876836D01*
X114387831Y-102917399D01*
X114376957Y-102987591D01*
X114369833Y-103097359D01*
X114365666Y-103256647D01*
X114363667Y-103475400D01*
X114363043Y-103763562D01*
X114363000Y-103949353D01*
X114363000Y-105026000D01*
X114458250Y-105025841D01*
M02*
