G04 #@! TF.GenerationSoftware,KiCad,Pcbnew,(5.1.4-0)*
G04 #@! TF.CreationDate,2021-09-24T08:54:23+03:00*
G04 #@! TF.ProjectId,relay_logic_board,72656c61-795f-46c6-9f67-69635f626f61,rev?*
G04 #@! TF.SameCoordinates,Original*
G04 #@! TF.FileFunction,Soldermask,Top*
G04 #@! TF.FilePolarity,Negative*
%FSLAX46Y46*%
G04 Gerber Fmt 4.6, Leading zero omitted, Abs format (unit mm)*
G04 Created by KiCad (PCBNEW (5.1.4-0)) date 2021-09-24 08:54:23*
%MOMM*%
%LPD*%
G04 APERTURE LIST*
%ADD10C,0.100000*%
G04 APERTURE END LIST*
D10*
G36*
X158679591Y-122778085D02*
G01*
X158713569Y-122788393D01*
X158744890Y-122805134D01*
X158772339Y-122827661D01*
X158794866Y-122855110D01*
X158811607Y-122886431D01*
X158821915Y-122920409D01*
X158826000Y-122961890D01*
X158826000Y-123638110D01*
X158821915Y-123679591D01*
X158811607Y-123713569D01*
X158794866Y-123744890D01*
X158772339Y-123772339D01*
X158744890Y-123794866D01*
X158713569Y-123811607D01*
X158679591Y-123821915D01*
X158638110Y-123826000D01*
X158036890Y-123826000D01*
X157995409Y-123821915D01*
X157961431Y-123811607D01*
X157930110Y-123794866D01*
X157902661Y-123772339D01*
X157880134Y-123744890D01*
X157863393Y-123713569D01*
X157853085Y-123679591D01*
X157849000Y-123638110D01*
X157849000Y-122961890D01*
X157853085Y-122920409D01*
X157863393Y-122886431D01*
X157880134Y-122855110D01*
X157902661Y-122827661D01*
X157930110Y-122805134D01*
X157961431Y-122788393D01*
X157995409Y-122778085D01*
X158036890Y-122774000D01*
X158638110Y-122774000D01*
X158679591Y-122778085D01*
X158679591Y-122778085D01*
G37*
G36*
X157104591Y-122778085D02*
G01*
X157138569Y-122788393D01*
X157169890Y-122805134D01*
X157197339Y-122827661D01*
X157219866Y-122855110D01*
X157236607Y-122886431D01*
X157246915Y-122920409D01*
X157251000Y-122961890D01*
X157251000Y-123638110D01*
X157246915Y-123679591D01*
X157236607Y-123713569D01*
X157219866Y-123744890D01*
X157197339Y-123772339D01*
X157169890Y-123794866D01*
X157138569Y-123811607D01*
X157104591Y-123821915D01*
X157063110Y-123826000D01*
X156461890Y-123826000D01*
X156420409Y-123821915D01*
X156386431Y-123811607D01*
X156355110Y-123794866D01*
X156327661Y-123772339D01*
X156305134Y-123744890D01*
X156288393Y-123713569D01*
X156278085Y-123679591D01*
X156274000Y-123638110D01*
X156274000Y-122961890D01*
X156278085Y-122920409D01*
X156288393Y-122886431D01*
X156305134Y-122855110D01*
X156327661Y-122827661D01*
X156355110Y-122805134D01*
X156386431Y-122788393D01*
X156420409Y-122778085D01*
X156461890Y-122774000D01*
X157063110Y-122774000D01*
X157104591Y-122778085D01*
X157104591Y-122778085D01*
G37*
G36*
X155642091Y-122778085D02*
G01*
X155676069Y-122788393D01*
X155707390Y-122805134D01*
X155734839Y-122827661D01*
X155757366Y-122855110D01*
X155774107Y-122886431D01*
X155784415Y-122920409D01*
X155788500Y-122961890D01*
X155788500Y-123638110D01*
X155784415Y-123679591D01*
X155774107Y-123713569D01*
X155757366Y-123744890D01*
X155734839Y-123772339D01*
X155707390Y-123794866D01*
X155676069Y-123811607D01*
X155642091Y-123821915D01*
X155600610Y-123826000D01*
X154999390Y-123826000D01*
X154957909Y-123821915D01*
X154923931Y-123811607D01*
X154892610Y-123794866D01*
X154865161Y-123772339D01*
X154842634Y-123744890D01*
X154825893Y-123713569D01*
X154815585Y-123679591D01*
X154811500Y-123638110D01*
X154811500Y-122961890D01*
X154815585Y-122920409D01*
X154825893Y-122886431D01*
X154842634Y-122855110D01*
X154865161Y-122827661D01*
X154892610Y-122805134D01*
X154923931Y-122788393D01*
X154957909Y-122778085D01*
X154999390Y-122774000D01*
X155600610Y-122774000D01*
X155642091Y-122778085D01*
X155642091Y-122778085D01*
G37*
G36*
X154067091Y-122778085D02*
G01*
X154101069Y-122788393D01*
X154132390Y-122805134D01*
X154159839Y-122827661D01*
X154182366Y-122855110D01*
X154199107Y-122886431D01*
X154209415Y-122920409D01*
X154213500Y-122961890D01*
X154213500Y-123638110D01*
X154209415Y-123679591D01*
X154199107Y-123713569D01*
X154182366Y-123744890D01*
X154159839Y-123772339D01*
X154132390Y-123794866D01*
X154101069Y-123811607D01*
X154067091Y-123821915D01*
X154025610Y-123826000D01*
X153424390Y-123826000D01*
X153382909Y-123821915D01*
X153348931Y-123811607D01*
X153317610Y-123794866D01*
X153290161Y-123772339D01*
X153267634Y-123744890D01*
X153250893Y-123713569D01*
X153240585Y-123679591D01*
X153236500Y-123638110D01*
X153236500Y-122961890D01*
X153240585Y-122920409D01*
X153250893Y-122886431D01*
X153267634Y-122855110D01*
X153290161Y-122827661D01*
X153317610Y-122805134D01*
X153348931Y-122788393D01*
X153382909Y-122778085D01*
X153424390Y-122774000D01*
X154025610Y-122774000D01*
X154067091Y-122778085D01*
X154067091Y-122778085D01*
G37*
G36*
X140547798Y-120928247D02*
G01*
X140583367Y-120939037D01*
X140616139Y-120956554D01*
X140644869Y-120980131D01*
X140668446Y-121008861D01*
X140685963Y-121041633D01*
X140696753Y-121077202D01*
X140701000Y-121120325D01*
X140701000Y-122179675D01*
X140696753Y-122222798D01*
X140685963Y-122258367D01*
X140668446Y-122291139D01*
X140644869Y-122319869D01*
X140616139Y-122343446D01*
X140583367Y-122360963D01*
X140547798Y-122371753D01*
X140504675Y-122376000D01*
X137445325Y-122376000D01*
X137402202Y-122371753D01*
X137366633Y-122360963D01*
X137333861Y-122343446D01*
X137305131Y-122319869D01*
X137281554Y-122291139D01*
X137264037Y-122258367D01*
X137253247Y-122222798D01*
X137249000Y-122179675D01*
X137249000Y-121120325D01*
X137253247Y-121077202D01*
X137264037Y-121041633D01*
X137281554Y-121008861D01*
X137305131Y-120980131D01*
X137333861Y-120956554D01*
X137366633Y-120939037D01*
X137402202Y-120928247D01*
X137445325Y-120924000D01*
X140504675Y-120924000D01*
X140547798Y-120928247D01*
X140547798Y-120928247D01*
G37*
G36*
X132647798Y-120928247D02*
G01*
X132683367Y-120939037D01*
X132716139Y-120956554D01*
X132744869Y-120980131D01*
X132768446Y-121008861D01*
X132785963Y-121041633D01*
X132796753Y-121077202D01*
X132801000Y-121120325D01*
X132801000Y-122179675D01*
X132796753Y-122222798D01*
X132785963Y-122258367D01*
X132768446Y-122291139D01*
X132744869Y-122319869D01*
X132716139Y-122343446D01*
X132683367Y-122360963D01*
X132647798Y-122371753D01*
X132604675Y-122376000D01*
X129545325Y-122376000D01*
X129502202Y-122371753D01*
X129466633Y-122360963D01*
X129433861Y-122343446D01*
X129405131Y-122319869D01*
X129381554Y-122291139D01*
X129364037Y-122258367D01*
X129353247Y-122222798D01*
X129349000Y-122179675D01*
X129349000Y-121120325D01*
X129353247Y-121077202D01*
X129364037Y-121041633D01*
X129381554Y-121008861D01*
X129405131Y-120980131D01*
X129433861Y-120956554D01*
X129466633Y-120939037D01*
X129502202Y-120928247D01*
X129545325Y-120924000D01*
X132604675Y-120924000D01*
X132647798Y-120928247D01*
X132647798Y-120928247D01*
G37*
G36*
X136597798Y-120928247D02*
G01*
X136633367Y-120939037D01*
X136666139Y-120956554D01*
X136694869Y-120980131D01*
X136718446Y-121008861D01*
X136735963Y-121041633D01*
X136746753Y-121077202D01*
X136751000Y-121120325D01*
X136751000Y-122179675D01*
X136746753Y-122222798D01*
X136735963Y-122258367D01*
X136718446Y-122291139D01*
X136694869Y-122319869D01*
X136666139Y-122343446D01*
X136633367Y-122360963D01*
X136597798Y-122371753D01*
X136554675Y-122376000D01*
X133495325Y-122376000D01*
X133452202Y-122371753D01*
X133416633Y-122360963D01*
X133383861Y-122343446D01*
X133355131Y-122319869D01*
X133331554Y-122291139D01*
X133314037Y-122258367D01*
X133303247Y-122222798D01*
X133299000Y-122179675D01*
X133299000Y-121120325D01*
X133303247Y-121077202D01*
X133314037Y-121041633D01*
X133331554Y-121008861D01*
X133355131Y-120980131D01*
X133383861Y-120956554D01*
X133416633Y-120939037D01*
X133452202Y-120928247D01*
X133495325Y-120924000D01*
X136554675Y-120924000D01*
X136597798Y-120928247D01*
X136597798Y-120928247D01*
G37*
G36*
X144497798Y-120903247D02*
G01*
X144533367Y-120914037D01*
X144566139Y-120931554D01*
X144594869Y-120955131D01*
X144618446Y-120983861D01*
X144635963Y-121016633D01*
X144646753Y-121052202D01*
X144651000Y-121095325D01*
X144651000Y-122154675D01*
X144646753Y-122197798D01*
X144635963Y-122233367D01*
X144618446Y-122266139D01*
X144594869Y-122294869D01*
X144566139Y-122318446D01*
X144533367Y-122335963D01*
X144497798Y-122346753D01*
X144454675Y-122351000D01*
X141395325Y-122351000D01*
X141352202Y-122346753D01*
X141316633Y-122335963D01*
X141283861Y-122318446D01*
X141255131Y-122294869D01*
X141231554Y-122266139D01*
X141214037Y-122233367D01*
X141203247Y-122197798D01*
X141199000Y-122154675D01*
X141199000Y-121095325D01*
X141203247Y-121052202D01*
X141214037Y-121016633D01*
X141231554Y-120983861D01*
X141255131Y-120955131D01*
X141283861Y-120931554D01*
X141316633Y-120914037D01*
X141352202Y-120903247D01*
X141395325Y-120899000D01*
X144454675Y-120899000D01*
X144497798Y-120903247D01*
X144497798Y-120903247D01*
G37*
G36*
X179960443Y-119885519D02*
G01*
X180026627Y-119892037D01*
X180196466Y-119943557D01*
X180352991Y-120027222D01*
X180388729Y-120056552D01*
X180490186Y-120139814D01*
X180573448Y-120241271D01*
X180602778Y-120277009D01*
X180686443Y-120433534D01*
X180737963Y-120603373D01*
X180755359Y-120780000D01*
X180737963Y-120956627D01*
X180686443Y-121126466D01*
X180686442Y-121126468D01*
X180664302Y-121167888D01*
X180602778Y-121282991D01*
X180573448Y-121318729D01*
X180490186Y-121420186D01*
X180388729Y-121503448D01*
X180352991Y-121532778D01*
X180196466Y-121616443D01*
X180026627Y-121667963D01*
X179960442Y-121674482D01*
X179894260Y-121681000D01*
X179805740Y-121681000D01*
X179739558Y-121674482D01*
X179673373Y-121667963D01*
X179503534Y-121616443D01*
X179347009Y-121532778D01*
X179311271Y-121503448D01*
X179209814Y-121420186D01*
X179126552Y-121318729D01*
X179097222Y-121282991D01*
X179035698Y-121167888D01*
X179013558Y-121126468D01*
X179013557Y-121126466D01*
X178962037Y-120956627D01*
X178944641Y-120780000D01*
X178962037Y-120603373D01*
X179013557Y-120433534D01*
X179097222Y-120277009D01*
X179126552Y-120241271D01*
X179209814Y-120139814D01*
X179311271Y-120056552D01*
X179347009Y-120027222D01*
X179503534Y-119943557D01*
X179673373Y-119892037D01*
X179739557Y-119885519D01*
X179805740Y-119879000D01*
X179894260Y-119879000D01*
X179960443Y-119885519D01*
X179960443Y-119885519D01*
G37*
G36*
X158026000Y-121601000D02*
G01*
X151774000Y-121601000D01*
X151774000Y-119899000D01*
X158026000Y-119899000D01*
X158026000Y-121601000D01*
X158026000Y-121601000D01*
G37*
G36*
X171460443Y-119785519D02*
G01*
X171526627Y-119792037D01*
X171696466Y-119843557D01*
X171852991Y-119927222D01*
X171872895Y-119943557D01*
X171990186Y-120039814D01*
X172072253Y-120139814D01*
X172102778Y-120177009D01*
X172186443Y-120333534D01*
X172237963Y-120503373D01*
X172255359Y-120680000D01*
X172237963Y-120856627D01*
X172186443Y-121026466D01*
X172102778Y-121182991D01*
X172073448Y-121218729D01*
X171990186Y-121320186D01*
X171888729Y-121403448D01*
X171852991Y-121432778D01*
X171696466Y-121516443D01*
X171526627Y-121567963D01*
X171460442Y-121574482D01*
X171394260Y-121581000D01*
X171305740Y-121581000D01*
X171239558Y-121574482D01*
X171173373Y-121567963D01*
X171003534Y-121516443D01*
X170847009Y-121432778D01*
X170811271Y-121403448D01*
X170709814Y-121320186D01*
X170626552Y-121218729D01*
X170597222Y-121182991D01*
X170513557Y-121026466D01*
X170462037Y-120856627D01*
X170444641Y-120680000D01*
X170462037Y-120503373D01*
X170513557Y-120333534D01*
X170597222Y-120177009D01*
X170627747Y-120139814D01*
X170709814Y-120039814D01*
X170827105Y-119943557D01*
X170847009Y-119927222D01*
X171003534Y-119843557D01*
X171173373Y-119792037D01*
X171239557Y-119785519D01*
X171305740Y-119779000D01*
X171394260Y-119779000D01*
X171460443Y-119785519D01*
X171460443Y-119785519D01*
G37*
G36*
X174000443Y-119785519D02*
G01*
X174066627Y-119792037D01*
X174236466Y-119843557D01*
X174392991Y-119927222D01*
X174412895Y-119943557D01*
X174530186Y-120039814D01*
X174612253Y-120139814D01*
X174642778Y-120177009D01*
X174726443Y-120333534D01*
X174777963Y-120503373D01*
X174795359Y-120680000D01*
X174777963Y-120856627D01*
X174726443Y-121026466D01*
X174642778Y-121182991D01*
X174613448Y-121218729D01*
X174530186Y-121320186D01*
X174428729Y-121403448D01*
X174392991Y-121432778D01*
X174236466Y-121516443D01*
X174066627Y-121567963D01*
X174000442Y-121574482D01*
X173934260Y-121581000D01*
X173845740Y-121581000D01*
X173779558Y-121574482D01*
X173713373Y-121567963D01*
X173543534Y-121516443D01*
X173387009Y-121432778D01*
X173351271Y-121403448D01*
X173249814Y-121320186D01*
X173166552Y-121218729D01*
X173137222Y-121182991D01*
X173053557Y-121026466D01*
X173002037Y-120856627D01*
X172984641Y-120680000D01*
X173002037Y-120503373D01*
X173053557Y-120333534D01*
X173137222Y-120177009D01*
X173167747Y-120139814D01*
X173249814Y-120039814D01*
X173367105Y-119943557D01*
X173387009Y-119927222D01*
X173543534Y-119843557D01*
X173713373Y-119792037D01*
X173779557Y-119785519D01*
X173845740Y-119779000D01*
X173934260Y-119779000D01*
X174000443Y-119785519D01*
X174000443Y-119785519D01*
G37*
G36*
X151501000Y-119626000D02*
G01*
X149799000Y-119626000D01*
X149799000Y-113374000D01*
X151501000Y-113374000D01*
X151501000Y-119626000D01*
X151501000Y-119626000D01*
G37*
G36*
X160001000Y-119626000D02*
G01*
X158299000Y-119626000D01*
X158299000Y-113374000D01*
X160001000Y-113374000D01*
X160001000Y-119626000D01*
X160001000Y-119626000D01*
G37*
G36*
X124142338Y-118357552D02*
G01*
X124196136Y-118368253D01*
X124233902Y-118383896D01*
X124287311Y-118406019D01*
X124287312Y-118406020D01*
X124369369Y-118460848D01*
X124439152Y-118530631D01*
X124439153Y-118530633D01*
X124493981Y-118612689D01*
X124506532Y-118642991D01*
X124531747Y-118703864D01*
X124551000Y-118800656D01*
X124551000Y-118899344D01*
X124534609Y-118981750D01*
X124531747Y-118996135D01*
X124493981Y-119087311D01*
X124493980Y-119087312D01*
X124439152Y-119169369D01*
X124369369Y-119239152D01*
X124328062Y-119266752D01*
X124287311Y-119293981D01*
X124233902Y-119316104D01*
X124196136Y-119331747D01*
X124147740Y-119341374D01*
X124099345Y-119351000D01*
X124000655Y-119351000D01*
X123952260Y-119341374D01*
X123903864Y-119331747D01*
X123866098Y-119316104D01*
X123812689Y-119293981D01*
X123771938Y-119266752D01*
X123730631Y-119239152D01*
X123660848Y-119169369D01*
X123606020Y-119087312D01*
X123606019Y-119087311D01*
X123568253Y-118996135D01*
X123565392Y-118981750D01*
X123549000Y-118899344D01*
X123549000Y-118800656D01*
X123568253Y-118703864D01*
X123593468Y-118642991D01*
X123606019Y-118612689D01*
X123660847Y-118530633D01*
X123660848Y-118530631D01*
X123730631Y-118460848D01*
X123812688Y-118406020D01*
X123812689Y-118406019D01*
X123866098Y-118383896D01*
X123903864Y-118368253D01*
X123957662Y-118357552D01*
X124000655Y-118349000D01*
X124099345Y-118349000D01*
X124142338Y-118357552D01*
X124142338Y-118357552D01*
G37*
G36*
X161429591Y-118253085D02*
G01*
X161463569Y-118263393D01*
X161494890Y-118280134D01*
X161522339Y-118302661D01*
X161544866Y-118330110D01*
X161561607Y-118361431D01*
X161571915Y-118395409D01*
X161576000Y-118436890D01*
X161576000Y-119038110D01*
X161571915Y-119079591D01*
X161561607Y-119113569D01*
X161544866Y-119144890D01*
X161522339Y-119172339D01*
X161494890Y-119194866D01*
X161463569Y-119211607D01*
X161429591Y-119221915D01*
X161388110Y-119226000D01*
X160711890Y-119226000D01*
X160670409Y-119221915D01*
X160636431Y-119211607D01*
X160605110Y-119194866D01*
X160577661Y-119172339D01*
X160555134Y-119144890D01*
X160538393Y-119113569D01*
X160528085Y-119079591D01*
X160524000Y-119038110D01*
X160524000Y-118436890D01*
X160528085Y-118395409D01*
X160538393Y-118361431D01*
X160555134Y-118330110D01*
X160577661Y-118302661D01*
X160605110Y-118280134D01*
X160636431Y-118263393D01*
X160670409Y-118253085D01*
X160711890Y-118249000D01*
X161388110Y-118249000D01*
X161429591Y-118253085D01*
X161429591Y-118253085D01*
G37*
G36*
X179960443Y-117345519D02*
G01*
X180026627Y-117352037D01*
X180196466Y-117403557D01*
X180352991Y-117487222D01*
X180368829Y-117500220D01*
X180490186Y-117599814D01*
X180573448Y-117701271D01*
X180602778Y-117737009D01*
X180686443Y-117893534D01*
X180737963Y-118063373D01*
X180755359Y-118240000D01*
X180737963Y-118416627D01*
X180686443Y-118586466D01*
X180602778Y-118742991D01*
X180573448Y-118778729D01*
X180490186Y-118880186D01*
X180388729Y-118963448D01*
X180352991Y-118992778D01*
X180196466Y-119076443D01*
X180026627Y-119127963D01*
X179960443Y-119134481D01*
X179894260Y-119141000D01*
X179805740Y-119141000D01*
X179739557Y-119134481D01*
X179673373Y-119127963D01*
X179503534Y-119076443D01*
X179347009Y-118992778D01*
X179311271Y-118963448D01*
X179209814Y-118880186D01*
X179126552Y-118778729D01*
X179097222Y-118742991D01*
X179013557Y-118586466D01*
X178962037Y-118416627D01*
X178944641Y-118240000D01*
X178962037Y-118063373D01*
X179013557Y-117893534D01*
X179097222Y-117737009D01*
X179126552Y-117701271D01*
X179209814Y-117599814D01*
X179331171Y-117500220D01*
X179347009Y-117487222D01*
X179503534Y-117403557D01*
X179673373Y-117352037D01*
X179739557Y-117345519D01*
X179805740Y-117339000D01*
X179894260Y-117339000D01*
X179960443Y-117345519D01*
X179960443Y-117345519D01*
G37*
G36*
X174000442Y-117245518D02*
G01*
X174066627Y-117252037D01*
X174236466Y-117303557D01*
X174392991Y-117387222D01*
X174412895Y-117403557D01*
X174530186Y-117499814D01*
X174612253Y-117599814D01*
X174642778Y-117637009D01*
X174726443Y-117793534D01*
X174777963Y-117963373D01*
X174795359Y-118140000D01*
X174777963Y-118316627D01*
X174726443Y-118486466D01*
X174642778Y-118642991D01*
X174613448Y-118678729D01*
X174530186Y-118780186D01*
X174428729Y-118863448D01*
X174392991Y-118892778D01*
X174392989Y-118892779D01*
X174241037Y-118974000D01*
X174236466Y-118976443D01*
X174066627Y-119027963D01*
X174000443Y-119034481D01*
X173934260Y-119041000D01*
X173845740Y-119041000D01*
X173779557Y-119034481D01*
X173713373Y-119027963D01*
X173543534Y-118976443D01*
X173538964Y-118974000D01*
X173387011Y-118892779D01*
X173387009Y-118892778D01*
X173351271Y-118863448D01*
X173249814Y-118780186D01*
X173166552Y-118678729D01*
X173137222Y-118642991D01*
X173053557Y-118486466D01*
X173002037Y-118316627D01*
X172984641Y-118140000D01*
X173002037Y-117963373D01*
X173053557Y-117793534D01*
X173137222Y-117637009D01*
X173167747Y-117599814D01*
X173249814Y-117499814D01*
X173367105Y-117403557D01*
X173387009Y-117387222D01*
X173543534Y-117303557D01*
X173713373Y-117252037D01*
X173779558Y-117245518D01*
X173845740Y-117239000D01*
X173934260Y-117239000D01*
X174000442Y-117245518D01*
X174000442Y-117245518D01*
G37*
G36*
X171460442Y-117245518D02*
G01*
X171526627Y-117252037D01*
X171696466Y-117303557D01*
X171852991Y-117387222D01*
X171872895Y-117403557D01*
X171990186Y-117499814D01*
X172072253Y-117599814D01*
X172102778Y-117637009D01*
X172186443Y-117793534D01*
X172237963Y-117963373D01*
X172255359Y-118140000D01*
X172237963Y-118316627D01*
X172186443Y-118486466D01*
X172102778Y-118642991D01*
X172073448Y-118678729D01*
X171990186Y-118780186D01*
X171888729Y-118863448D01*
X171852991Y-118892778D01*
X171852989Y-118892779D01*
X171701037Y-118974000D01*
X171696466Y-118976443D01*
X171526627Y-119027963D01*
X171460443Y-119034481D01*
X171394260Y-119041000D01*
X171305740Y-119041000D01*
X171239557Y-119034481D01*
X171173373Y-119027963D01*
X171003534Y-118976443D01*
X170998964Y-118974000D01*
X170847011Y-118892779D01*
X170847009Y-118892778D01*
X170811271Y-118863448D01*
X170709814Y-118780186D01*
X170626552Y-118678729D01*
X170597222Y-118642991D01*
X170513557Y-118486466D01*
X170462037Y-118316627D01*
X170444641Y-118140000D01*
X170462037Y-117963373D01*
X170513557Y-117793534D01*
X170597222Y-117637009D01*
X170627747Y-117599814D01*
X170709814Y-117499814D01*
X170827105Y-117403557D01*
X170847009Y-117387222D01*
X171003534Y-117303557D01*
X171173373Y-117252037D01*
X171239558Y-117245518D01*
X171305740Y-117239000D01*
X171394260Y-117239000D01*
X171460442Y-117245518D01*
X171460442Y-117245518D01*
G37*
G36*
X161429591Y-116678085D02*
G01*
X161463569Y-116688393D01*
X161494890Y-116705134D01*
X161522339Y-116727661D01*
X161544866Y-116755110D01*
X161561607Y-116786431D01*
X161571915Y-116820409D01*
X161576000Y-116861890D01*
X161576000Y-117463110D01*
X161571915Y-117504591D01*
X161561607Y-117538569D01*
X161544866Y-117569890D01*
X161522339Y-117597339D01*
X161494890Y-117619866D01*
X161463569Y-117636607D01*
X161429591Y-117646915D01*
X161388110Y-117651000D01*
X160711890Y-117651000D01*
X160670409Y-117646915D01*
X160636431Y-117636607D01*
X160605110Y-117619866D01*
X160577661Y-117597339D01*
X160555134Y-117569890D01*
X160538393Y-117538569D01*
X160528085Y-117504591D01*
X160524000Y-117463110D01*
X160524000Y-116861890D01*
X160528085Y-116820409D01*
X160538393Y-116786431D01*
X160555134Y-116755110D01*
X160577661Y-116727661D01*
X160605110Y-116705134D01*
X160636431Y-116688393D01*
X160670409Y-116678085D01*
X160711890Y-116674000D01*
X161388110Y-116674000D01*
X161429591Y-116678085D01*
X161429591Y-116678085D01*
G37*
G36*
X165029591Y-116578085D02*
G01*
X165063569Y-116588393D01*
X165094890Y-116605134D01*
X165122339Y-116627661D01*
X165144866Y-116655110D01*
X165161607Y-116686431D01*
X165171915Y-116720409D01*
X165176000Y-116761890D01*
X165176000Y-117438110D01*
X165171915Y-117479591D01*
X165161607Y-117513569D01*
X165144866Y-117544890D01*
X165122339Y-117572339D01*
X165094890Y-117594866D01*
X165063569Y-117611607D01*
X165029591Y-117621915D01*
X164988110Y-117626000D01*
X164386890Y-117626000D01*
X164345409Y-117621915D01*
X164311431Y-117611607D01*
X164280110Y-117594866D01*
X164252661Y-117572339D01*
X164230134Y-117544890D01*
X164213393Y-117513569D01*
X164203085Y-117479591D01*
X164199000Y-117438110D01*
X164199000Y-116761890D01*
X164203085Y-116720409D01*
X164213393Y-116686431D01*
X164230134Y-116655110D01*
X164252661Y-116627661D01*
X164280110Y-116605134D01*
X164311431Y-116588393D01*
X164345409Y-116578085D01*
X164386890Y-116574000D01*
X164988110Y-116574000D01*
X165029591Y-116578085D01*
X165029591Y-116578085D01*
G37*
G36*
X163454591Y-116578085D02*
G01*
X163488569Y-116588393D01*
X163519890Y-116605134D01*
X163547339Y-116627661D01*
X163569866Y-116655110D01*
X163586607Y-116686431D01*
X163596915Y-116720409D01*
X163601000Y-116761890D01*
X163601000Y-117438110D01*
X163596915Y-117479591D01*
X163586607Y-117513569D01*
X163569866Y-117544890D01*
X163547339Y-117572339D01*
X163519890Y-117594866D01*
X163488569Y-117611607D01*
X163454591Y-117621915D01*
X163413110Y-117626000D01*
X162811890Y-117626000D01*
X162770409Y-117621915D01*
X162736431Y-117611607D01*
X162705110Y-117594866D01*
X162677661Y-117572339D01*
X162655134Y-117544890D01*
X162638393Y-117513569D01*
X162628085Y-117479591D01*
X162624000Y-117438110D01*
X162624000Y-116761890D01*
X162628085Y-116720409D01*
X162638393Y-116686431D01*
X162655134Y-116655110D01*
X162677661Y-116627661D01*
X162705110Y-116605134D01*
X162736431Y-116588393D01*
X162770409Y-116578085D01*
X162811890Y-116574000D01*
X163413110Y-116574000D01*
X163454591Y-116578085D01*
X163454591Y-116578085D01*
G37*
G36*
X179960442Y-114805518D02*
G01*
X180026627Y-114812037D01*
X180196466Y-114863557D01*
X180352991Y-114947222D01*
X180377636Y-114967448D01*
X180490186Y-115059814D01*
X180568409Y-115155131D01*
X180602778Y-115197009D01*
X180686443Y-115353534D01*
X180737963Y-115523373D01*
X180755359Y-115700000D01*
X180737963Y-115876627D01*
X180686443Y-116046466D01*
X180602778Y-116202991D01*
X180573448Y-116238729D01*
X180490186Y-116340186D01*
X180389521Y-116422798D01*
X180352991Y-116452778D01*
X180196466Y-116536443D01*
X180026627Y-116587963D01*
X179979627Y-116592592D01*
X179894260Y-116601000D01*
X179805740Y-116601000D01*
X179720373Y-116592592D01*
X179673373Y-116587963D01*
X179503534Y-116536443D01*
X179347009Y-116452778D01*
X179310479Y-116422798D01*
X179209814Y-116340186D01*
X179126552Y-116238729D01*
X179097222Y-116202991D01*
X179013557Y-116046466D01*
X178962037Y-115876627D01*
X178944641Y-115700000D01*
X178962037Y-115523373D01*
X179013557Y-115353534D01*
X179097222Y-115197009D01*
X179131591Y-115155131D01*
X179209814Y-115059814D01*
X179322364Y-114967448D01*
X179347009Y-114947222D01*
X179503534Y-114863557D01*
X179673373Y-114812037D01*
X179739558Y-114805518D01*
X179805740Y-114799000D01*
X179894260Y-114799000D01*
X179960442Y-114805518D01*
X179960442Y-114805518D01*
G37*
G36*
X136597798Y-115128247D02*
G01*
X136633367Y-115139037D01*
X136666139Y-115156554D01*
X136694869Y-115180131D01*
X136718446Y-115208861D01*
X136735963Y-115241633D01*
X136746753Y-115277202D01*
X136751000Y-115320325D01*
X136751000Y-116379675D01*
X136746753Y-116422798D01*
X136735963Y-116458367D01*
X136718446Y-116491139D01*
X136694869Y-116519869D01*
X136666139Y-116543446D01*
X136633367Y-116560963D01*
X136597798Y-116571753D01*
X136554675Y-116576000D01*
X133495325Y-116576000D01*
X133452202Y-116571753D01*
X133416633Y-116560963D01*
X133383861Y-116543446D01*
X133355131Y-116519869D01*
X133331554Y-116491139D01*
X133314037Y-116458367D01*
X133303247Y-116422798D01*
X133299000Y-116379675D01*
X133299000Y-115320325D01*
X133303247Y-115277202D01*
X133314037Y-115241633D01*
X133331554Y-115208861D01*
X133355131Y-115180131D01*
X133383861Y-115156554D01*
X133416633Y-115139037D01*
X133452202Y-115128247D01*
X133495325Y-115124000D01*
X136554675Y-115124000D01*
X136597798Y-115128247D01*
X136597798Y-115128247D01*
G37*
G36*
X132647798Y-115128247D02*
G01*
X132683367Y-115139037D01*
X132716139Y-115156554D01*
X132744869Y-115180131D01*
X132768446Y-115208861D01*
X132785963Y-115241633D01*
X132796753Y-115277202D01*
X132801000Y-115320325D01*
X132801000Y-116379675D01*
X132796753Y-116422798D01*
X132785963Y-116458367D01*
X132768446Y-116491139D01*
X132744869Y-116519869D01*
X132716139Y-116543446D01*
X132683367Y-116560963D01*
X132647798Y-116571753D01*
X132604675Y-116576000D01*
X129545325Y-116576000D01*
X129502202Y-116571753D01*
X129466633Y-116560963D01*
X129433861Y-116543446D01*
X129405131Y-116519869D01*
X129381554Y-116491139D01*
X129364037Y-116458367D01*
X129353247Y-116422798D01*
X129349000Y-116379675D01*
X129349000Y-115320325D01*
X129353247Y-115277202D01*
X129364037Y-115241633D01*
X129381554Y-115208861D01*
X129405131Y-115180131D01*
X129433861Y-115156554D01*
X129466633Y-115139037D01*
X129502202Y-115128247D01*
X129545325Y-115124000D01*
X132604675Y-115124000D01*
X132647798Y-115128247D01*
X132647798Y-115128247D01*
G37*
G36*
X140547798Y-115128247D02*
G01*
X140583367Y-115139037D01*
X140616139Y-115156554D01*
X140644869Y-115180131D01*
X140668446Y-115208861D01*
X140685963Y-115241633D01*
X140696753Y-115277202D01*
X140701000Y-115320325D01*
X140701000Y-116379675D01*
X140696753Y-116422798D01*
X140685963Y-116458367D01*
X140668446Y-116491139D01*
X140644869Y-116519869D01*
X140616139Y-116543446D01*
X140583367Y-116560963D01*
X140547798Y-116571753D01*
X140504675Y-116576000D01*
X137445325Y-116576000D01*
X137402202Y-116571753D01*
X137366633Y-116560963D01*
X137333861Y-116543446D01*
X137305131Y-116519869D01*
X137281554Y-116491139D01*
X137264037Y-116458367D01*
X137253247Y-116422798D01*
X137249000Y-116379675D01*
X137249000Y-115320325D01*
X137253247Y-115277202D01*
X137264037Y-115241633D01*
X137281554Y-115208861D01*
X137305131Y-115180131D01*
X137333861Y-115156554D01*
X137366633Y-115139037D01*
X137402202Y-115128247D01*
X137445325Y-115124000D01*
X140504675Y-115124000D01*
X140547798Y-115128247D01*
X140547798Y-115128247D01*
G37*
G36*
X144497798Y-115103247D02*
G01*
X144533367Y-115114037D01*
X144566139Y-115131554D01*
X144594869Y-115155131D01*
X144618446Y-115183861D01*
X144635963Y-115216633D01*
X144646753Y-115252202D01*
X144651000Y-115295325D01*
X144651000Y-116354675D01*
X144646753Y-116397798D01*
X144635963Y-116433367D01*
X144618446Y-116466139D01*
X144594869Y-116494869D01*
X144566139Y-116518446D01*
X144533367Y-116535963D01*
X144497798Y-116546753D01*
X144454675Y-116551000D01*
X141395325Y-116551000D01*
X141352202Y-116546753D01*
X141316633Y-116535963D01*
X141283861Y-116518446D01*
X141255131Y-116494869D01*
X141231554Y-116466139D01*
X141214037Y-116433367D01*
X141203247Y-116397798D01*
X141199000Y-116354675D01*
X141199000Y-115295325D01*
X141203247Y-115252202D01*
X141214037Y-115216633D01*
X141231554Y-115183861D01*
X141255131Y-115155131D01*
X141283861Y-115131554D01*
X141316633Y-115114037D01*
X141352202Y-115103247D01*
X141395325Y-115099000D01*
X144454675Y-115099000D01*
X144497798Y-115103247D01*
X144497798Y-115103247D01*
G37*
G36*
X172251000Y-116501000D02*
G01*
X170449000Y-116501000D01*
X170449000Y-114699000D01*
X172251000Y-114699000D01*
X172251000Y-116501000D01*
X172251000Y-116501000D01*
G37*
G36*
X174000443Y-114705519D02*
G01*
X174066627Y-114712037D01*
X174236466Y-114763557D01*
X174392991Y-114847222D01*
X174412895Y-114863557D01*
X174530186Y-114959814D01*
X174591754Y-115034836D01*
X174642778Y-115097009D01*
X174726443Y-115253534D01*
X174777963Y-115423373D01*
X174795359Y-115600000D01*
X174777963Y-115776627D01*
X174726443Y-115946466D01*
X174642778Y-116102991D01*
X174613448Y-116138729D01*
X174530186Y-116240186D01*
X174448635Y-116307112D01*
X174392991Y-116352778D01*
X174236466Y-116436443D01*
X174066627Y-116487963D01*
X174000443Y-116494481D01*
X173934260Y-116501000D01*
X173845740Y-116501000D01*
X173779557Y-116494481D01*
X173713373Y-116487963D01*
X173543534Y-116436443D01*
X173387009Y-116352778D01*
X173331365Y-116307112D01*
X173249814Y-116240186D01*
X173166552Y-116138729D01*
X173137222Y-116102991D01*
X173053557Y-115946466D01*
X173002037Y-115776627D01*
X172984641Y-115600000D01*
X173002037Y-115423373D01*
X173053557Y-115253534D01*
X173137222Y-115097009D01*
X173188246Y-115034836D01*
X173249814Y-114959814D01*
X173367105Y-114863557D01*
X173387009Y-114847222D01*
X173543534Y-114763557D01*
X173713373Y-114712037D01*
X173779557Y-114705519D01*
X173845740Y-114699000D01*
X173934260Y-114699000D01*
X174000443Y-114705519D01*
X174000443Y-114705519D01*
G37*
G36*
X165301000Y-116051000D02*
G01*
X163999000Y-116051000D01*
X163999000Y-114549000D01*
X165301000Y-114549000D01*
X165301000Y-116051000D01*
X165301000Y-116051000D01*
G37*
G36*
X163601000Y-116051000D02*
G01*
X162299000Y-116051000D01*
X162299000Y-114549000D01*
X163601000Y-114549000D01*
X163601000Y-116051000D01*
X163601000Y-116051000D01*
G37*
G36*
X149179591Y-114103085D02*
G01*
X149213569Y-114113393D01*
X149244890Y-114130134D01*
X149272339Y-114152661D01*
X149294866Y-114180110D01*
X149311607Y-114211431D01*
X149321915Y-114245409D01*
X149326000Y-114286890D01*
X149326000Y-114888110D01*
X149321915Y-114929591D01*
X149311607Y-114963569D01*
X149294866Y-114994890D01*
X149272339Y-115022339D01*
X149244890Y-115044866D01*
X149213569Y-115061607D01*
X149179591Y-115071915D01*
X149138110Y-115076000D01*
X148461890Y-115076000D01*
X148420409Y-115071915D01*
X148386431Y-115061607D01*
X148355110Y-115044866D01*
X148327661Y-115022339D01*
X148305134Y-114994890D01*
X148288393Y-114963569D01*
X148278085Y-114929591D01*
X148274000Y-114888110D01*
X148274000Y-114286890D01*
X148278085Y-114245409D01*
X148288393Y-114211431D01*
X148305134Y-114180110D01*
X148327661Y-114152661D01*
X148355110Y-114130134D01*
X148386431Y-114113393D01*
X148420409Y-114103085D01*
X148461890Y-114099000D01*
X149138110Y-114099000D01*
X149179591Y-114103085D01*
X149179591Y-114103085D01*
G37*
G36*
X146697740Y-113908626D02*
G01*
X146746136Y-113918253D01*
X146783902Y-113933896D01*
X146837311Y-113956019D01*
X146837312Y-113956020D01*
X146919369Y-114010848D01*
X146989152Y-114080631D01*
X147004155Y-114103085D01*
X147043981Y-114162689D01*
X147048666Y-114174000D01*
X147078245Y-114245409D01*
X147081747Y-114253865D01*
X147092398Y-114307408D01*
X147101000Y-114350656D01*
X147101000Y-114449344D01*
X147081747Y-114546136D01*
X147066104Y-114583902D01*
X147043981Y-114637311D01*
X147043980Y-114637312D01*
X146989152Y-114719369D01*
X146919369Y-114789152D01*
X146904630Y-114799000D01*
X146837311Y-114843981D01*
X146783902Y-114866104D01*
X146746136Y-114881747D01*
X146697740Y-114891373D01*
X146649345Y-114901000D01*
X146550655Y-114901000D01*
X146502260Y-114891373D01*
X146453864Y-114881747D01*
X146416098Y-114866104D01*
X146362689Y-114843981D01*
X146295370Y-114799000D01*
X146280631Y-114789152D01*
X146210848Y-114719369D01*
X146156020Y-114637312D01*
X146156019Y-114637311D01*
X146133896Y-114583902D01*
X146118253Y-114546136D01*
X146099000Y-114449344D01*
X146099000Y-114350656D01*
X146107603Y-114307408D01*
X146118253Y-114253865D01*
X146121756Y-114245409D01*
X146151334Y-114174000D01*
X146156019Y-114162689D01*
X146195845Y-114103085D01*
X146210848Y-114080631D01*
X146280631Y-114010848D01*
X146362688Y-113956020D01*
X146362689Y-113956019D01*
X146416098Y-113933896D01*
X146453864Y-113918253D01*
X146502260Y-113908626D01*
X146550655Y-113899000D01*
X146649345Y-113899000D01*
X146697740Y-113908626D01*
X146697740Y-113908626D01*
G37*
G36*
X126604591Y-113278085D02*
G01*
X126638569Y-113288393D01*
X126669890Y-113305134D01*
X126697339Y-113327661D01*
X126719866Y-113355110D01*
X126736607Y-113386431D01*
X126746915Y-113420409D01*
X126751000Y-113461890D01*
X126751000Y-114138110D01*
X126746915Y-114179591D01*
X126736607Y-114213569D01*
X126719866Y-114244890D01*
X126697339Y-114272339D01*
X126669890Y-114294866D01*
X126638569Y-114311607D01*
X126604591Y-114321915D01*
X126563110Y-114326000D01*
X125961890Y-114326000D01*
X125920409Y-114321915D01*
X125886431Y-114311607D01*
X125855110Y-114294866D01*
X125827661Y-114272339D01*
X125805134Y-114244890D01*
X125788393Y-114213569D01*
X125778085Y-114179591D01*
X125774000Y-114138110D01*
X125774000Y-113461890D01*
X125778085Y-113420409D01*
X125788393Y-113386431D01*
X125805134Y-113355110D01*
X125827661Y-113327661D01*
X125855110Y-113305134D01*
X125886431Y-113288393D01*
X125920409Y-113278085D01*
X125961890Y-113274000D01*
X126563110Y-113274000D01*
X126604591Y-113278085D01*
X126604591Y-113278085D01*
G37*
G36*
X128179591Y-113278085D02*
G01*
X128213569Y-113288393D01*
X128244890Y-113305134D01*
X128272339Y-113327661D01*
X128294866Y-113355110D01*
X128311607Y-113386431D01*
X128321915Y-113420409D01*
X128326000Y-113461890D01*
X128326000Y-114138110D01*
X128321915Y-114179591D01*
X128311607Y-114213569D01*
X128294866Y-114244890D01*
X128272339Y-114272339D01*
X128244890Y-114294866D01*
X128213569Y-114311607D01*
X128179591Y-114321915D01*
X128138110Y-114326000D01*
X127536890Y-114326000D01*
X127495409Y-114321915D01*
X127461431Y-114311607D01*
X127430110Y-114294866D01*
X127402661Y-114272339D01*
X127380134Y-114244890D01*
X127363393Y-114213569D01*
X127353085Y-114179591D01*
X127349000Y-114138110D01*
X127349000Y-113461890D01*
X127353085Y-113420409D01*
X127363393Y-113386431D01*
X127380134Y-113355110D01*
X127402661Y-113327661D01*
X127430110Y-113305134D01*
X127461431Y-113288393D01*
X127495409Y-113278085D01*
X127536890Y-113274000D01*
X128138110Y-113274000D01*
X128179591Y-113278085D01*
X128179591Y-113278085D01*
G37*
G36*
X179960443Y-112265519D02*
G01*
X180026627Y-112272037D01*
X180196466Y-112323557D01*
X180352991Y-112407222D01*
X180369059Y-112420409D01*
X180490186Y-112519814D01*
X180573448Y-112621271D01*
X180602778Y-112657009D01*
X180686443Y-112813534D01*
X180737963Y-112983373D01*
X180755359Y-113160000D01*
X180737963Y-113336627D01*
X180686443Y-113506466D01*
X180602778Y-113662991D01*
X180573448Y-113698729D01*
X180490186Y-113800186D01*
X180388729Y-113883448D01*
X180352991Y-113912778D01*
X180196466Y-113996443D01*
X180026627Y-114047963D01*
X179960443Y-114054481D01*
X179894260Y-114061000D01*
X179805740Y-114061000D01*
X179739557Y-114054481D01*
X179673373Y-114047963D01*
X179503534Y-113996443D01*
X179347009Y-113912778D01*
X179311271Y-113883448D01*
X179209814Y-113800186D01*
X179126552Y-113698729D01*
X179097222Y-113662991D01*
X179013557Y-113506466D01*
X178962037Y-113336627D01*
X178944641Y-113160000D01*
X178962037Y-112983373D01*
X179013557Y-112813534D01*
X179097222Y-112657009D01*
X179126552Y-112621271D01*
X179209814Y-112519814D01*
X179330941Y-112420409D01*
X179347009Y-112407222D01*
X179503534Y-112323557D01*
X179673373Y-112272037D01*
X179739557Y-112265519D01*
X179805740Y-112259000D01*
X179894260Y-112259000D01*
X179960443Y-112265519D01*
X179960443Y-112265519D01*
G37*
G36*
X163601000Y-113851000D02*
G01*
X162299000Y-113851000D01*
X162299000Y-112349000D01*
X163601000Y-112349000D01*
X163601000Y-113851000D01*
X163601000Y-113851000D01*
G37*
G36*
X165301000Y-113851000D02*
G01*
X163999000Y-113851000D01*
X163999000Y-112349000D01*
X165301000Y-112349000D01*
X165301000Y-113851000D01*
X165301000Y-113851000D01*
G37*
G36*
X149179591Y-112528085D02*
G01*
X149213569Y-112538393D01*
X149244890Y-112555134D01*
X149272339Y-112577661D01*
X149294866Y-112605110D01*
X149311607Y-112636431D01*
X149321915Y-112670409D01*
X149326000Y-112711890D01*
X149326000Y-113313110D01*
X149321915Y-113354591D01*
X149311607Y-113388569D01*
X149294866Y-113419890D01*
X149272339Y-113447339D01*
X149244890Y-113469866D01*
X149213569Y-113486607D01*
X149179591Y-113496915D01*
X149138110Y-113501000D01*
X148461890Y-113501000D01*
X148420409Y-113496915D01*
X148386431Y-113486607D01*
X148355110Y-113469866D01*
X148327661Y-113447339D01*
X148305134Y-113419890D01*
X148288393Y-113388569D01*
X148278085Y-113354591D01*
X148274000Y-113313110D01*
X148274000Y-112711890D01*
X148278085Y-112670409D01*
X148288393Y-112636431D01*
X148305134Y-112605110D01*
X148327661Y-112577661D01*
X148355110Y-112555134D01*
X148386431Y-112538393D01*
X148420409Y-112528085D01*
X148461890Y-112524000D01*
X149138110Y-112524000D01*
X149179591Y-112528085D01*
X149179591Y-112528085D01*
G37*
G36*
X123554591Y-112278085D02*
G01*
X123588569Y-112288393D01*
X123619890Y-112305134D01*
X123647339Y-112327661D01*
X123669866Y-112355110D01*
X123686607Y-112386431D01*
X123696915Y-112420409D01*
X123701000Y-112461890D01*
X123701000Y-113138110D01*
X123696915Y-113179591D01*
X123686607Y-113213569D01*
X123669866Y-113244890D01*
X123647339Y-113272339D01*
X123619890Y-113294866D01*
X123588569Y-113311607D01*
X123554591Y-113321915D01*
X123513110Y-113326000D01*
X122911890Y-113326000D01*
X122870409Y-113321915D01*
X122836431Y-113311607D01*
X122805110Y-113294866D01*
X122777661Y-113272339D01*
X122755134Y-113244890D01*
X122738393Y-113213569D01*
X122728085Y-113179591D01*
X122724000Y-113138110D01*
X122724000Y-112461890D01*
X122728085Y-112420409D01*
X122738393Y-112386431D01*
X122755134Y-112355110D01*
X122777661Y-112327661D01*
X122805110Y-112305134D01*
X122836431Y-112288393D01*
X122870409Y-112278085D01*
X122911890Y-112274000D01*
X123513110Y-112274000D01*
X123554591Y-112278085D01*
X123554591Y-112278085D01*
G37*
G36*
X121979591Y-112278085D02*
G01*
X122013569Y-112288393D01*
X122044890Y-112305134D01*
X122072339Y-112327661D01*
X122094866Y-112355110D01*
X122111607Y-112386431D01*
X122121915Y-112420409D01*
X122126000Y-112461890D01*
X122126000Y-113138110D01*
X122121915Y-113179591D01*
X122111607Y-113213569D01*
X122094866Y-113244890D01*
X122072339Y-113272339D01*
X122044890Y-113294866D01*
X122013569Y-113311607D01*
X121979591Y-113321915D01*
X121938110Y-113326000D01*
X121336890Y-113326000D01*
X121295409Y-113321915D01*
X121261431Y-113311607D01*
X121230110Y-113294866D01*
X121202661Y-113272339D01*
X121180134Y-113244890D01*
X121163393Y-113213569D01*
X121153085Y-113179591D01*
X121149000Y-113138110D01*
X121149000Y-112461890D01*
X121153085Y-112420409D01*
X121163393Y-112386431D01*
X121180134Y-112355110D01*
X121202661Y-112327661D01*
X121230110Y-112305134D01*
X121261431Y-112288393D01*
X121295409Y-112278085D01*
X121336890Y-112274000D01*
X121938110Y-112274000D01*
X121979591Y-112278085D01*
X121979591Y-112278085D01*
G37*
G36*
X158026000Y-113101000D02*
G01*
X151774000Y-113101000D01*
X151774000Y-111399000D01*
X158026000Y-111399000D01*
X158026000Y-113101000D01*
X158026000Y-113101000D01*
G37*
G36*
X128179591Y-111728085D02*
G01*
X128213569Y-111738393D01*
X128244890Y-111755134D01*
X128272339Y-111777661D01*
X128294866Y-111805110D01*
X128311607Y-111836431D01*
X128321915Y-111870409D01*
X128326000Y-111911890D01*
X128326000Y-112588110D01*
X128321915Y-112629591D01*
X128311607Y-112663569D01*
X128294866Y-112694890D01*
X128272339Y-112722339D01*
X128244890Y-112744866D01*
X128213569Y-112761607D01*
X128179591Y-112771915D01*
X128138110Y-112776000D01*
X127536890Y-112776000D01*
X127495409Y-112771915D01*
X127461431Y-112761607D01*
X127430110Y-112744866D01*
X127402661Y-112722339D01*
X127380134Y-112694890D01*
X127363393Y-112663569D01*
X127353085Y-112629591D01*
X127349000Y-112588110D01*
X127349000Y-111911890D01*
X127353085Y-111870409D01*
X127363393Y-111836431D01*
X127380134Y-111805110D01*
X127402661Y-111777661D01*
X127430110Y-111755134D01*
X127461431Y-111738393D01*
X127495409Y-111728085D01*
X127536890Y-111724000D01*
X128138110Y-111724000D01*
X128179591Y-111728085D01*
X128179591Y-111728085D01*
G37*
G36*
X126604591Y-111728085D02*
G01*
X126638569Y-111738393D01*
X126669890Y-111755134D01*
X126697339Y-111777661D01*
X126719866Y-111805110D01*
X126736607Y-111836431D01*
X126746915Y-111870409D01*
X126751000Y-111911890D01*
X126751000Y-112588110D01*
X126746915Y-112629591D01*
X126736607Y-112663569D01*
X126719866Y-112694890D01*
X126697339Y-112722339D01*
X126669890Y-112744866D01*
X126638569Y-112761607D01*
X126604591Y-112771915D01*
X126563110Y-112776000D01*
X125961890Y-112776000D01*
X125920409Y-112771915D01*
X125886431Y-112761607D01*
X125855110Y-112744866D01*
X125827661Y-112722339D01*
X125805134Y-112694890D01*
X125788393Y-112663569D01*
X125778085Y-112629591D01*
X125774000Y-112588110D01*
X125774000Y-111911890D01*
X125778085Y-111870409D01*
X125788393Y-111836431D01*
X125805134Y-111805110D01*
X125827661Y-111777661D01*
X125855110Y-111755134D01*
X125886431Y-111738393D01*
X125920409Y-111728085D01*
X125961890Y-111724000D01*
X126563110Y-111724000D01*
X126604591Y-111728085D01*
X126604591Y-111728085D01*
G37*
G36*
X163454591Y-110778085D02*
G01*
X163488569Y-110788393D01*
X163519890Y-110805134D01*
X163547339Y-110827661D01*
X163569866Y-110855110D01*
X163586607Y-110886431D01*
X163596915Y-110920409D01*
X163601000Y-110961890D01*
X163601000Y-111638110D01*
X163596915Y-111679591D01*
X163586607Y-111713569D01*
X163569866Y-111744890D01*
X163547339Y-111772339D01*
X163519890Y-111794866D01*
X163488569Y-111811607D01*
X163454591Y-111821915D01*
X163413110Y-111826000D01*
X162811890Y-111826000D01*
X162770409Y-111821915D01*
X162736431Y-111811607D01*
X162705110Y-111794866D01*
X162677661Y-111772339D01*
X162655134Y-111744890D01*
X162638393Y-111713569D01*
X162628085Y-111679591D01*
X162624000Y-111638110D01*
X162624000Y-110961890D01*
X162628085Y-110920409D01*
X162638393Y-110886431D01*
X162655134Y-110855110D01*
X162677661Y-110827661D01*
X162705110Y-110805134D01*
X162736431Y-110788393D01*
X162770409Y-110778085D01*
X162811890Y-110774000D01*
X163413110Y-110774000D01*
X163454591Y-110778085D01*
X163454591Y-110778085D01*
G37*
G36*
X165029591Y-110778085D02*
G01*
X165063569Y-110788393D01*
X165094890Y-110805134D01*
X165122339Y-110827661D01*
X165144866Y-110855110D01*
X165161607Y-110886431D01*
X165171915Y-110920409D01*
X165176000Y-110961890D01*
X165176000Y-111638110D01*
X165171915Y-111679591D01*
X165161607Y-111713569D01*
X165144866Y-111744890D01*
X165122339Y-111772339D01*
X165094890Y-111794866D01*
X165063569Y-111811607D01*
X165029591Y-111821915D01*
X164988110Y-111826000D01*
X164386890Y-111826000D01*
X164345409Y-111821915D01*
X164311431Y-111811607D01*
X164280110Y-111794866D01*
X164252661Y-111772339D01*
X164230134Y-111744890D01*
X164213393Y-111713569D01*
X164203085Y-111679591D01*
X164199000Y-111638110D01*
X164199000Y-110961890D01*
X164203085Y-110920409D01*
X164213393Y-110886431D01*
X164230134Y-110855110D01*
X164252661Y-110827661D01*
X164280110Y-110805134D01*
X164311431Y-110788393D01*
X164345409Y-110778085D01*
X164386890Y-110774000D01*
X164988110Y-110774000D01*
X165029591Y-110778085D01*
X165029591Y-110778085D01*
G37*
G36*
X123554591Y-110728085D02*
G01*
X123588569Y-110738393D01*
X123619890Y-110755134D01*
X123647339Y-110777661D01*
X123669866Y-110805110D01*
X123686607Y-110836431D01*
X123696915Y-110870409D01*
X123701000Y-110911890D01*
X123701000Y-111588110D01*
X123696915Y-111629591D01*
X123686607Y-111663569D01*
X123669866Y-111694890D01*
X123647339Y-111722339D01*
X123619890Y-111744866D01*
X123588569Y-111761607D01*
X123554591Y-111771915D01*
X123513110Y-111776000D01*
X122911890Y-111776000D01*
X122870409Y-111771915D01*
X122836431Y-111761607D01*
X122805110Y-111744866D01*
X122777661Y-111722339D01*
X122755134Y-111694890D01*
X122738393Y-111663569D01*
X122728085Y-111629591D01*
X122724000Y-111588110D01*
X122724000Y-110911890D01*
X122728085Y-110870409D01*
X122738393Y-110836431D01*
X122755134Y-110805110D01*
X122777661Y-110777661D01*
X122805110Y-110755134D01*
X122836431Y-110738393D01*
X122870409Y-110728085D01*
X122911890Y-110724000D01*
X123513110Y-110724000D01*
X123554591Y-110728085D01*
X123554591Y-110728085D01*
G37*
G36*
X121979591Y-110728085D02*
G01*
X122013569Y-110738393D01*
X122044890Y-110755134D01*
X122072339Y-110777661D01*
X122094866Y-110805110D01*
X122111607Y-110836431D01*
X122121915Y-110870409D01*
X122126000Y-110911890D01*
X122126000Y-111588110D01*
X122121915Y-111629591D01*
X122111607Y-111663569D01*
X122094866Y-111694890D01*
X122072339Y-111722339D01*
X122044890Y-111744866D01*
X122013569Y-111761607D01*
X121979591Y-111771915D01*
X121938110Y-111776000D01*
X121336890Y-111776000D01*
X121295409Y-111771915D01*
X121261431Y-111761607D01*
X121230110Y-111744866D01*
X121202661Y-111722339D01*
X121180134Y-111694890D01*
X121163393Y-111663569D01*
X121153085Y-111629591D01*
X121149000Y-111588110D01*
X121149000Y-110911890D01*
X121153085Y-110870409D01*
X121163393Y-110836431D01*
X121180134Y-110805110D01*
X121202661Y-110777661D01*
X121230110Y-110755134D01*
X121261431Y-110738393D01*
X121295409Y-110728085D01*
X121336890Y-110724000D01*
X121938110Y-110724000D01*
X121979591Y-110728085D01*
X121979591Y-110728085D01*
G37*
G36*
X180751000Y-111521000D02*
G01*
X178949000Y-111521000D01*
X178949000Y-109719000D01*
X180751000Y-109719000D01*
X180751000Y-111521000D01*
X180751000Y-111521000D01*
G37*
G36*
X121979591Y-109178085D02*
G01*
X122013569Y-109188393D01*
X122044890Y-109205134D01*
X122072339Y-109227661D01*
X122094866Y-109255110D01*
X122111607Y-109286431D01*
X122121915Y-109320409D01*
X122126000Y-109361890D01*
X122126000Y-110038110D01*
X122121915Y-110079591D01*
X122111607Y-110113569D01*
X122094866Y-110144890D01*
X122072339Y-110172339D01*
X122044890Y-110194866D01*
X122013569Y-110211607D01*
X121979591Y-110221915D01*
X121938110Y-110226000D01*
X121336890Y-110226000D01*
X121295409Y-110221915D01*
X121261431Y-110211607D01*
X121230110Y-110194866D01*
X121202661Y-110172339D01*
X121180134Y-110144890D01*
X121163393Y-110113569D01*
X121153085Y-110079591D01*
X121149000Y-110038110D01*
X121149000Y-109361890D01*
X121153085Y-109320409D01*
X121163393Y-109286431D01*
X121180134Y-109255110D01*
X121202661Y-109227661D01*
X121230110Y-109205134D01*
X121261431Y-109188393D01*
X121295409Y-109178085D01*
X121336890Y-109174000D01*
X121938110Y-109174000D01*
X121979591Y-109178085D01*
X121979591Y-109178085D01*
G37*
G36*
X123554591Y-109178085D02*
G01*
X123588569Y-109188393D01*
X123619890Y-109205134D01*
X123647339Y-109227661D01*
X123669866Y-109255110D01*
X123686607Y-109286431D01*
X123696915Y-109320409D01*
X123701000Y-109361890D01*
X123701000Y-110038110D01*
X123696915Y-110079591D01*
X123686607Y-110113569D01*
X123669866Y-110144890D01*
X123647339Y-110172339D01*
X123619890Y-110194866D01*
X123588569Y-110211607D01*
X123554591Y-110221915D01*
X123513110Y-110226000D01*
X122911890Y-110226000D01*
X122870409Y-110221915D01*
X122836431Y-110211607D01*
X122805110Y-110194866D01*
X122777661Y-110172339D01*
X122755134Y-110144890D01*
X122738393Y-110113569D01*
X122728085Y-110079591D01*
X122724000Y-110038110D01*
X122724000Y-109361890D01*
X122728085Y-109320409D01*
X122738393Y-109286431D01*
X122755134Y-109255110D01*
X122777661Y-109227661D01*
X122805110Y-109205134D01*
X122836431Y-109188393D01*
X122870409Y-109178085D01*
X122911890Y-109174000D01*
X123513110Y-109174000D01*
X123554591Y-109178085D01*
X123554591Y-109178085D01*
G37*
G36*
X143600318Y-107695153D02*
G01*
X143788268Y-107773005D01*
X143818887Y-107785688D01*
X144015593Y-107917122D01*
X144182878Y-108084407D01*
X144295481Y-108252931D01*
X144314313Y-108281115D01*
X144404847Y-108499682D01*
X144451000Y-108731710D01*
X144451000Y-108968290D01*
X144404847Y-109200318D01*
X144337921Y-109361890D01*
X144314312Y-109418887D01*
X144182878Y-109615593D01*
X144015593Y-109782878D01*
X143818887Y-109914312D01*
X143818886Y-109914313D01*
X143818885Y-109914313D01*
X143600318Y-110004847D01*
X143368290Y-110051000D01*
X143131710Y-110051000D01*
X142899682Y-110004847D01*
X142681115Y-109914313D01*
X142681114Y-109914313D01*
X142681113Y-109914312D01*
X142484407Y-109782878D01*
X142317122Y-109615593D01*
X142185688Y-109418887D01*
X142162079Y-109361890D01*
X142095153Y-109200318D01*
X142049000Y-108968290D01*
X142049000Y-108731710D01*
X142095153Y-108499682D01*
X142185687Y-108281115D01*
X142204519Y-108252931D01*
X142317122Y-108084407D01*
X142484407Y-107917122D01*
X142681113Y-107785688D01*
X142711732Y-107773005D01*
X142899682Y-107695153D01*
X143131710Y-107649000D01*
X143368290Y-107649000D01*
X143600318Y-107695153D01*
X143600318Y-107695153D01*
G37*
G36*
X128200318Y-107695153D02*
G01*
X128388268Y-107773005D01*
X128418887Y-107785688D01*
X128615593Y-107917122D01*
X128782878Y-108084407D01*
X128895481Y-108252931D01*
X128914313Y-108281115D01*
X129004847Y-108499682D01*
X129051000Y-108731710D01*
X129051000Y-108968290D01*
X129004847Y-109200318D01*
X128937921Y-109361890D01*
X128914312Y-109418887D01*
X128782878Y-109615593D01*
X128615593Y-109782878D01*
X128418887Y-109914312D01*
X128418886Y-109914313D01*
X128418885Y-109914313D01*
X128200318Y-110004847D01*
X127968290Y-110051000D01*
X127731710Y-110051000D01*
X127499682Y-110004847D01*
X127281115Y-109914313D01*
X127281114Y-109914313D01*
X127281113Y-109914312D01*
X127084407Y-109782878D01*
X126917122Y-109615593D01*
X126785688Y-109418887D01*
X126762079Y-109361890D01*
X126695153Y-109200318D01*
X126649000Y-108968290D01*
X126649000Y-108731710D01*
X126695153Y-108499682D01*
X126785687Y-108281115D01*
X126804519Y-108252931D01*
X126917122Y-108084407D01*
X127084407Y-107917122D01*
X127281113Y-107785688D01*
X127311732Y-107773005D01*
X127499682Y-107695153D01*
X127731710Y-107649000D01*
X127968290Y-107649000D01*
X128200318Y-107695153D01*
X128200318Y-107695153D01*
G37*
G36*
X174464499Y-107653445D02*
G01*
X174501995Y-107664820D01*
X174536554Y-107683292D01*
X174566847Y-107708153D01*
X174591708Y-107738446D01*
X174610180Y-107773005D01*
X174621555Y-107810501D01*
X174626000Y-107855638D01*
X174626000Y-108594362D01*
X174621555Y-108639499D01*
X174610180Y-108676995D01*
X174591708Y-108711554D01*
X174566847Y-108741847D01*
X174536554Y-108766708D01*
X174501995Y-108785180D01*
X174464499Y-108796555D01*
X174419362Y-108801000D01*
X173780638Y-108801000D01*
X173735501Y-108796555D01*
X173698005Y-108785180D01*
X173663446Y-108766708D01*
X173633153Y-108741847D01*
X173608292Y-108711554D01*
X173589820Y-108676995D01*
X173578445Y-108639499D01*
X173574000Y-108594362D01*
X173574000Y-107855638D01*
X173578445Y-107810501D01*
X173589820Y-107773005D01*
X173608292Y-107738446D01*
X173633153Y-107708153D01*
X173663446Y-107683292D01*
X173698005Y-107664820D01*
X173735501Y-107653445D01*
X173780638Y-107649000D01*
X174419362Y-107649000D01*
X174464499Y-107653445D01*
X174464499Y-107653445D01*
G37*
G36*
X123505997Y-105953051D02*
G01*
X123539652Y-105963261D01*
X123570665Y-105979838D01*
X123597851Y-106002149D01*
X123620162Y-106029335D01*
X123636739Y-106060348D01*
X123646949Y-106094003D01*
X123651000Y-106135138D01*
X123651000Y-108464862D01*
X123646949Y-108505997D01*
X123636739Y-108539652D01*
X123620162Y-108570665D01*
X123597851Y-108597851D01*
X123570665Y-108620162D01*
X123539652Y-108636739D01*
X123505997Y-108646949D01*
X123464862Y-108651000D01*
X122135138Y-108651000D01*
X122094003Y-108646949D01*
X122060348Y-108636739D01*
X122029335Y-108620162D01*
X122002149Y-108597851D01*
X121979838Y-108570665D01*
X121963261Y-108539652D01*
X121953051Y-108505997D01*
X121949000Y-108464862D01*
X121949000Y-106135138D01*
X121953051Y-106094003D01*
X121963261Y-106060348D01*
X121979838Y-106029335D01*
X122002149Y-106002149D01*
X122029335Y-105979838D01*
X122060348Y-105963261D01*
X122094003Y-105953051D01*
X122135138Y-105949000D01*
X123464862Y-105949000D01*
X123505997Y-105953051D01*
X123505997Y-105953051D01*
G37*
G36*
X172779591Y-107653085D02*
G01*
X172813569Y-107663393D01*
X172844890Y-107680134D01*
X172872339Y-107702661D01*
X172894866Y-107730110D01*
X172911607Y-107761431D01*
X172921915Y-107795409D01*
X172926000Y-107836890D01*
X172926000Y-108438110D01*
X172921915Y-108479591D01*
X172911607Y-108513569D01*
X172894866Y-108544890D01*
X172872339Y-108572339D01*
X172844890Y-108594866D01*
X172813569Y-108611607D01*
X172779591Y-108621915D01*
X172738110Y-108626000D01*
X172061890Y-108626000D01*
X172020409Y-108621915D01*
X171986431Y-108611607D01*
X171955110Y-108594866D01*
X171927661Y-108572339D01*
X171905134Y-108544890D01*
X171888393Y-108513569D01*
X171878085Y-108479591D01*
X171874000Y-108438110D01*
X171874000Y-107836890D01*
X171878085Y-107795409D01*
X171888393Y-107761431D01*
X171905134Y-107730110D01*
X171927661Y-107702661D01*
X171955110Y-107680134D01*
X171986431Y-107663393D01*
X172020409Y-107653085D01*
X172061890Y-107649000D01*
X172738110Y-107649000D01*
X172779591Y-107653085D01*
X172779591Y-107653085D01*
G37*
G36*
X152204487Y-105848996D02*
G01*
X152441253Y-105947068D01*
X152441255Y-105947069D01*
X152554901Y-106023005D01*
X152654339Y-106089447D01*
X152835553Y-106270661D01*
X152977932Y-106483747D01*
X153076004Y-106720513D01*
X153126000Y-106971861D01*
X153126000Y-107228139D01*
X153076004Y-107479487D01*
X152983562Y-107702661D01*
X152977931Y-107716255D01*
X152835553Y-107929339D01*
X152654339Y-108110553D01*
X152441255Y-108252931D01*
X152441254Y-108252932D01*
X152441253Y-108252932D01*
X152204487Y-108351004D01*
X151953139Y-108401000D01*
X151696861Y-108401000D01*
X151445513Y-108351004D01*
X151208747Y-108252932D01*
X151208746Y-108252932D01*
X151208745Y-108252931D01*
X150995661Y-108110553D01*
X150814447Y-107929339D01*
X150672069Y-107716255D01*
X150666438Y-107702661D01*
X150573996Y-107479487D01*
X150524000Y-107228139D01*
X150524000Y-106971861D01*
X150573996Y-106720513D01*
X150672068Y-106483747D01*
X150814447Y-106270661D01*
X150995661Y-106089447D01*
X151095099Y-106023005D01*
X151208745Y-105947069D01*
X151208747Y-105947068D01*
X151445513Y-105848996D01*
X151696861Y-105799000D01*
X151953139Y-105799000D01*
X152204487Y-105848996D01*
X152204487Y-105848996D01*
G37*
G36*
X164404487Y-105848996D02*
G01*
X164641253Y-105947068D01*
X164641255Y-105947069D01*
X164754901Y-106023005D01*
X164854339Y-106089447D01*
X165035553Y-106270661D01*
X165177932Y-106483747D01*
X165276004Y-106720513D01*
X165326000Y-106971861D01*
X165326000Y-107228139D01*
X165276004Y-107479487D01*
X165183562Y-107702661D01*
X165177931Y-107716255D01*
X165035553Y-107929339D01*
X164854339Y-108110553D01*
X164641255Y-108252931D01*
X164641254Y-108252932D01*
X164641253Y-108252932D01*
X164404487Y-108351004D01*
X164153139Y-108401000D01*
X163896861Y-108401000D01*
X163645513Y-108351004D01*
X163408747Y-108252932D01*
X163408746Y-108252932D01*
X163408745Y-108252931D01*
X163195661Y-108110553D01*
X163014447Y-107929339D01*
X162872069Y-107716255D01*
X162866438Y-107702661D01*
X162773996Y-107479487D01*
X162724000Y-107228139D01*
X162724000Y-106971861D01*
X162773996Y-106720513D01*
X162872068Y-106483747D01*
X163014447Y-106270661D01*
X163195661Y-106089447D01*
X163295099Y-106023005D01*
X163408745Y-105947069D01*
X163408747Y-105947068D01*
X163645513Y-105848996D01*
X163896861Y-105799000D01*
X164153139Y-105799000D01*
X164404487Y-105848996D01*
X164404487Y-105848996D01*
G37*
G36*
X174464499Y-105903445D02*
G01*
X174501995Y-105914820D01*
X174536554Y-105933292D01*
X174566847Y-105958153D01*
X174591708Y-105988446D01*
X174610180Y-106023005D01*
X174621555Y-106060501D01*
X174626000Y-106105638D01*
X174626000Y-106844362D01*
X174621555Y-106889499D01*
X174610180Y-106926995D01*
X174591708Y-106961554D01*
X174566847Y-106991847D01*
X174536554Y-107016708D01*
X174501995Y-107035180D01*
X174464499Y-107046555D01*
X174419362Y-107051000D01*
X173780638Y-107051000D01*
X173735501Y-107046555D01*
X173698005Y-107035180D01*
X173663446Y-107016708D01*
X173633153Y-106991847D01*
X173608292Y-106961554D01*
X173589820Y-106926995D01*
X173578445Y-106889499D01*
X173574000Y-106844362D01*
X173574000Y-106105638D01*
X173578445Y-106060501D01*
X173589820Y-106023005D01*
X173608292Y-105988446D01*
X173633153Y-105958153D01*
X173663446Y-105933292D01*
X173698005Y-105914820D01*
X173735501Y-105903445D01*
X173780638Y-105899000D01*
X174419362Y-105899000D01*
X174464499Y-105903445D01*
X174464499Y-105903445D01*
G37*
G36*
X172779591Y-106078085D02*
G01*
X172813569Y-106088393D01*
X172844890Y-106105134D01*
X172872339Y-106127661D01*
X172894866Y-106155110D01*
X172911607Y-106186431D01*
X172921915Y-106220409D01*
X172926000Y-106261890D01*
X172926000Y-106863110D01*
X172921915Y-106904591D01*
X172911607Y-106938569D01*
X172894866Y-106969890D01*
X172872339Y-106997339D01*
X172844890Y-107019866D01*
X172813569Y-107036607D01*
X172779591Y-107046915D01*
X172738110Y-107051000D01*
X172061890Y-107051000D01*
X172020409Y-107046915D01*
X171986431Y-107036607D01*
X171955110Y-107019866D01*
X171927661Y-106997339D01*
X171905134Y-106969890D01*
X171888393Y-106938569D01*
X171878085Y-106904591D01*
X171874000Y-106863110D01*
X171874000Y-106261890D01*
X171878085Y-106220409D01*
X171888393Y-106186431D01*
X171905134Y-106155110D01*
X171927661Y-106127661D01*
X171955110Y-106105134D01*
X171986431Y-106088393D01*
X172020409Y-106078085D01*
X172061890Y-106074000D01*
X172738110Y-106074000D01*
X172779591Y-106078085D01*
X172779591Y-106078085D01*
G37*
G36*
X123505997Y-102353051D02*
G01*
X123539652Y-102363261D01*
X123570665Y-102379838D01*
X123597851Y-102402149D01*
X123620162Y-102429335D01*
X123636739Y-102460348D01*
X123646949Y-102494003D01*
X123651000Y-102535138D01*
X123651000Y-104864862D01*
X123646949Y-104905997D01*
X123636739Y-104939652D01*
X123620162Y-104970665D01*
X123597851Y-104997851D01*
X123570665Y-105020162D01*
X123539652Y-105036739D01*
X123505997Y-105046949D01*
X123464862Y-105051000D01*
X122135138Y-105051000D01*
X122094003Y-105046949D01*
X122060348Y-105036739D01*
X122029335Y-105020162D01*
X122002149Y-104997851D01*
X121979838Y-104970665D01*
X121963261Y-104939652D01*
X121953051Y-104905997D01*
X121949000Y-104864862D01*
X121949000Y-102535138D01*
X121953051Y-102494003D01*
X121963261Y-102460348D01*
X121979838Y-102429335D01*
X122002149Y-102402149D01*
X122029335Y-102379838D01*
X122060348Y-102363261D01*
X122094003Y-102353051D01*
X122135138Y-102349000D01*
X123464862Y-102349000D01*
X123505997Y-102353051D01*
X123505997Y-102353051D01*
G37*
G36*
X171151000Y-103351000D02*
G01*
X169849000Y-103351000D01*
X169849000Y-102349000D01*
X171151000Y-102349000D01*
X171151000Y-103351000D01*
X171151000Y-103351000D01*
G37*
G36*
X177151000Y-102421000D02*
G01*
X174649000Y-102421000D01*
X174649000Y-99919000D01*
X177151000Y-99919000D01*
X177151000Y-102421000D01*
X177151000Y-102421000D01*
G37*
G36*
X166404487Y-99848996D02*
G01*
X166641253Y-99947068D01*
X166641255Y-99947069D01*
X166796799Y-100051000D01*
X166854339Y-100089447D01*
X167035553Y-100270661D01*
X167177932Y-100483747D01*
X167276004Y-100720513D01*
X167326000Y-100971861D01*
X167326000Y-101228139D01*
X167276004Y-101479487D01*
X167177932Y-101716253D01*
X167177931Y-101716255D01*
X167035553Y-101929339D01*
X166854339Y-102110553D01*
X166641255Y-102252931D01*
X166641254Y-102252932D01*
X166641253Y-102252932D01*
X166404487Y-102351004D01*
X166153139Y-102401000D01*
X165896861Y-102401000D01*
X165645513Y-102351004D01*
X165408747Y-102252932D01*
X165408746Y-102252932D01*
X165408745Y-102252931D01*
X165195661Y-102110553D01*
X165014447Y-101929339D01*
X164872069Y-101716255D01*
X164872068Y-101716253D01*
X164773996Y-101479487D01*
X164724000Y-101228139D01*
X164724000Y-100971861D01*
X164773996Y-100720513D01*
X164872068Y-100483747D01*
X165014447Y-100270661D01*
X165195661Y-100089447D01*
X165253201Y-100051000D01*
X165408745Y-99947069D01*
X165408747Y-99947068D01*
X165645513Y-99848996D01*
X165896861Y-99799000D01*
X166153139Y-99799000D01*
X166404487Y-99848996D01*
X166404487Y-99848996D01*
G37*
G36*
X171151000Y-100051000D02*
G01*
X169849000Y-100051000D01*
X169849000Y-99049000D01*
X171151000Y-99049000D01*
X171151000Y-100051000D01*
X171151000Y-100051000D01*
G37*
G36*
X176264903Y-96467075D02*
G01*
X176492571Y-96561378D01*
X176697466Y-96698285D01*
X176871715Y-96872534D01*
X177008622Y-97077429D01*
X177102925Y-97305097D01*
X177151000Y-97546787D01*
X177151000Y-97793213D01*
X177102925Y-98034903D01*
X177008622Y-98262571D01*
X176871715Y-98467466D01*
X176697466Y-98641715D01*
X176492571Y-98778622D01*
X176492570Y-98778623D01*
X176492569Y-98778623D01*
X176264903Y-98872925D01*
X176023214Y-98921000D01*
X175776786Y-98921000D01*
X175535097Y-98872925D01*
X175307431Y-98778623D01*
X175307430Y-98778623D01*
X175307429Y-98778622D01*
X175102534Y-98641715D01*
X174928285Y-98467466D01*
X174791378Y-98262571D01*
X174697075Y-98034903D01*
X174649000Y-97793213D01*
X174649000Y-97546787D01*
X174697075Y-97305097D01*
X174791378Y-97077429D01*
X174928285Y-96872534D01*
X175102534Y-96698285D01*
X175307429Y-96561378D01*
X175535097Y-96467075D01*
X175776786Y-96419000D01*
X176023214Y-96419000D01*
X176264903Y-96467075D01*
X176264903Y-96467075D01*
G37*
G36*
X171076000Y-98301000D02*
G01*
X170174000Y-98301000D01*
X170174000Y-97299000D01*
X171076000Y-97299000D01*
X171076000Y-98301000D01*
X171076000Y-98301000D01*
G37*
G36*
X164404487Y-93848996D02*
G01*
X164577351Y-93920599D01*
X164641255Y-93947069D01*
X164790492Y-94046786D01*
X164854339Y-94089447D01*
X165035553Y-94270661D01*
X165177932Y-94483747D01*
X165276004Y-94720513D01*
X165326000Y-94971861D01*
X165326000Y-95228139D01*
X165276004Y-95479487D01*
X165177932Y-95716253D01*
X165177931Y-95716255D01*
X165035553Y-95929339D01*
X164854339Y-96110553D01*
X164641255Y-96252931D01*
X164641254Y-96252932D01*
X164641253Y-96252932D01*
X164404487Y-96351004D01*
X164153139Y-96401000D01*
X163896861Y-96401000D01*
X163645513Y-96351004D01*
X163408747Y-96252932D01*
X163408746Y-96252932D01*
X163408745Y-96252931D01*
X163195661Y-96110553D01*
X163014447Y-95929339D01*
X162872069Y-95716255D01*
X162872068Y-95716253D01*
X162773996Y-95479487D01*
X162724000Y-95228139D01*
X162724000Y-94971861D01*
X162773996Y-94720513D01*
X162872068Y-94483747D01*
X163014447Y-94270661D01*
X163195661Y-94089447D01*
X163259508Y-94046786D01*
X163408745Y-93947069D01*
X163472649Y-93920599D01*
X163645513Y-93848996D01*
X163896861Y-93799000D01*
X164153139Y-93799000D01*
X164404487Y-93848996D01*
X164404487Y-93848996D01*
G37*
G36*
X152204487Y-93848996D02*
G01*
X152377351Y-93920599D01*
X152441255Y-93947069D01*
X152590492Y-94046786D01*
X152654339Y-94089447D01*
X152835553Y-94270661D01*
X152977932Y-94483747D01*
X153076004Y-94720513D01*
X153126000Y-94971861D01*
X153126000Y-95228139D01*
X153076004Y-95479487D01*
X152977932Y-95716253D01*
X152977931Y-95716255D01*
X152835553Y-95929339D01*
X152654339Y-96110553D01*
X152441255Y-96252931D01*
X152441254Y-96252932D01*
X152441253Y-96252932D01*
X152204487Y-96351004D01*
X151953139Y-96401000D01*
X151696861Y-96401000D01*
X151445513Y-96351004D01*
X151208747Y-96252932D01*
X151208746Y-96252932D01*
X151208745Y-96252931D01*
X150995661Y-96110553D01*
X150814447Y-95929339D01*
X150672069Y-95716255D01*
X150672068Y-95716253D01*
X150573996Y-95479487D01*
X150524000Y-95228139D01*
X150524000Y-94971861D01*
X150573996Y-94720513D01*
X150672068Y-94483747D01*
X150814447Y-94270661D01*
X150995661Y-94089447D01*
X151059508Y-94046786D01*
X151208745Y-93947069D01*
X151272649Y-93920599D01*
X151445513Y-93848996D01*
X151696861Y-93799000D01*
X151953139Y-93799000D01*
X152204487Y-93848996D01*
X152204487Y-93848996D01*
G37*
G36*
X170126000Y-96301000D02*
G01*
X169224000Y-96301000D01*
X169224000Y-95299000D01*
X170126000Y-95299000D01*
X170126000Y-96301000D01*
X170126000Y-96301000D01*
G37*
G36*
X172026000Y-96301000D02*
G01*
X171124000Y-96301000D01*
X171124000Y-95299000D01*
X172026000Y-95299000D01*
X172026000Y-96301000D01*
X172026000Y-96301000D01*
G37*
G36*
X176264903Y-92967075D02*
G01*
X176492571Y-93061378D01*
X176697466Y-93198285D01*
X176871715Y-93372534D01*
X176871716Y-93372536D01*
X177008623Y-93577431D01*
X177102925Y-93805097D01*
X177151000Y-94046786D01*
X177151000Y-94293214D01*
X177102925Y-94534903D01*
X177026044Y-94720512D01*
X177008622Y-94762571D01*
X176871715Y-94967466D01*
X176697466Y-95141715D01*
X176492571Y-95278622D01*
X176492570Y-95278623D01*
X176492569Y-95278623D01*
X176264903Y-95372925D01*
X176023214Y-95421000D01*
X175776786Y-95421000D01*
X175535097Y-95372925D01*
X175307431Y-95278623D01*
X175307430Y-95278623D01*
X175307429Y-95278622D01*
X175102534Y-95141715D01*
X174928285Y-94967466D01*
X174791378Y-94762571D01*
X174773957Y-94720512D01*
X174697075Y-94534903D01*
X174649000Y-94293214D01*
X174649000Y-94046786D01*
X174697075Y-93805097D01*
X174791377Y-93577431D01*
X174928284Y-93372536D01*
X174928285Y-93372534D01*
X175102534Y-93198285D01*
X175307429Y-93061378D01*
X175535097Y-92967075D01*
X175776786Y-92919000D01*
X176023214Y-92919000D01*
X176264903Y-92967075D01*
X176264903Y-92967075D01*
G37*
G36*
X171554591Y-93728085D02*
G01*
X171588569Y-93738393D01*
X171619890Y-93755134D01*
X171647339Y-93777661D01*
X171669866Y-93805110D01*
X171686607Y-93836431D01*
X171696915Y-93870409D01*
X171701000Y-93911890D01*
X171701000Y-94588110D01*
X171696915Y-94629591D01*
X171686607Y-94663569D01*
X171669866Y-94694890D01*
X171647339Y-94722339D01*
X171619890Y-94744866D01*
X171588569Y-94761607D01*
X171554591Y-94771915D01*
X171513110Y-94776000D01*
X170911890Y-94776000D01*
X170870409Y-94771915D01*
X170836431Y-94761607D01*
X170805110Y-94744866D01*
X170777661Y-94722339D01*
X170755134Y-94694890D01*
X170738393Y-94663569D01*
X170728085Y-94629591D01*
X170724000Y-94588110D01*
X170724000Y-93911890D01*
X170728085Y-93870409D01*
X170738393Y-93836431D01*
X170755134Y-93805110D01*
X170777661Y-93777661D01*
X170805110Y-93755134D01*
X170836431Y-93738393D01*
X170870409Y-93728085D01*
X170911890Y-93724000D01*
X171513110Y-93724000D01*
X171554591Y-93728085D01*
X171554591Y-93728085D01*
G37*
G36*
X169979591Y-93728085D02*
G01*
X170013569Y-93738393D01*
X170044890Y-93755134D01*
X170072339Y-93777661D01*
X170094866Y-93805110D01*
X170111607Y-93836431D01*
X170121915Y-93870409D01*
X170126000Y-93911890D01*
X170126000Y-94588110D01*
X170121915Y-94629591D01*
X170111607Y-94663569D01*
X170094866Y-94694890D01*
X170072339Y-94722339D01*
X170044890Y-94744866D01*
X170013569Y-94761607D01*
X169979591Y-94771915D01*
X169938110Y-94776000D01*
X169336890Y-94776000D01*
X169295409Y-94771915D01*
X169261431Y-94761607D01*
X169230110Y-94744866D01*
X169202661Y-94722339D01*
X169180134Y-94694890D01*
X169163393Y-94663569D01*
X169153085Y-94629591D01*
X169149000Y-94588110D01*
X169149000Y-93911890D01*
X169153085Y-93870409D01*
X169163393Y-93836431D01*
X169180134Y-93805110D01*
X169202661Y-93777661D01*
X169230110Y-93755134D01*
X169261431Y-93738393D01*
X169295409Y-93728085D01*
X169336890Y-93724000D01*
X169938110Y-93724000D01*
X169979591Y-93728085D01*
X169979591Y-93728085D01*
G37*
G36*
X176264903Y-89467075D02*
G01*
X176492571Y-89561378D01*
X176697466Y-89698285D01*
X176871715Y-89872534D01*
X177008622Y-90077429D01*
X177102925Y-90305097D01*
X177151000Y-90546787D01*
X177151000Y-90793213D01*
X177102925Y-91034903D01*
X177008622Y-91262571D01*
X176871715Y-91467466D01*
X176697466Y-91641715D01*
X176492571Y-91778622D01*
X176492570Y-91778623D01*
X176492569Y-91778623D01*
X176264903Y-91872925D01*
X176023214Y-91921000D01*
X175776786Y-91921000D01*
X175535097Y-91872925D01*
X175307431Y-91778623D01*
X175307430Y-91778623D01*
X175307429Y-91778622D01*
X175102534Y-91641715D01*
X174928285Y-91467466D01*
X174791378Y-91262571D01*
X174697075Y-91034903D01*
X174649000Y-90793213D01*
X174649000Y-90546787D01*
X174697075Y-90305097D01*
X174791378Y-90077429D01*
X174928285Y-89872534D01*
X175102534Y-89698285D01*
X175307429Y-89561378D01*
X175535097Y-89467075D01*
X175776786Y-89419000D01*
X176023214Y-89419000D01*
X176264903Y-89467075D01*
X176264903Y-89467075D01*
G37*
G36*
X164479487Y-88598996D02*
G01*
X164716253Y-88697068D01*
X164716255Y-88697069D01*
X164929339Y-88839447D01*
X165110553Y-89020661D01*
X165252932Y-89233747D01*
X165351004Y-89470513D01*
X165401000Y-89721861D01*
X165401000Y-89978139D01*
X165351004Y-90229487D01*
X165319685Y-90305097D01*
X165252931Y-90466255D01*
X165110553Y-90679339D01*
X164929339Y-90860553D01*
X164716255Y-91002931D01*
X164716254Y-91002932D01*
X164716253Y-91002932D01*
X164479487Y-91101004D01*
X164228139Y-91151000D01*
X163971861Y-91151000D01*
X163720513Y-91101004D01*
X163483747Y-91002932D01*
X163483746Y-91002932D01*
X163483745Y-91002931D01*
X163270661Y-90860553D01*
X163089447Y-90679339D01*
X162947069Y-90466255D01*
X162880315Y-90305097D01*
X162848996Y-90229487D01*
X162799000Y-89978139D01*
X162799000Y-89721861D01*
X162848996Y-89470513D01*
X162947068Y-89233747D01*
X163089447Y-89020661D01*
X163270661Y-88839447D01*
X163483745Y-88697069D01*
X163483747Y-88697068D01*
X163720513Y-88598996D01*
X163971861Y-88549000D01*
X164228139Y-88549000D01*
X164479487Y-88598996D01*
X164479487Y-88598996D01*
G37*
G36*
X152279487Y-88598996D02*
G01*
X152516253Y-88697068D01*
X152516255Y-88697069D01*
X152729339Y-88839447D01*
X152910553Y-89020661D01*
X153052932Y-89233747D01*
X153151004Y-89470513D01*
X153201000Y-89721861D01*
X153201000Y-89978139D01*
X153151004Y-90229487D01*
X153119685Y-90305097D01*
X153052931Y-90466255D01*
X152910553Y-90679339D01*
X152729339Y-90860553D01*
X152516255Y-91002931D01*
X152516254Y-91002932D01*
X152516253Y-91002932D01*
X152279487Y-91101004D01*
X152028139Y-91151000D01*
X151771861Y-91151000D01*
X151520513Y-91101004D01*
X151283747Y-91002932D01*
X151283746Y-91002932D01*
X151283745Y-91002931D01*
X151070661Y-90860553D01*
X150889447Y-90679339D01*
X150747069Y-90466255D01*
X150680315Y-90305097D01*
X150648996Y-90229487D01*
X150599000Y-89978139D01*
X150599000Y-89721861D01*
X150648996Y-89470513D01*
X150747068Y-89233747D01*
X150889447Y-89020661D01*
X151070661Y-88839447D01*
X151283745Y-88697069D01*
X151283747Y-88697068D01*
X151520513Y-88598996D01*
X151771861Y-88549000D01*
X152028139Y-88549000D01*
X152279487Y-88598996D01*
X152279487Y-88598996D01*
G37*
G36*
X176264903Y-85967075D02*
G01*
X176492571Y-86061378D01*
X176697466Y-86198285D01*
X176871715Y-86372534D01*
X177008622Y-86577429D01*
X177102925Y-86805097D01*
X177151000Y-87046787D01*
X177151000Y-87293213D01*
X177102925Y-87534903D01*
X177008622Y-87762571D01*
X176871715Y-87967466D01*
X176697466Y-88141715D01*
X176492571Y-88278622D01*
X176492570Y-88278623D01*
X176492569Y-88278623D01*
X176264903Y-88372925D01*
X176023214Y-88421000D01*
X175776786Y-88421000D01*
X175535097Y-88372925D01*
X175307431Y-88278623D01*
X175307430Y-88278623D01*
X175307429Y-88278622D01*
X175102534Y-88141715D01*
X174928285Y-87967466D01*
X174791378Y-87762571D01*
X174697075Y-87534903D01*
X174649000Y-87293213D01*
X174649000Y-87046787D01*
X174697075Y-86805097D01*
X174791378Y-86577429D01*
X174928285Y-86372534D01*
X175102534Y-86198285D01*
X175307429Y-86061378D01*
X175535097Y-85967075D01*
X175776786Y-85919000D01*
X176023214Y-85919000D01*
X176264903Y-85967075D01*
X176264903Y-85967075D01*
G37*
G36*
X170901000Y-86201000D02*
G01*
X169599000Y-86201000D01*
X169599000Y-85199000D01*
X170901000Y-85199000D01*
X170901000Y-86201000D01*
X170901000Y-86201000D01*
G37*
G36*
X166479487Y-82598996D02*
G01*
X166716253Y-82697068D01*
X166716255Y-82697069D01*
X166929339Y-82839447D01*
X167110553Y-83020661D01*
X167252932Y-83233747D01*
X167351004Y-83470513D01*
X167401000Y-83721861D01*
X167401000Y-83978139D01*
X167351004Y-84229487D01*
X167337300Y-84262571D01*
X167252931Y-84466255D01*
X167110553Y-84679339D01*
X166929339Y-84860553D01*
X166716255Y-85002931D01*
X166716254Y-85002932D01*
X166716253Y-85002932D01*
X166479487Y-85101004D01*
X166228139Y-85151000D01*
X165971861Y-85151000D01*
X165720513Y-85101004D01*
X165483747Y-85002932D01*
X165483746Y-85002932D01*
X165483745Y-85002931D01*
X165270661Y-84860553D01*
X165089447Y-84679339D01*
X164947069Y-84466255D01*
X164862700Y-84262571D01*
X164848996Y-84229487D01*
X164799000Y-83978139D01*
X164799000Y-83721861D01*
X164848996Y-83470513D01*
X164947068Y-83233747D01*
X165089447Y-83020661D01*
X165270661Y-82839447D01*
X165483745Y-82697069D01*
X165483747Y-82697068D01*
X165720513Y-82598996D01*
X165971861Y-82549000D01*
X166228139Y-82549000D01*
X166479487Y-82598996D01*
X166479487Y-82598996D01*
G37*
G36*
X176264903Y-82467075D02*
G01*
X176492571Y-82561378D01*
X176697466Y-82698285D01*
X176871715Y-82872534D01*
X177008622Y-83077429D01*
X177008623Y-83077431D01*
X177102925Y-83305097D01*
X177151000Y-83546786D01*
X177151000Y-83793214D01*
X177102925Y-84034903D01*
X177022326Y-84229488D01*
X177008622Y-84262571D01*
X176871715Y-84467466D01*
X176697466Y-84641715D01*
X176492571Y-84778622D01*
X176492570Y-84778623D01*
X176492569Y-84778623D01*
X176264903Y-84872925D01*
X176023214Y-84921000D01*
X175776786Y-84921000D01*
X175535097Y-84872925D01*
X175307431Y-84778623D01*
X175307430Y-84778623D01*
X175307429Y-84778622D01*
X175102534Y-84641715D01*
X174928285Y-84467466D01*
X174791378Y-84262571D01*
X174777675Y-84229488D01*
X174697075Y-84034903D01*
X174649000Y-83793214D01*
X174649000Y-83546786D01*
X174697075Y-83305097D01*
X174791377Y-83077431D01*
X174791378Y-83077429D01*
X174928285Y-82872534D01*
X175102534Y-82698285D01*
X175307429Y-82561378D01*
X175535097Y-82467075D01*
X175776786Y-82419000D01*
X176023214Y-82419000D01*
X176264903Y-82467075D01*
X176264903Y-82467075D01*
G37*
G36*
X170901000Y-82901000D02*
G01*
X169599000Y-82901000D01*
X169599000Y-81899000D01*
X170901000Y-81899000D01*
X170901000Y-82901000D01*
X170901000Y-82901000D01*
G37*
G36*
X176264903Y-78967075D02*
G01*
X176492571Y-79061378D01*
X176697466Y-79198285D01*
X176871715Y-79372534D01*
X176871716Y-79372536D01*
X177008623Y-79577431D01*
X177102925Y-79805097D01*
X177145451Y-80018887D01*
X177151000Y-80046787D01*
X177151000Y-80293213D01*
X177102925Y-80534903D01*
X177008622Y-80762571D01*
X176871715Y-80967466D01*
X176697466Y-81141715D01*
X176492571Y-81278622D01*
X176492570Y-81278623D01*
X176492569Y-81278623D01*
X176264903Y-81372925D01*
X176023214Y-81421000D01*
X175776786Y-81421000D01*
X175535097Y-81372925D01*
X175307431Y-81278623D01*
X175307430Y-81278623D01*
X175307429Y-81278622D01*
X175102534Y-81141715D01*
X174928285Y-80967466D01*
X174791378Y-80762571D01*
X174697075Y-80534903D01*
X174649000Y-80293213D01*
X174649000Y-80046787D01*
X174654550Y-80018887D01*
X174697075Y-79805097D01*
X174791377Y-79577431D01*
X174928284Y-79372536D01*
X174928285Y-79372534D01*
X175102534Y-79198285D01*
X175307429Y-79061378D01*
X175535097Y-78967075D01*
X175776786Y-78919000D01*
X176023214Y-78919000D01*
X176264903Y-78967075D01*
X176264903Y-78967075D01*
G37*
G36*
X171126000Y-81351000D02*
G01*
X170224000Y-81351000D01*
X170224000Y-80349000D01*
X171126000Y-80349000D01*
X171126000Y-81351000D01*
X171126000Y-81351000D01*
G37*
G36*
X139101000Y-80651000D02*
G01*
X136999000Y-80651000D01*
X136999000Y-78249000D01*
X139101000Y-78249000D01*
X139101000Y-80651000D01*
X139101000Y-80651000D01*
G37*
G36*
X133400318Y-78295153D02*
G01*
X133618885Y-78385687D01*
X133618887Y-78385688D01*
X133815593Y-78517122D01*
X133982878Y-78684407D01*
X134100574Y-78860553D01*
X134114313Y-78881115D01*
X134204847Y-79099682D01*
X134251000Y-79331710D01*
X134251000Y-79568290D01*
X134204847Y-79800318D01*
X134202867Y-79805097D01*
X134114312Y-80018887D01*
X133982878Y-80215593D01*
X133815593Y-80382878D01*
X133618887Y-80514312D01*
X133618886Y-80514313D01*
X133618885Y-80514313D01*
X133400318Y-80604847D01*
X133168290Y-80651000D01*
X132931710Y-80651000D01*
X132699682Y-80604847D01*
X132481115Y-80514313D01*
X132481114Y-80514313D01*
X132481113Y-80514312D01*
X132284407Y-80382878D01*
X132117122Y-80215593D01*
X131985688Y-80018887D01*
X131897133Y-79805097D01*
X131895153Y-79800318D01*
X131849000Y-79568290D01*
X131849000Y-79331710D01*
X131895153Y-79099682D01*
X131985687Y-78881115D01*
X131999426Y-78860553D01*
X132117122Y-78684407D01*
X132284407Y-78517122D01*
X132481113Y-78385688D01*
X132481115Y-78385687D01*
X132699682Y-78295153D01*
X132931710Y-78249000D01*
X133168290Y-78249000D01*
X133400318Y-78295153D01*
X133400318Y-78295153D01*
G37*
G36*
X172076000Y-79351000D02*
G01*
X171174000Y-79351000D01*
X171174000Y-78349000D01*
X172076000Y-78349000D01*
X172076000Y-79351000D01*
X172076000Y-79351000D01*
G37*
G36*
X170176000Y-79351000D02*
G01*
X169274000Y-79351000D01*
X169274000Y-78349000D01*
X170176000Y-78349000D01*
X170176000Y-79351000D01*
X170176000Y-79351000D01*
G37*
G36*
X164479487Y-76598996D02*
G01*
X164716253Y-76697068D01*
X164716255Y-76697069D01*
X164793975Y-76749000D01*
X164929339Y-76839447D01*
X165110553Y-77020661D01*
X165252932Y-77233747D01*
X165351004Y-77470513D01*
X165401000Y-77721861D01*
X165401000Y-77978139D01*
X165351004Y-78229487D01*
X165286303Y-78385688D01*
X165252931Y-78466255D01*
X165110553Y-78679339D01*
X164929339Y-78860553D01*
X164716255Y-79002931D01*
X164716254Y-79002932D01*
X164716253Y-79002932D01*
X164479487Y-79101004D01*
X164228139Y-79151000D01*
X163971861Y-79151000D01*
X163720513Y-79101004D01*
X163483747Y-79002932D01*
X163483746Y-79002932D01*
X163483745Y-79002931D01*
X163270661Y-78860553D01*
X163089447Y-78679339D01*
X162947069Y-78466255D01*
X162913697Y-78385688D01*
X162848996Y-78229487D01*
X162799000Y-77978139D01*
X162799000Y-77721861D01*
X162848996Y-77470513D01*
X162947068Y-77233747D01*
X163089447Y-77020661D01*
X163270661Y-76839447D01*
X163406025Y-76749000D01*
X163483745Y-76697069D01*
X163483747Y-76697068D01*
X163720513Y-76598996D01*
X163971861Y-76549000D01*
X164228139Y-76549000D01*
X164479487Y-76598996D01*
X164479487Y-76598996D01*
G37*
G36*
X152279487Y-76598996D02*
G01*
X152516253Y-76697068D01*
X152516255Y-76697069D01*
X152593975Y-76749000D01*
X152729339Y-76839447D01*
X152910553Y-77020661D01*
X153052932Y-77233747D01*
X153151004Y-77470513D01*
X153201000Y-77721861D01*
X153201000Y-77978139D01*
X153151004Y-78229487D01*
X153086303Y-78385688D01*
X153052931Y-78466255D01*
X152910553Y-78679339D01*
X152729339Y-78860553D01*
X152516255Y-79002931D01*
X152516254Y-79002932D01*
X152516253Y-79002932D01*
X152279487Y-79101004D01*
X152028139Y-79151000D01*
X151771861Y-79151000D01*
X151520513Y-79101004D01*
X151283747Y-79002932D01*
X151283746Y-79002932D01*
X151283745Y-79002931D01*
X151070661Y-78860553D01*
X150889447Y-78679339D01*
X150747069Y-78466255D01*
X150713697Y-78385688D01*
X150648996Y-78229487D01*
X150599000Y-77978139D01*
X150599000Y-77721861D01*
X150648996Y-77470513D01*
X150747068Y-77233747D01*
X150889447Y-77020661D01*
X151070661Y-76839447D01*
X151206025Y-76749000D01*
X151283745Y-76697069D01*
X151283747Y-76697068D01*
X151520513Y-76598996D01*
X151771861Y-76549000D01*
X152028139Y-76549000D01*
X152279487Y-76598996D01*
X152279487Y-76598996D01*
G37*
G36*
X176264903Y-75467075D02*
G01*
X176492571Y-75561378D01*
X176697466Y-75698285D01*
X176871715Y-75872534D01*
X177008622Y-76077429D01*
X177102925Y-76305097D01*
X177151000Y-76546787D01*
X177151000Y-76793213D01*
X177102925Y-77034903D01*
X177008622Y-77262571D01*
X176871715Y-77467466D01*
X176697466Y-77641715D01*
X176492571Y-77778622D01*
X176492570Y-77778623D01*
X176492569Y-77778623D01*
X176264903Y-77872925D01*
X176023214Y-77921000D01*
X175776786Y-77921000D01*
X175535097Y-77872925D01*
X175307431Y-77778623D01*
X175307430Y-77778623D01*
X175307429Y-77778622D01*
X175102534Y-77641715D01*
X174928285Y-77467466D01*
X174791378Y-77262571D01*
X174697075Y-77034903D01*
X174649000Y-76793213D01*
X174649000Y-76546787D01*
X174697075Y-76305097D01*
X174791378Y-76077429D01*
X174928285Y-75872534D01*
X175102534Y-75698285D01*
X175307429Y-75561378D01*
X175535097Y-75467075D01*
X175776786Y-75419000D01*
X176023214Y-75419000D01*
X176264903Y-75467075D01*
X176264903Y-75467075D01*
G37*
G36*
X170017091Y-76753085D02*
G01*
X170051069Y-76763393D01*
X170082390Y-76780134D01*
X170109839Y-76802661D01*
X170132366Y-76830110D01*
X170149107Y-76861431D01*
X170159415Y-76895409D01*
X170163500Y-76936890D01*
X170163500Y-77613110D01*
X170159415Y-77654591D01*
X170149107Y-77688569D01*
X170132366Y-77719890D01*
X170109839Y-77747339D01*
X170082390Y-77769866D01*
X170051069Y-77786607D01*
X170017091Y-77796915D01*
X169975610Y-77801000D01*
X169374390Y-77801000D01*
X169332909Y-77796915D01*
X169298931Y-77786607D01*
X169267610Y-77769866D01*
X169240161Y-77747339D01*
X169217634Y-77719890D01*
X169200893Y-77688569D01*
X169190585Y-77654591D01*
X169186500Y-77613110D01*
X169186500Y-76936890D01*
X169190585Y-76895409D01*
X169200893Y-76861431D01*
X169217634Y-76830110D01*
X169240161Y-76802661D01*
X169267610Y-76780134D01*
X169298931Y-76763393D01*
X169332909Y-76753085D01*
X169374390Y-76749000D01*
X169975610Y-76749000D01*
X170017091Y-76753085D01*
X170017091Y-76753085D01*
G37*
G36*
X171592091Y-76753085D02*
G01*
X171626069Y-76763393D01*
X171657390Y-76780134D01*
X171684839Y-76802661D01*
X171707366Y-76830110D01*
X171724107Y-76861431D01*
X171734415Y-76895409D01*
X171738500Y-76936890D01*
X171738500Y-77613110D01*
X171734415Y-77654591D01*
X171724107Y-77688569D01*
X171707366Y-77719890D01*
X171684839Y-77747339D01*
X171657390Y-77769866D01*
X171626069Y-77786607D01*
X171592091Y-77796915D01*
X171550610Y-77801000D01*
X170949390Y-77801000D01*
X170907909Y-77796915D01*
X170873931Y-77786607D01*
X170842610Y-77769866D01*
X170815161Y-77747339D01*
X170792634Y-77719890D01*
X170775893Y-77688569D01*
X170765585Y-77654591D01*
X170761500Y-77613110D01*
X170761500Y-76936890D01*
X170765585Y-76895409D01*
X170775893Y-76861431D01*
X170792634Y-76830110D01*
X170815161Y-76802661D01*
X170842610Y-76780134D01*
X170873931Y-76763393D01*
X170907909Y-76753085D01*
X170949390Y-76749000D01*
X171550610Y-76749000D01*
X171592091Y-76753085D01*
X171592091Y-76753085D01*
G37*
G36*
X176264903Y-71967075D02*
G01*
X176458985Y-72047466D01*
X176492571Y-72061378D01*
X176697466Y-72198285D01*
X176871715Y-72372534D01*
X177008622Y-72577429D01*
X177008623Y-72577431D01*
X177075295Y-72738393D01*
X177102925Y-72805097D01*
X177151000Y-73046787D01*
X177151000Y-73293213D01*
X177102925Y-73534903D01*
X177008622Y-73762571D01*
X176871715Y-73967466D01*
X176697466Y-74141715D01*
X176492571Y-74278622D01*
X176492570Y-74278623D01*
X176492569Y-74278623D01*
X176264903Y-74372925D01*
X176023214Y-74421000D01*
X175776786Y-74421000D01*
X175535097Y-74372925D01*
X175307431Y-74278623D01*
X175307430Y-74278623D01*
X175307429Y-74278622D01*
X175102534Y-74141715D01*
X174928285Y-73967466D01*
X174791378Y-73762571D01*
X174697075Y-73534903D01*
X174649000Y-73293213D01*
X174649000Y-73046787D01*
X174697075Y-72805097D01*
X174724705Y-72738393D01*
X174791377Y-72577431D01*
X174791378Y-72577429D01*
X174928285Y-72372534D01*
X175102534Y-72198285D01*
X175307429Y-72061378D01*
X175341016Y-72047466D01*
X175535097Y-71967075D01*
X175776786Y-71919000D01*
X176023214Y-71919000D01*
X176264903Y-71967075D01*
X176264903Y-71967075D01*
G37*
G36*
X134104591Y-72728085D02*
G01*
X134138569Y-72738393D01*
X134169890Y-72755134D01*
X134197339Y-72777661D01*
X134219866Y-72805110D01*
X134236607Y-72836431D01*
X134246915Y-72870409D01*
X134251000Y-72911890D01*
X134251000Y-73588110D01*
X134246915Y-73629591D01*
X134236607Y-73663569D01*
X134219866Y-73694890D01*
X134197339Y-73722339D01*
X134169890Y-73744866D01*
X134138569Y-73761607D01*
X134104591Y-73771915D01*
X134063110Y-73776000D01*
X133461890Y-73776000D01*
X133420409Y-73771915D01*
X133386431Y-73761607D01*
X133355110Y-73744866D01*
X133327661Y-73722339D01*
X133305134Y-73694890D01*
X133288393Y-73663569D01*
X133278085Y-73629591D01*
X133274000Y-73588110D01*
X133274000Y-72911890D01*
X133278085Y-72870409D01*
X133288393Y-72836431D01*
X133305134Y-72805110D01*
X133327661Y-72777661D01*
X133355110Y-72755134D01*
X133386431Y-72738393D01*
X133420409Y-72728085D01*
X133461890Y-72724000D01*
X134063110Y-72724000D01*
X134104591Y-72728085D01*
X134104591Y-72728085D01*
G37*
G36*
X132529591Y-72728085D02*
G01*
X132563569Y-72738393D01*
X132594890Y-72755134D01*
X132622339Y-72777661D01*
X132644866Y-72805110D01*
X132661607Y-72836431D01*
X132671915Y-72870409D01*
X132676000Y-72911890D01*
X132676000Y-73588110D01*
X132671915Y-73629591D01*
X132661607Y-73663569D01*
X132644866Y-73694890D01*
X132622339Y-73722339D01*
X132594890Y-73744866D01*
X132563569Y-73761607D01*
X132529591Y-73771915D01*
X132488110Y-73776000D01*
X131886890Y-73776000D01*
X131845409Y-73771915D01*
X131811431Y-73761607D01*
X131780110Y-73744866D01*
X131752661Y-73722339D01*
X131730134Y-73694890D01*
X131713393Y-73663569D01*
X131703085Y-73629591D01*
X131699000Y-73588110D01*
X131699000Y-72911890D01*
X131703085Y-72870409D01*
X131713393Y-72836431D01*
X131730134Y-72805110D01*
X131752661Y-72777661D01*
X131780110Y-72755134D01*
X131811431Y-72738393D01*
X131845409Y-72728085D01*
X131886890Y-72724000D01*
X132488110Y-72724000D01*
X132529591Y-72728085D01*
X132529591Y-72728085D01*
G37*
G36*
X162426000Y-72501000D02*
G01*
X159924000Y-72501000D01*
X159924000Y-69999000D01*
X162426000Y-69999000D01*
X162426000Y-72501000D01*
X162426000Y-72501000D01*
G37*
G36*
X158039903Y-70047075D02*
G01*
X158267571Y-70141378D01*
X158472466Y-70278285D01*
X158646715Y-70452534D01*
X158783622Y-70657429D01*
X158877925Y-70885097D01*
X158926000Y-71126787D01*
X158926000Y-71373213D01*
X158877925Y-71614903D01*
X158783622Y-71842571D01*
X158646715Y-72047466D01*
X158472466Y-72221715D01*
X158267571Y-72358622D01*
X158267570Y-72358623D01*
X158267569Y-72358623D01*
X158039903Y-72452925D01*
X157798214Y-72501000D01*
X157551786Y-72501000D01*
X157310097Y-72452925D01*
X157082431Y-72358623D01*
X157082430Y-72358623D01*
X157082429Y-72358622D01*
X156877534Y-72221715D01*
X156703285Y-72047466D01*
X156566378Y-71842571D01*
X156472075Y-71614903D01*
X156424000Y-71373213D01*
X156424000Y-71126787D01*
X156472075Y-70885097D01*
X156566378Y-70657429D01*
X156703285Y-70452534D01*
X156877534Y-70278285D01*
X157082429Y-70141378D01*
X157310097Y-70047075D01*
X157551786Y-69999000D01*
X157798214Y-69999000D01*
X158039903Y-70047075D01*
X158039903Y-70047075D01*
G37*
G36*
X154539903Y-70047075D02*
G01*
X154767571Y-70141378D01*
X154972466Y-70278285D01*
X155146715Y-70452534D01*
X155283622Y-70657429D01*
X155377925Y-70885097D01*
X155426000Y-71126787D01*
X155426000Y-71373213D01*
X155377925Y-71614903D01*
X155283622Y-71842571D01*
X155146715Y-72047466D01*
X154972466Y-72221715D01*
X154767571Y-72358622D01*
X154767570Y-72358623D01*
X154767569Y-72358623D01*
X154539903Y-72452925D01*
X154298214Y-72501000D01*
X154051786Y-72501000D01*
X153810097Y-72452925D01*
X153582431Y-72358623D01*
X153582430Y-72358623D01*
X153582429Y-72358622D01*
X153377534Y-72221715D01*
X153203285Y-72047466D01*
X153066378Y-71842571D01*
X152972075Y-71614903D01*
X152924000Y-71373213D01*
X152924000Y-71126787D01*
X152972075Y-70885097D01*
X153066378Y-70657429D01*
X153203285Y-70452534D01*
X153377534Y-70278285D01*
X153582429Y-70141378D01*
X153810097Y-70047075D01*
X154051786Y-69999000D01*
X154298214Y-69999000D01*
X154539903Y-70047075D01*
X154539903Y-70047075D01*
G37*
G36*
X151039903Y-70047075D02*
G01*
X151267571Y-70141378D01*
X151472466Y-70278285D01*
X151646715Y-70452534D01*
X151783622Y-70657429D01*
X151877925Y-70885097D01*
X151926000Y-71126787D01*
X151926000Y-71373213D01*
X151877925Y-71614903D01*
X151783622Y-71842571D01*
X151646715Y-72047466D01*
X151472466Y-72221715D01*
X151267571Y-72358622D01*
X151267570Y-72358623D01*
X151267569Y-72358623D01*
X151039903Y-72452925D01*
X150798214Y-72501000D01*
X150551786Y-72501000D01*
X150310097Y-72452925D01*
X150082431Y-72358623D01*
X150082430Y-72358623D01*
X150082429Y-72358622D01*
X149877534Y-72221715D01*
X149703285Y-72047466D01*
X149566378Y-71842571D01*
X149472075Y-71614903D01*
X149424000Y-71373213D01*
X149424000Y-71126787D01*
X149472075Y-70885097D01*
X149566378Y-70657429D01*
X149703285Y-70452534D01*
X149877534Y-70278285D01*
X150082429Y-70141378D01*
X150310097Y-70047075D01*
X150551786Y-69999000D01*
X150798214Y-69999000D01*
X151039903Y-70047075D01*
X151039903Y-70047075D01*
G37*
G36*
X147539903Y-70047075D02*
G01*
X147767571Y-70141378D01*
X147972466Y-70278285D01*
X148146715Y-70452534D01*
X148283622Y-70657429D01*
X148377925Y-70885097D01*
X148426000Y-71126787D01*
X148426000Y-71373213D01*
X148377925Y-71614903D01*
X148283622Y-71842571D01*
X148146715Y-72047466D01*
X147972466Y-72221715D01*
X147767571Y-72358622D01*
X147767570Y-72358623D01*
X147767569Y-72358623D01*
X147539903Y-72452925D01*
X147298214Y-72501000D01*
X147051786Y-72501000D01*
X146810097Y-72452925D01*
X146582431Y-72358623D01*
X146582430Y-72358623D01*
X146582429Y-72358622D01*
X146377534Y-72221715D01*
X146203285Y-72047466D01*
X146066378Y-71842571D01*
X145972075Y-71614903D01*
X145924000Y-71373213D01*
X145924000Y-71126787D01*
X145972075Y-70885097D01*
X146066378Y-70657429D01*
X146203285Y-70452534D01*
X146377534Y-70278285D01*
X146582429Y-70141378D01*
X146810097Y-70047075D01*
X147051786Y-69999000D01*
X147298214Y-69999000D01*
X147539903Y-70047075D01*
X147539903Y-70047075D01*
G37*
G36*
X144039903Y-70047075D02*
G01*
X144267571Y-70141378D01*
X144472466Y-70278285D01*
X144646715Y-70452534D01*
X144783622Y-70657429D01*
X144877925Y-70885097D01*
X144926000Y-71126787D01*
X144926000Y-71373213D01*
X144877925Y-71614903D01*
X144783622Y-71842571D01*
X144646715Y-72047466D01*
X144472466Y-72221715D01*
X144267571Y-72358622D01*
X144267570Y-72358623D01*
X144267569Y-72358623D01*
X144039903Y-72452925D01*
X143798214Y-72501000D01*
X143551786Y-72501000D01*
X143310097Y-72452925D01*
X143082431Y-72358623D01*
X143082430Y-72358623D01*
X143082429Y-72358622D01*
X142877534Y-72221715D01*
X142703285Y-72047466D01*
X142566378Y-71842571D01*
X142472075Y-71614903D01*
X142424000Y-71373213D01*
X142424000Y-71126787D01*
X142472075Y-70885097D01*
X142566378Y-70657429D01*
X142703285Y-70452534D01*
X142877534Y-70278285D01*
X143082429Y-70141378D01*
X143310097Y-70047075D01*
X143551786Y-69999000D01*
X143798214Y-69999000D01*
X144039903Y-70047075D01*
X144039903Y-70047075D01*
G37*
G36*
X140539903Y-70047075D02*
G01*
X140767571Y-70141378D01*
X140972466Y-70278285D01*
X141146715Y-70452534D01*
X141283622Y-70657429D01*
X141377925Y-70885097D01*
X141426000Y-71126787D01*
X141426000Y-71373213D01*
X141377925Y-71614903D01*
X141283622Y-71842571D01*
X141146715Y-72047466D01*
X140972466Y-72221715D01*
X140767571Y-72358622D01*
X140767570Y-72358623D01*
X140767569Y-72358623D01*
X140539903Y-72452925D01*
X140298214Y-72501000D01*
X140051786Y-72501000D01*
X139810097Y-72452925D01*
X139582431Y-72358623D01*
X139582430Y-72358623D01*
X139582429Y-72358622D01*
X139377534Y-72221715D01*
X139203285Y-72047466D01*
X139066378Y-71842571D01*
X138972075Y-71614903D01*
X138924000Y-71373213D01*
X138924000Y-71126787D01*
X138972075Y-70885097D01*
X139066378Y-70657429D01*
X139203285Y-70452534D01*
X139377534Y-70278285D01*
X139582429Y-70141378D01*
X139810097Y-70047075D01*
X140051786Y-69999000D01*
X140298214Y-69999000D01*
X140539903Y-70047075D01*
X140539903Y-70047075D01*
G37*
G36*
X134840442Y-69605518D02*
G01*
X134906627Y-69612037D01*
X135076466Y-69663557D01*
X135232991Y-69747222D01*
X135268729Y-69776552D01*
X135370186Y-69859814D01*
X135453448Y-69961271D01*
X135482778Y-69997009D01*
X135566443Y-70153534D01*
X135617963Y-70323373D01*
X135635359Y-70500000D01*
X135617963Y-70676627D01*
X135566443Y-70846466D01*
X135482778Y-71002991D01*
X135453448Y-71038729D01*
X135370186Y-71140186D01*
X135268729Y-71223448D01*
X135232991Y-71252778D01*
X135076466Y-71336443D01*
X134906627Y-71387963D01*
X134840443Y-71394481D01*
X134774260Y-71401000D01*
X134685740Y-71401000D01*
X134619557Y-71394481D01*
X134553373Y-71387963D01*
X134383534Y-71336443D01*
X134227009Y-71252778D01*
X134191271Y-71223448D01*
X134089814Y-71140186D01*
X134006552Y-71038729D01*
X133977222Y-71002991D01*
X133893557Y-70846466D01*
X133842037Y-70676627D01*
X133824641Y-70500000D01*
X133842037Y-70323373D01*
X133893557Y-70153534D01*
X133977222Y-69997009D01*
X134006552Y-69961271D01*
X134089814Y-69859814D01*
X134191271Y-69776552D01*
X134227009Y-69747222D01*
X134383534Y-69663557D01*
X134553373Y-69612037D01*
X134619558Y-69605518D01*
X134685740Y-69599000D01*
X134774260Y-69599000D01*
X134840442Y-69605518D01*
X134840442Y-69605518D01*
G37*
G36*
X132300442Y-69605518D02*
G01*
X132366627Y-69612037D01*
X132536466Y-69663557D01*
X132692991Y-69747222D01*
X132728729Y-69776552D01*
X132830186Y-69859814D01*
X132913448Y-69961271D01*
X132942778Y-69997009D01*
X133026443Y-70153534D01*
X133077963Y-70323373D01*
X133095359Y-70500000D01*
X133077963Y-70676627D01*
X133026443Y-70846466D01*
X132942778Y-71002991D01*
X132913448Y-71038729D01*
X132830186Y-71140186D01*
X132728729Y-71223448D01*
X132692991Y-71252778D01*
X132536466Y-71336443D01*
X132366627Y-71387963D01*
X132300443Y-71394481D01*
X132234260Y-71401000D01*
X132145740Y-71401000D01*
X132079557Y-71394481D01*
X132013373Y-71387963D01*
X131843534Y-71336443D01*
X131687009Y-71252778D01*
X131651271Y-71223448D01*
X131549814Y-71140186D01*
X131466552Y-71038729D01*
X131437222Y-71002991D01*
X131353557Y-70846466D01*
X131302037Y-70676627D01*
X131284641Y-70500000D01*
X131302037Y-70323373D01*
X131353557Y-70153534D01*
X131437222Y-69997009D01*
X131466552Y-69961271D01*
X131549814Y-69859814D01*
X131651271Y-69776552D01*
X131687009Y-69747222D01*
X131843534Y-69663557D01*
X132013373Y-69612037D01*
X132079558Y-69605518D01*
X132145740Y-69599000D01*
X132234260Y-69599000D01*
X132300442Y-69605518D01*
X132300442Y-69605518D01*
G37*
G36*
X130551000Y-71401000D02*
G01*
X128749000Y-71401000D01*
X128749000Y-69599000D01*
X130551000Y-69599000D01*
X130551000Y-71401000D01*
X130551000Y-71401000D01*
G37*
M02*
