M48
; DRILL file {KiCad (5.1.4-0)} date 2021 September 23, Thursday 09:14:19
; FORMAT={-:-/ absolute / inch / decimal}
; #@! TF.CreationDate,2021-09-23T09:14:19+03:00
; #@! TF.GenerationSoftware,Kicad,Pcbnew,(5.1.4-0)
; #@! TF.FileFunction,Plated,1,2,PTH
FMAT,2
INCH
T1C0.0118
T2C0.0394
T3C0.0433
T4C0.0591
%
G90
G05
T1
X4.75Y-4.3799
X4.75Y-4.4409
X4.752Y-4.3189
X4.8346Y-4.0098
X4.9331Y-4.4193
X4.935Y-4.4803
X5.1594Y-4.7106
X5.3169Y-4.7421
X5.6299Y-4.7441
X5.689Y-4.4823
X5.7992Y-4.5895
X5.7992Y-4.7265
X5.8145Y-4.5113
X5.8524Y-4.6436
X5.8583Y-4.4055
X5.8637Y-4.6142
X6.1142Y-4.6811
X6.1142Y-4.8146
X6.1204Y-4.6502
X6.2028Y-4.6063
X6.2441Y-4.7766
X6.2539Y-4.4055
X6.3406Y-4.7165
X6.3839Y-4.6083
X6.5197Y-4.3819
X6.5413Y-3.8701
X6.598Y-4.3607
X6.6102Y-3.498
X6.628Y-4.1063
X6.6661Y-4.141
X6.6949Y-4.3071
X6.8937Y-4.1909
X7.0293Y-3.2657
X7.0453Y-4.002
T2
X5.3252Y-2.7953
X5.4252Y-2.7953
X5.5252Y-2.7953
X7.0807Y-4.3551
X7.0807Y-4.4551
X7.0807Y-4.5551
X7.0807Y-4.6551
X7.0807Y-4.7551
X6.7461Y-4.5512
X6.7461Y-4.6512
X6.7461Y-4.7512
X6.8461Y-4.5512
X6.8461Y-4.6512
X6.8461Y-4.7512
X5.0335Y-4.2854
X5.2382Y-3.128
X5.435Y-3.128
X5.6398Y-4.2854
T3
X5.7433Y-2.7992
X5.8433Y-2.7992
X5.9433Y-2.7992
X6.0433Y-2.7992
X6.1433Y-2.7992
X6.2433Y-2.7992
X6.3433Y-2.7992
X6.9252Y-3.1831
X6.9252Y-3.2831
X6.9252Y-3.3831
X6.9252Y-3.4831
X6.9252Y-3.5831
X6.9252Y-3.6831
X6.9252Y-3.7831
X6.9252Y-3.8831
X6.9252Y-3.9831
T4
X5.9862Y-3.065
X5.9862Y-3.5374
X6.4665Y-3.065
X6.4665Y-3.5374
X6.5453Y-3.3012
X5.9941Y-3.748
X5.9941Y-4.2205
X6.4744Y-3.748
X6.4744Y-4.2205
X6.5531Y-3.9843
T0
M30
